<?xml version="1.0"?>
<svg version="1.1" xmlns="http://www.w3.org/2000/svg" width="800" height="312" style=""><path fill="#ffc800" d="M16.02978515625,152.77514648438q-0.0361328125-0.478759765625,0.081298828125-0.9033203125t0.442626953125-0.70458984375t1.10205078125-0.280029296875q0.1806640625,0,0.442626953125,0.0361328125t0.52392578125,0.117431640625t0.424560546875,0.225830078125t0.16259765625,0.3974609375q0,0.66845703125,0.045166015625,1.761474609375t0.117431640625,2.2763671875t0.135498046875,2.3125t0.117431640625,1.833740234375q1.4091796875-0.072265625,2.83642578125-0.072265625t2.818359375-0.072265625l2.4931640625-0.072265625l0-1.78857421875q0-2.9990234375-0.117431640625-6.007080078125t-0.406494140625-6.007080078125q0-0.216796875,0.1806640625-0.352294921875t0.424560546875-0.207763671875t0.505859375-0.09033203125t0.406494140625-0.01806640625q0.41552734375,0,0.894287109375,0.12646484375t0.551025390625,0.5419921875l0.1083984375,0.77685546875q0.45166015625,3.251953125,0.6142578125,6.431640625t0.23486328125,6.359375q0.216796875,0.0361328125,0.460693359375,0.117431640625t0.496826171875,0.153564453125q0.1806640625,0.072265625,0.514892578125,0.216796875t0.334228515625,0.45166015625q0,0.2890625-0.2529296875,0.45166015625t-0.569091796875,0.243896484375t-0.6142578125,0.099365234375t-0.370361328125,0.01806640625q0.0361328125,1.3369140625,0.0361328125,2.664794921875l0,2.664794921875l0,5.83544921875l0,3.251953125q0,0.216796875-0.207763671875,0.388427734375t-0.496826171875,0.280029296875t-0.605224609375,0.14453125t-0.569091796875,0.0361328125t-0.59619140625-0.0361328125t-0.6142578125-0.14453125t-0.478759765625-0.27099609375t-0.207763671875-0.3974609375l0-0.77685546875q0.072265625-3.4326171875,0.16259765625-6.802001953125t0.1806640625-6.765869140625q-1.96923828125,0.072265625-4.001708984375,0.09033203125t-4.037841796875,0.09033203125q0.216796875,2.54736328125,0.496826171875,5.085693359375t0.587158203125,5.085693359375q0,0.216796875-0.207763671875,0.388427734375t-0.48779296875,0.280029296875t-0.59619140625,0.14453125t-0.569091796875,0.0361328125q-0.52392578125,0-1.147216796875-0.1806640625t-0.695556640625-0.66845703125q-0.216796875-1.9150390625-0.406494140625-4.2275390625t-0.334228515625-4.724365234375t-0.225830078125-4.724365234375t-0.081298828125-4.19140625q0-0.45166015625-0.0361328125-0.930419921875z M36.673725585938,167.76123046875q0-1.228515625,0.334228515625-2.36669921875t1.002685546875-2.032470703125t1.671142578125-1.42724609375t2.321533203125-0.532958984375q0.81298828125,0,1.797607421875,0.243896484375t1.851806640625,0.72265625t1.4453125,1.219482421875t0.578125,1.6982421875q0,0.45166015625-0.153564453125,0.6865234375t-0.623291015625,0.23486328125l-0.19873046875-0.0361328125q0.52392578125,1.4091796875,0.9033203125,2.890625t0.74072265625,2.962890625q0.14453125,0.2890625,0.216796875,0.514892578125t0.072265625,0.442626953125q0,0.2890625-0.16259765625,0.478759765625t-0.424560546875,0.280029296875t-0.5419921875,0.12646484375t-0.496826171875,0.0361328125q-0.77685546875,0-1.165283203125-0.27099609375t-0.56005859375-0.74072265625t-0.207763671875-1.056884765625t-0.14453125-1.183349609375q-0.216796875,0.70458984375-0.569091796875,1.373046875t-0.8310546875,1.201416015625t-1.129150390625,0.84912109375t-1.46337890625,0.316162109375q-1.1923828125,0-2.00537109375-0.6865234375t-1.309814453125-1.689208984375t-0.72265625-2.140869140625t-0.225830078125-2.11376953125z M39.239155273438,167.50830078125q0,0.66845703125,0.09033203125,1.4091796875t0.298095703125,1.46337890625t0.532958984375,1.364013671875t0.81298828125,1.129150390625q0.88525390625-0.95751953125,1.309814453125-2.33056640625t0.7587890625-2.646728515625t0.7587890625-2.18603515625t1.309814453125-0.912353515625q0.56005859375,0,0.939453125,0.19873046875q-0.1806640625-0.45166015625-0.59619140625-0.876220703125t-0.930419921875-0.77685546875t-1.06591796875-0.578125t-1.038818359375-0.225830078125q-0.14453125,0-0.334228515625,0.045166015625t-0.298095703125,0.009033203125q-0.74072265625,0.216796875-1.219482421875,0.749755859375t-0.77685546875,1.255615234375t-0.424560546875,1.4814453125t-0.12646484375,1.42724609375z M52.349404296875,167.8515625l0-0.52392578125q0-0.650390625,0.0361328125-1.228515625q0.0361328125-0.81298828125,0.0361328125-1.3369140625q0-0.2890625,0.0361328125-0.659423828125t0.1806640625-0.587158203125q0.1806640625-0.1806640625,0.424560546875-0.370361328125t0.532958984375-0.189697265625q0.92138671875,0,1.4453125,0.207763671875t0.56005859375,0.858154296875l0.072265625,0.56005859375q0.3251953125-0.77685546875,0.8671875-1.924072265625t1.255615234375-2.18603515625t1.60791015625-1.7705078125t1.887939453125-0.731689453125q0.92138671875,0,1.517578125,0.8671875t0.948486328125,2.213134765625t0.496826171875,2.9990234375t0.19873046875,3.242919921875t0.072265625,2.899658203125t0.12646484375,1.978271484375q0.072265625,0.56005859375,0.243896484375,1.183349609375t0.171630859375,1.147216796875q0,0.14453125-0.207763671875,0.280029296875t-0.442626953125,0.225830078125t-0.478759765625,0.14453125t-0.352294921875,0.05419921875q-0.70458984375,0-1.002685546875-1.056884765625t-0.370361328125-2.646728515625t-0.072265625-3.441650390625t-0.12646484375-3.441650390625t-0.514892578125-2.646728515625t-1.237548828125-1.093017578125q-0.77685546875,0-1.60791015625,1.002685546875t-1.42724609375,2.664794921875q-0.578125,1.662109375-0.794921875,3.77587890625q-0.072265625,0.66845703125-0.072265625,1.3369140625q0,1.46337890625,0.30712890625,2.9267578125q0.0361328125,0.2529296875-0.207763671875,0.37939453125t-0.605224609375,0.19873046875t-0.731689453125,0.09033203125t-0.569091796875,0.01806640625q-0.70458984375,0-1.129150390625-0.496826171875t-0.659423828125-1.273681640625t-0.316162109375-1.743408203125t-0.099365234375-1.906005859375z M68.765805664062,167.54443359375q0-1.4091796875,0.298095703125-2.556396484375t0.948486328125-1.942138671875t1.707275390625-1.237548828125t2.574462890625-0.442626953125q0.84912109375,0,1.734375,0.225830078125t1.517578125,0.840087890625q0-0.361328125,0.072265625-1.490478515625t0.1806640625-2.628662109375t0.225830078125-3.1435546875t0.207763671875-3.05322265625t0.16259765625-2.36669921875t0.1083984375-1.083984375q0.1806640625-0.52392578125,0.66845703125-0.623291015625t0.92138671875-0.099365234375q1.13818359375,0,1.400146484375,0.361328125t0.261962890625,1.4453125q0,3.95654296875-0.352294921875,7.876953125t-0.352294921875,7.876953125q0,2.54736328125,0.099365234375,5.121826171875t0.713623046875,5.067626953125l0.19873046875,0.1806640625l0.1083984375,0.3251953125l-0.27099609375,0.41552734375q-0.6865234375,0.43359375-1.58984375,0.43359375l-0.072265625,0q-0.92138671875,0-1.6982421875-0.43359375q-0.2890625-0.1806640625-0.478759765625-1.074951171875t-0.298095703125-1.96923828125t-0.16259765625-2.068603515625t-0.09033203125-1.4091796875q-0.63232421875,1.4453125-1.725341796875,2.484130859375t-2.755126953125,1.038818359375q-1.30078125,0-2.1318359375-0.56005859375t-1.291748046875-1.42724609375t-0.650390625-1.942138671875t-0.189697265625-2.140869140625z M70.951840820312,167.65283203125q0,0.41552734375,0.099365234375,1.228515625t0.316162109375,1.6259765625t0.605224609375,1.4453125t1.020751953125,0.63232421875q0.84912109375-0.41552734375,1.53564453125-1.382080078125t1.183349609375-2.1318359375t0.77685546875-2.33056640625t0.280029296875-2.014404296875q0-1.06591796875-0.77685546875-1.7705078125t-1.86083984375-0.70458984375q-0.3251953125,0-0.659423828125,0.12646484375t-0.623291015625,0.2890625q-0.66845703125,0.63232421875-1.038818359375,1.147216796875t-0.56005859375,1.06591796875t-0.243896484375,1.219482421875t-0.05419921875,1.5537109375z M92.944799804688,171.5732421875q-0.01806640625-0.5419921875-0.01806640625-1.083984375q0-1.6982421875,0.1806640625-3.41455078125q0.216796875-2.2763671875,0.2890625-4.48046875q0.072265625-2.58349609375,0.216796875-5.36572265625q0.09033203125-1.517578125,0.09033203125-2.9990234375q0-1.21044921875-0.05419921875-2.40283203125q0.1806640625-0.41552734375,0.478759765625-0.56005859375t0.749755859375-0.14453125q0.216796875,0,0.460693359375,0.0361328125t0.424560546875,0.1806640625q0.2529296875,0.0361328125,0.623291015625,0.072265625t0.569091796875,0.216796875q0.072265625,0.1083984375,0.370361328125,0.74072265625t0.70458984375,1.53564453125t0.84912109375,1.960205078125t0.84912109375,2.00537109375t0.70458984375,1.671142578125t0.370361328125,0.9033203125q1.6982421875-3.0712890625,3.32421875-6.314208984375t3.55908203125-6.115478515625q0.1806640625-0.2529296875,0.623291015625-0.370361328125t0.731689453125-0.117431640625q0.77685546875,0,1.129150390625,0.370361328125t0.460693359375,0.948486328125q0.072265625,0.361328125,0.09033203125,0.77685546875q0.01806640625,0.216796875-0.01806640625,0.45166015625q-0.072265625,0.66845703125-0.072265625,1.2646484375q0,4.20947265625-0.2890625,8.355712890625t-0.52392578125,8.373779296875q-0.0361328125,0.8671875-0.0361328125,1.806640625t0.0361328125,1.951171875q0.01806640625,0.361328125,0.01806640625,0.70458984375q0,1.58984375-0.27099609375,2.962890625q-0.2529296875,0.41552734375-0.8310546875,0.52392578125t-0.9755859375,0.1083984375q-0.84912109375,0-1.6259765625-0.3974609375l-0.19873046875-0.23486328125l-0.072265625-0.2890625t-0.0361328125-0.2890625q0-2.61962890625,0.189697265625-5.275390625t0.424560546875-5.302490234375t0.496826171875-5.284423828125t0.442626953125-5.275390625q-1.06591796875,1.7705078125-2.068603515625,3.604248046875t-1.887939453125,3.730712890625q-0.3251953125,0.74072265625-0.623291015625,1.58984375t-0.713623046875,1.517578125q-0.216796875,0.3251953125-0.731689453125,0.3974609375t-0.894287109375,0.072265625q-0.361328125,0-0.749755859375-0.12646484375t-0.532958984375-0.5419921875q-0.66845703125-2.04150390625-1.42724609375-3.99267578125t-1.53564453125-3.95654296875q0,1.3369140625,0.05419921875,3.459716796875t0.05419921875,4.399169921875t-0.072265625,4.35400390625t-0.34326171875,3.2880859375q-0.072265625,0.45166015625-0.587158203125,0.56005859375t-0.894287109375,0.1083984375q-0.2890625,0-0.551025390625-0.0361328125t-0.514892578125-0.14453125z M114.40172851562,167.76123046875q0-1.228515625,0.334228515625-2.36669921875t1.002685546875-2.032470703125t1.671142578125-1.42724609375t2.321533203125-0.532958984375q0.81298828125,0,1.797607421875,0.243896484375t1.851806640625,0.72265625t1.4453125,1.219482421875t0.578125,1.6982421875q0,0.45166015625-0.153564453125,0.6865234375t-0.623291015625,0.23486328125l-0.19873046875-0.0361328125q0.52392578125,1.4091796875,0.9033203125,2.890625t0.74072265625,2.962890625q0.14453125,0.2890625,0.216796875,0.514892578125t0.072265625,0.442626953125q0,0.2890625-0.16259765625,0.478759765625t-0.424560546875,0.280029296875t-0.5419921875,0.12646484375t-0.496826171875,0.0361328125q-0.77685546875,0-1.165283203125-0.27099609375t-0.56005859375-0.74072265625t-0.207763671875-1.056884765625t-0.14453125-1.183349609375q-0.216796875,0.70458984375-0.569091796875,1.373046875t-0.8310546875,1.201416015625t-1.129150390625,0.84912109375t-1.46337890625,0.316162109375q-1.1923828125,0-2.00537109375-0.6865234375t-1.309814453125-1.689208984375t-0.72265625-2.140869140625t-0.225830078125-2.11376953125z M116.96715820313,167.50830078125q0,0.66845703125,0.09033203125,1.4091796875t0.298095703125,1.46337890625t0.532958984375,1.364013671875t0.81298828125,1.129150390625q0.88525390625-0.95751953125,1.309814453125-2.33056640625t0.7587890625-2.646728515625t0.7587890625-2.18603515625t1.309814453125-0.912353515625q0.56005859375,0,0.939453125,0.19873046875q-0.1806640625-0.45166015625-0.59619140625-0.876220703125t-0.930419921875-0.77685546875t-1.06591796875-0.578125t-1.038818359375-0.225830078125q-0.14453125,0-0.334228515625,0.045166015625t-0.298095703125,0.009033203125q-0.74072265625,0.216796875-1.219482421875,0.749755859375t-0.77685546875,1.255615234375t-0.424560546875,1.4814453125t-0.12646484375,1.42724609375z M130.05934082031,167.54443359375q0-1.4091796875,0.298095703125-2.556396484375t0.948486328125-1.942138671875t1.707275390625-1.237548828125t2.574462890625-0.442626953125q0.84912109375,0,1.734375,0.225830078125t1.517578125,0.840087890625q0-0.361328125,0.072265625-1.490478515625t0.1806640625-2.628662109375t0.225830078125-3.1435546875t0.207763671875-3.05322265625t0.16259765625-2.36669921875t0.1083984375-1.083984375q0.1806640625-0.52392578125,0.66845703125-0.623291015625t0.92138671875-0.099365234375q1.13818359375,0,1.400146484375,0.361328125t0.261962890625,1.4453125q0,3.95654296875-0.352294921875,7.876953125t-0.352294921875,7.876953125q0,2.54736328125,0.099365234375,5.121826171875t0.713623046875,5.067626953125l0.19873046875,0.1806640625l0.1083984375,0.3251953125l-0.27099609375,0.41552734375q-0.6865234375,0.43359375-1.58984375,0.43359375l-0.072265625,0q-0.92138671875,0-1.6982421875-0.43359375q-0.2890625-0.1806640625-0.478759765625-1.074951171875t-0.298095703125-1.96923828125t-0.16259765625-2.068603515625t-0.09033203125-1.4091796875q-0.63232421875,1.4453125-1.725341796875,2.484130859375t-2.755126953125,1.038818359375q-1.30078125,0-2.1318359375-0.56005859375t-1.291748046875-1.42724609375t-0.650390625-1.942138671875t-0.189697265625-2.140869140625z M132.24537597656,167.65283203125q0,0.41552734375,0.099365234375,1.228515625t0.316162109375,1.6259765625t0.605224609375,1.4453125t1.020751953125,0.63232421875q0.84912109375-0.41552734375,1.53564453125-1.382080078125t1.183349609375-2.1318359375t0.77685546875-2.33056640625t0.280029296875-2.014404296875q0-1.06591796875-0.77685546875-1.7705078125t-1.86083984375-0.70458984375q-0.3251953125,0-0.659423828125,0.12646484375t-0.623291015625,0.2890625q-0.66845703125,0.63232421875-1.038818359375,1.147216796875t-0.56005859375,1.06591796875t-0.243896484375,1.219482421875t-0.05419921875,1.5537109375z M147.162265625,168.501953125q0-1.2646484375,0.280029296875-2.98095703125t0.948486328125-3.251953125t1.761474609375-2.610595703125t2.755126953125-1.074951171875q1.5537109375,0,2.33056640625,0.894287109375t0.77685546875,2.411865234375q0,0.99365234375-0.370361328125,2.177001953125t-1.056884765625,2.240234375t-1.6259765625,1.761474609375t-2.095703125,0.70458984375l-0.4697265625-0.0361328125q0,0.48779296875,0.14453125,1.309814453125t0.424560546875,1.635009765625t0.72265625,1.42724609375t1.074951171875,0.6142578125q0.92138671875,0,1.7705078125-0.74072265625t1.60791015625-1.64404296875t1.4091796875-1.64404296875t1.1923828125-0.74072265625q0.2890625,0,0.59619140625,0.09033203125t0.34326171875,0.505859375q0,0.2529296875-0.135498046875,0.41552734375t-0.243896484375,0.361328125q-0.56005859375,0.95751953125-1.219482421875,1.82470703125t-1.490478515625,1.57177734375t-1.815673828125,1.111083984375t-2.177001953125,0.406494140625q-1.5537109375,0-2.58349609375-0.551025390625t-1.662109375-1.4814453125t-0.912353515625-2.14990234375t-0.280029296875-2.556396484375z M150.39615234375,167.12890625l0.505859375,0.45166015625q0.361328125,0.3251953125,0.72265625,0.14453125t0.650390625-0.659423828125t0.532958984375-1.183349609375t0.43359375-1.4453125t0.280029296875-1.4453125t0.09033203125-1.17431640625l0-0.6142578125t-0.05419921875-0.650390625t-0.189697265625-0.514892578125t-0.424560546875-0.261962890625q-0.09033203125-0.01806640625-0.16259765625-0.01806640625q-0.6142578125,0-1.0478515625,0.77685546875q-0.4697265625,0.8671875-0.7587890625,2.104736328125t-0.41552734375,2.538330078125t-0.16259765625,1.951171875z M169.29975585937,151.591796875q0-0.84912109375,0.045166015625-1.68017578125t0.153564453125-1.64404296875q0.072265625-0.41552734375,0.641357421875-0.59619140625t0.948486328125-0.1806640625l0.43359375,0.0361328125q0.52392578125,0.072265625,1.056884765625-0.072265625t1.056884765625-0.14453125q1.228515625,0,2.74609375,0.27099609375t2.845458984375,0.92138671875t2.231201171875,1.707275390625t0.9033203125,2.610595703125t-0.939453125,2.899658203125t-2.36669921875,2.36669921875t-3.0712890625,1.598876953125t-3.01708984375,0.578125q0.14453125,3.48681640625,0.406494140625,6.91943359375t0.894287109375,6.865234375l0.0361328125,0.23486328125q0,0.2529296875-0.225830078125,0.41552734375t-0.532958984375,0.261962890625t-0.623291015625,0.135498046875t-0.514892578125,0.0361328125q-0.45166015625,0-1.093017578125-0.171630859375t-0.785888671875-0.677490234375q-0.41552734375-1.58984375-0.650390625-3.495849609375t-0.34326171875-3.983642578125t-0.153564453125-4.182373046875t-0.045166015625-4.110107421875l0-4.06494140625q0-0.66845703125-0.01806640625-1.39111328125t-0.01806640625-1.46337890625z M172.71430664062,148.6650390625q0,2.47509765625,0.05419921875,4.941162109375t0.12646484375,4.941162109375q1.06591796875-0.216796875,2.177001953125-0.767822265625t2.00537109375-1.309814453125t1.4453125-1.725341796875t0.551025390625-2.032470703125q0-0.95751953125-0.478759765625-1.71630859375t-1.237548828125-1.30078125q-0.74072265625-0.52392578125-1.68017578125-0.81298828125q-0.8310546875-0.2529296875-1.6259765625-0.2529296875l-0.19873046875,0z M186.05941894531,162.70263671875q0-0.74072265625,0.261962890625-1.24658203125t1.111083984375-0.505859375q0.3251953125,0,0.81298828125,0.099365234375t0.56005859375,0.496826171875q0.1806640625,1.06591796875,0.19873046875,2.3125t0.12646484375,2.3486328125q0.41552734375-0.81298828125,1.06591796875-1.75244140625t1.4814453125-1.734375t1.806640625-1.31884765625t1.9873046875-0.52392578125q0.072265625,0,0.27099609375,0.05419921875t0.370361328125,0.153564453125t0.207763671875,0.225830078125t-0.19873046875,0.23486328125q-0.072265625,0.216796875-0.30712890625,0.261962890625t-0.41552734375,0.045166015625q-0.1083984375,0-0.34326171875-0.09033203125q-1.3369140625,0.70458984375-2.2763671875,1.9150390625t-1.53564453125,2.682861328125t-0.8671875,3.107421875t-0.27099609375,3.188720703125q0,0.77685546875-0.352294921875,0.939453125t-1.129150390625,0.16259765625q-0.41552734375,0-0.876220703125-0.09033203125t-0.641357421875-0.578125q-0.3251953125-1.02978515625-0.532958984375-2.36669921875t-0.316162109375-2.755126953125t-0.153564453125-2.791259765625t-0.045166015625-2.47509765625z M198.53734375,168.1044921875q0-1.02978515625,0.261962890625-2.122802734375t0.8310546875-1.96923828125t1.436279296875-1.42724609375t2.095703125-0.551025390625q0.92138671875,0,1.942138671875,0.316162109375t1.869873046875,0.9033203125t1.382080078125,1.436279296875t0.532958984375,1.89697265625q0,1.2646484375-0.460693359375,2.40283203125t-1.291748046875,2.032470703125t-1.942138671875,1.4091796875t-2.411865234375,0.514892578125q-1.06591796875,0-1.86083984375-0.388427734375t-1.327880859375-1.038818359375t-0.794921875-1.53564453125t-0.261962890625-1.87890625z M201.19310546875,168.068359375q0,0.3251953125,0.099365234375,0.95751953125t0.298095703125,1.237548828125t0.514892578125,1.0478515625t0.767822265625,0.406494140625q0.95751953125-0.1083984375,1.580810546875-0.623291015625t1.01171875-1.255615234375t0.5419921875-1.60791015625t0.153564453125-1.64404296875q0-0.99365234375-0.388427734375-1.662109375t-1.273681640625-1.083984375q0,0.0361328125,0.0361328125,0.0361328125t0.0361328125-0.0361328125l-0.45166015625-0.1083984375q-0.1806640625-0.072265625-0.442626953125-0.16259765625t-0.514892578125-0.3974609375q-0.70458984375,0.2529296875-1.093017578125,0.650390625t-0.587158203125,0.966552734375t-0.243896484375,1.364013671875t-0.045166015625,1.9150390625z M209.18152832031,187.08325195312q0.063232421875-0.261962890625,0.261962890625-0.406494140625t0.650390625-0.14453125q0.48779296875,0,0.92138671875,0.2890625t0.63232421875,0.70458984375q0.63232421875-0.99365234375,0.99365234375-2.3125t0.551025390625-2.74609375t0.225830078125-2.809326171875t0.0361328125-2.538330078125q0-3.63134765625,0.09033203125-7.13623046875t0.2890625-7.13623046875q0-0.2529296875,0.216796875-0.424560546875t0.496826171875-0.261962890625t0.578125-0.12646484375t0.514892578125-0.0361328125q0.41552734375,0,0.81298828125,0.1083984375t0.74072265625,0.3251953125l0.216796875,0.41552734375q-0.0361328125,2.58349609375-0.14453125,5.157958984375t-0.1083984375,5.121826171875q0,0.99365234375,0.0361328125,2.6015625q0.01806640625,0.52392578125,0.01806640625,1.083984375q0,1.1201171875-0.05419921875,2.3486328125q-0.072265625,1.8427734375-0.316162109375,3.712646484375t-0.794921875,3.387451171875t-1.49951171875,2.484130859375t-2.393798828125,0.966552734375q-0.63232421875,0-1.183349609375-0.153564453125t-0.984619140625-0.587158203125q-0.41552734375-0.361328125-0.59619140625-0.77685546875q-0.1083984375-0.2529296875-0.189697265625-0.551025390625t-0.01806640625-0.56005859375z M214.30335449219,158.18603515625l0-1.111083984375t0.12646484375-0.9755859375t0.478759765625-0.6865234375t1.020751953125-0.261962890625q0.2529296875,0,0.514892578125,0.0361328125t0.496826171875,0.14453125l0.3974609375,0.45166015625q0,0.52392578125,0.01806640625,1.15625l0,0.14453125q0,0.5419921875-0.1083984375,1.01171875q-0.12646484375,0.56005859375-0.460693359375,0.948486328125t-1.038818359375,0.388427734375q-0.56005859375,0-0.84912109375-0.16259765625t-0.56005859375-0.6865234375z M221.10842773437,168.501953125q0-1.2646484375,0.280029296875-2.98095703125t0.948486328125-3.251953125t1.761474609375-2.610595703125t2.755126953125-1.074951171875q1.5537109375,0,2.33056640625,0.894287109375t0.77685546875,2.411865234375q0,0.99365234375-0.370361328125,2.177001953125t-1.056884765625,2.240234375t-1.6259765625,1.761474609375t-2.095703125,0.70458984375l-0.4697265625-0.0361328125q0,0.48779296875,0.14453125,1.309814453125t0.424560546875,1.635009765625t0.72265625,1.42724609375t1.074951171875,0.6142578125q0.92138671875,0,1.7705078125-0.74072265625t1.60791015625-1.64404296875t1.4091796875-1.64404296875t1.1923828125-0.74072265625q0.2890625,0,0.59619140625,0.09033203125t0.34326171875,0.505859375q0,0.2529296875-0.135498046875,0.41552734375t-0.243896484375,0.361328125q-0.56005859375,0.95751953125-1.219482421875,1.82470703125t-1.490478515625,1.57177734375t-1.815673828125,1.111083984375t-2.177001953125,0.406494140625q-1.5537109375,0-2.58349609375-0.551025390625t-1.662109375-1.4814453125t-0.912353515625-2.14990234375t-0.280029296875-2.556396484375z M224.34231445312,167.12890625l0.505859375,0.45166015625q0.361328125,0.3251953125,0.72265625,0.14453125t0.650390625-0.659423828125t0.532958984375-1.183349609375t0.43359375-1.4453125t0.280029296875-1.4453125t0.09033203125-1.17431640625l0-0.6142578125t-0.05419921875-0.650390625t-0.189697265625-0.514892578125t-0.424560546875-0.261962890625q-0.09033203125-0.01806640625-0.16259765625-0.01806640625q-0.6142578125,0-1.0478515625,0.77685546875q-0.4697265625,0.8671875-0.7587890625,2.104736328125t-0.41552734375,2.538330078125t-0.16259765625,1.951171875z M236.20598144531,167.39990234375q0-1.30078125,0.334228515625-2.610595703125t1.038818359375-2.3486328125t1.797607421875-1.689208984375t2.574462890625-0.650390625q0.63232421875,0,1.39111328125,0.153564453125t1.400146484375,0.48779296875t1.083984375,0.8671875t0.442626953125,1.309814453125q0,0.48779296875-0.2529296875,0.650390625t-0.66845703125,0.16259765625l-0.12646484375-0.1806640625t-0.352294921875-0.460693359375t-0.478759765625-0.59619140625t-0.48779296875-0.532958984375q-0.74072265625-0.74072265625-1.39111328125-0.794921875l-0.14453125,0q-0.5419921875,0-1.01171875,0.3251953125q-0.52392578125,0.3974609375-0.930419921875,1.1201171875t-0.677490234375,1.53564453125t-0.424560546875,1.64404296875t-0.153564453125,1.373046875q0,0.74072265625,0.171630859375,1.689208984375t0.578125,1.797607421875t1.02978515625,1.42724609375t1.598876953125,0.578125q0.88525390625,0,1.60791015625-0.43359375t1.382080078125-0.966552734375t1.291748046875-0.95751953125t1.30078125-0.424560546875q0.2890625,0,0.587158203125,0.072265625t0.298095703125,0.37939453125l0,0.1083984375q-0.3251953125,0.84912109375-1.10205078125,1.49951171875t-1.743408203125,1.129150390625t-2.00537109375,0.713623046875t-1.851806640625,0.23486328125q-1.517578125,0-2.664794921875-0.496826171875t-1.906005859375-1.364013671875t-1.147216796875-2.086669921875t-0.388427734375-2.664794921875z M251.23126953125,156.2890625q0-0.2529296875,0.5419921875-0.43359375t1.228515625-0.298095703125t1.327880859375-0.171630859375t0.876220703125-0.09033203125q0-0.48779296875,0.0361328125-0.984619140625t0.19873046875-0.88525390625t0.514892578125-0.623291015625t0.984619140625-0.23486328125q0.52392578125,0,0.794921875,0.12646484375t0.578125,0.52392578125q0.072265625,0.216796875,0.072265625,0.41552734375l0,0.605224609375t-0.0361328125,0.623291015625q0.66845703125-0.072265625,1.327880859375-0.171630859375t1.327880859375-0.099365234375q0.48779296875,0,0.66845703125,0.01806640625t0.361328125,0.43359375q0.14453125,0.41552734375-0.352294921875,0.63232421875t-1.1923828125,0.3251953125t-1.382080078125,0.16259765625t-0.8310546875,0.05419921875q-0.216796875,3.107421875-0.442626953125,6.16064453125t-0.225830078125,6.19677734375q0,1.4091796875,0.09033203125,2.90869140625t0.505859375,2.83642578125q0.1083984375,0.41552734375,0.361328125,0.77685546875t0.2529296875,0.77685546875q0,0.2529296875-0.19873046875,0.3974609375t-0.478759765625,0.243896484375t-0.56005859375,0.117431640625t-0.460693359375,0.01806640625q-1.13818359375,0-1.734375-0.84912109375t-0.858154296875-2.032470703125t-0.280029296875-2.429931640625t-0.01806640625-2.0234375q0-1.58984375,0.063232421875-3.251953125t0.153564453125-3.2880859375t0.2529296875-3.1796875t0.37939453125-2.890625q-0.63232421875,0.072265625-1.237548828125,0.16259765625t-1.237548828125,0.09033203125q-0.14453125,0-0.388427734375-0.01806640625t-0.460693359375-0.09033203125t-0.370361328125-0.19873046875t-0.153564453125-0.361328125z"/><path fill="#" d=""/></svg>
