<?xml version="1.0"?>
<svg version="1.1" xmlns="http://www.w3.org/2000/svg" width="700" height="46" style=""><path fill="#ffc800" d="M31.8,32.644l-1.764,0l0,8.96l-11.816,0l0-8.96l-1.764,0l0,19.656l1.764,0l0-8.932l11.816,0l0,8.932l1.764,0l0-19.656z M43.83552,32.588q-3.136,0-5.264,2.268q-2.1,2.24-2.1,5.46l0,11.984l1.764,0l0-8.792l11.256,0l0,8.792l1.764,0l0-11.984q0-3.22-2.1-5.46q-2.184-2.268-5.32-2.268z M49.49152,41.772l-11.256,0l0-1.456q0-2.408,1.624-4.172q1.652-1.792,3.976-1.792t4.032,1.792q1.624,1.764,1.624,4.172l0,1.456z M55.50704,52.3l1.736,0l0-11.872q0-2.352,1.792-4.2q1.792-1.792,4.144-1.792t4.2,1.792q1.792,1.848,1.792,4.2l0,11.872l1.736,0l0-11.872q0-3.192-2.268-5.46t-5.46-2.268q-3.136,0-5.404,2.268t-2.268,5.46l0,11.872z M81.31856,32.672l-4.284,0l-1.064,0l-0.7,0l0,19.628l0.7,0l1.064,0l4.284,0q4.088,0,7-2.856q2.996-2.94,2.996-7.14q0-3.976-2.996-6.832q-2.94-2.8-7-2.8z M81.31856,50.536l-4.284,0l0-16.044l4.284,0q3.5,0,5.88,2.296q2.352,2.296,2.352,5.516q0,3.5-2.352,5.852q-2.38,2.38-5.88,2.38z M104.8576,52.244l1.736,0l0-11.844q0-2.352,1.792-4.144t4.144-1.792q2.296,0,4.144,1.792q1.764,1.764,1.764,4.144l0,11.844l1.792,0l0-11.844q0-2.408,1.792-4.144q1.792-1.792,4.116-1.792q2.352,0,4.144,1.792t1.792,4.144l0,11.844l1.736,0l0-11.844q0-3.192-2.24-5.432t-5.432-2.24q-2.1,0-3.948,1.148q-1.876,1.176-2.688,2.996q-1.092-1.876-2.94-2.996q-1.932-1.148-4.032-1.148q-3.164,0-5.404,2.24q-2.268,2.268-2.268,5.432l0,11.844z M145.62112,32.588q-3.136,0-5.264,2.268q-2.1,2.24-2.1,5.46l0,11.984l1.764,0l0-8.792l11.256,0l0,8.792l1.764,0l0-11.984q0-3.22-2.1-5.46q-2.184-2.268-5.32-2.268z M151.27712,41.772l-11.256,0l0-1.456q0-2.408,1.624-4.172q1.652-1.792,3.976-1.792t4.032,1.792q1.624,1.764,1.624,4.172l0,1.456z M163.48064,32.672l-4.284,0l-1.064,0l-0.7,0l0,19.628l0.7,0l1.064,0l4.284,0q4.088,0,7-2.856q2.996-2.94,2.996-7.14q0-3.976-2.996-6.832q-2.94-2.8-7-2.8z M163.48064,50.536l-4.284,0l0-16.044l4.284,0q3.5,0,5.88,2.296q2.352,2.296,2.352,5.516q0,3.5-2.352,5.852q-2.38,2.38-5.88,2.38z M179.10016,46.924q0-1.344,0.952-2.436q0.952-1.148,2.296-1.148l0.364,0l5.236,0l0-1.736l-5.236,0l-0.364,0q-1.428-0.28-2.338-1.232t-0.91-2.268q0-1.652,0.966-2.618t2.646-0.966l9.52,0l0-1.764l-9.52,0q-2.156,0-3.752,1.596q-1.596,1.54-1.596,3.752q0,1.4,0.532,2.548t1.568,1.652q-1.036,0.756-1.568,1.988t-0.532,2.632q0,2.184,1.596,3.724q1.624,1.624,3.752,1.624l9.52,0l0-1.848l-9.52,0q-1.68,0-2.646-0.952t-0.966-2.548z M215.9672,32.7l-8.792,0l-1.736,0l0,19.684l1.736,0l0-9.856l8.792,0q2.128,0,3.528-1.4t1.4-3.5q0-1.904-1.4-3.388q-1.484-1.54-3.528-1.54z M215.9672,40.792l-8.792,0l0-6.356l8.792,0q1.288,0,2.268,0.924q0.924,0.98,0.924,2.268q0,1.316-0.924,2.24q-0.98,0.924-2.268,0.924z M232.79072,42.472l2.1,0q2.128,0,3.528-1.4t1.4-3.528q0-1.876-1.4-3.36q-1.484-1.54-3.528-1.54l-8.764,0l-1.736,0l0,19.656l1.736,0l0-9.828l4.564,0l5.964,9.828l2.1,0z M226.12672,40.736l0-6.328l8.764,0q1.288,0,2.268,0.924q0.924,0.924,0.924,2.212q0,1.344-0.924,2.268q-0.98,0.924-2.268,0.924l-8.764,0z M251.46224,32.7q-3.164,0-5.432,2.268q-2.296,2.296-2.296,5.46l0,4.228q0,3.108,2.296,5.404t5.432,2.296q3.164,0,5.46-2.296q2.268-2.268,2.268-5.404l0-4.228q0-3.192-2.268-5.46t-5.46-2.268z M257.45424,40.428l0,4.228q0,2.548-1.792,4.284q-1.764,1.68-4.2,1.68t-4.172-1.68q-1.792-1.736-1.792-4.284l0-4.228q0-2.352,1.792-4.2q1.792-1.792,4.172-1.792q2.352,0,4.2,1.792q1.792,1.848,1.792,4.2z M275.73376,32.616l-1.792,0l0,13.02q0,2.1-1.4,3.5t-3.5,1.4t-3.5-1.4q-1.428-1.372-1.428-3.5l0-3.164l-1.736,0l0,3.164q0,2.828,2.016,4.76q1.988,1.904,4.648,1.904q2.912,0,4.816-1.904q1.876-1.876,1.876-4.76l0-13.02z M281.66528,46.924q0-1.344,0.952-2.436q0.952-1.148,2.296-1.148l0.364,0l5.236,0l0-1.736l-5.236,0l-0.364,0q-1.428-0.28-2.338-1.232t-0.91-2.268q0-1.652,0.966-2.618t2.646-0.966l9.52,0l0-1.764l-9.52,0q-2.156,0-3.752,1.596q-1.596,1.54-1.596,3.752q0,1.4,0.532,2.548t1.568,1.652q-1.036,0.756-1.568,1.988t-0.532,2.632q0,2.184,1.596,3.724q1.624,1.624,3.752,1.624l9.52,0l0-1.848l-9.52,0q-1.68,0-2.646-0.952t-0.966-2.548z M312.9088,52.3l0-1.764l-4.984,0q-3.472,0-5.824-2.352t-2.352-5.824q0-3.192,2.352-5.488t5.824-2.296l4.984,0l0-1.82l-4.984,0q-4.228,0-7.084,2.8q-2.856,2.772-2.856,6.804q0,4.284,2.856,7.084q2.8,2.856,7.084,2.856l4.984,0z M330.96432,32.7l-15.176,0l0,1.708l6.888,0l0,17.948l1.736,0l0-17.948l6.552,0l0-1.708z"/><path fill="#" d=""/></svg>
