<?xml version="1.0"?>
<svg version="1.1" xmlns="http://www.w3.org/2000/svg" width="60" height="83" style=""><path fill="#ffc800" d="M42.6,386.808l-2.898,0l0,14.72l-19.412,0l0-14.72l-2.898,0l0,32.292l2.898,0l0-14.674l19.412,0l0,14.674l2.898,0l0-32.292z M62.37264,386.716q-5.152,0-8.648,3.726q-3.45,3.68-3.45,8.97l0,19.688l2.898,0l0-14.444l18.492,0l0,14.444l2.898,0l0-19.688q0-5.29-3.45-8.97q-3.588-3.726-8.74-3.726z M71.66464,401.804l-18.492,0l0-2.392q0-3.956,2.668-6.854q2.714-2.944,6.532-2.944t6.624,2.944q2.668,2.898,2.668,6.854l0,2.392z M81.54728,419.1l2.852,0l0-19.504q0-3.864,2.944-6.9q2.944-2.944,6.808-2.944t6.9,2.944q2.944,3.036,2.944,6.9l0,19.504l2.852,0l0-19.504q0-5.244-3.726-8.97t-8.97-3.726q-5.152,0-8.878,3.726t-3.726,8.97l0,19.504z M123.95192,386.854l-7.038,0l-1.748,0l-1.15,0l0,32.246l1.15,0l1.748,0l7.038,0q6.716,0,11.5-4.692q4.922-4.83,4.922-11.73q0-6.532-4.922-11.224q-4.83-4.6-11.5-4.6z M123.95192,416.202l-7.038,0l0-26.358l7.038,0q5.75,0,9.66,3.772q3.864,3.772,3.864,9.062q0,5.75-3.864,9.614q-3.91,3.91-9.66,3.91z M162.6232,419.008l2.852,0l0-19.458q0-3.864,2.944-6.808t6.808-2.944q3.772,0,6.808,2.944q2.898,2.898,2.898,6.808l0,19.458l2.944,0l0-19.458q0-3.956,2.944-6.808q2.944-2.944,6.762-2.944q3.864,0,6.808,2.944t2.944,6.808l0,19.458l2.852,0l0-19.458q0-5.244-3.68-8.924t-8.924-3.68q-3.45,0-6.486,1.886q-3.082,1.932-4.416,4.922q-1.794-3.082-4.83-4.922q-3.174-1.886-6.624-1.886q-5.198,0-8.878,3.68q-3.726,3.726-3.726,8.924l0,19.458z M229.59184,386.716q-5.152,0-8.648,3.726q-3.45,3.68-3.45,8.97l0,19.688l2.898,0l0-14.444l18.492,0l0,14.444l2.898,0l0-19.688q0-5.29-3.45-8.97q-3.588-3.726-8.74-3.726z M238.88384,401.804l-18.492,0l0-2.392q0-3.956,2.668-6.854q2.714-2.944,6.532-2.944t6.624,2.944q2.668,2.898,2.668,6.854l0,2.392z M258.93248,386.854l-7.038,0l-1.748,0l-1.15,0l0,32.246l1.15,0l1.748,0l7.038,0q6.716,0,11.5-4.692q4.922-4.83,4.922-11.73q0-6.532-4.922-11.224q-4.83-4.6-11.5-4.6z M258.93248,416.202l-7.038,0l0-26.358l7.038,0q5.75,0,9.66,3.772q3.864,3.772,3.864,9.062q0,5.75-3.864,9.614q-3.91,3.91-9.66,3.91z M284.59312,410.268q0-2.208,1.564-4.002q1.564-1.886,3.772-1.886l0.598,0l8.602,0l0-2.852l-8.602,0l-0.598,0q-2.346-0.46-3.841-2.024t-1.495-3.726q0-2.714,1.587-4.301t4.347-1.587l15.64,0l0-2.898l-15.64,0q-3.542,0-6.164,2.622q-2.622,2.53-2.622,6.164q0,2.3,0.874,4.186t2.576,2.714q-1.702,1.242-2.576,3.266t-0.874,4.324q0,3.588,2.622,6.118q2.668,2.668,6.164,2.668l15.64,0l0-3.036l-15.64,0q-2.76,0-4.347-1.564t-1.587-4.186z M345.1604,386.9l-14.444,0l-2.852,0l0,32.338l2.852,0l0-16.192l14.444,0q3.496,0,5.796-2.3t2.3-5.75q0-3.128-2.3-5.566q-2.438-2.53-5.796-2.53z M345.1604,400.194l-14.444,0l0-10.442l14.444,0q2.116,0,3.726,1.518q1.518,1.61,1.518,3.726q0,2.162-1.518,3.68q-1.61,1.518-3.726,1.518z M372.79904,402.954l3.45,0q3.496,0,5.796-2.3t2.3-5.796q0-3.082-2.3-5.52q-2.438-2.53-5.796-2.53l-14.398,0l-2.852,0l0,32.292l2.852,0l0-16.146l7.498,0l9.798,16.146l3.45,0z M361.85104,400.102l0-10.396l14.398,0q2.116,0,3.726,1.518q1.518,1.518,1.518,3.634q0,2.208-1.518,3.726q-1.61,1.518-3.726,1.518l-14.398,0z M403.47368,386.9q-5.198,0-8.924,3.726q-3.772,3.772-3.772,8.97l0,6.946q0,5.106,3.772,8.878t8.924,3.772q5.198,0,8.97-3.772q3.726-3.726,3.726-8.878l0-6.946q0-5.244-3.726-8.97t-8.97-3.726z M413.31768,399.596l0,6.946q0,4.186-2.944,7.038q-2.898,2.76-6.9,2.76t-6.854-2.76q-2.944-2.852-2.944-7.038l0-6.946q0-3.864,2.944-6.9q2.944-2.944,6.854-2.944q3.864,0,6.9,2.944q2.944,3.036,2.944,6.9z M443.34832,386.762l-2.944,0l0,21.39q0,3.45-2.3,5.75t-5.75,2.3t-5.75-2.3q-2.346-2.254-2.346-5.75l0-5.198l-2.852,0l0,5.198q0,4.646,3.312,7.82q3.266,3.128,7.636,3.128q4.784,0,7.912-3.128q3.082-3.082,3.082-7.82l0-21.39z M453.09296,410.268q0-2.208,1.564-4.002q1.564-1.886,3.772-1.886l0.598,0l8.602,0l0-2.852l-8.602,0l-0.598,0q-2.346-0.46-3.841-2.024t-1.495-3.726q0-2.714,1.587-4.301t4.347-1.587l15.64,0l0-2.898l-15.64,0q-3.542,0-6.164,2.622q-2.622,2.53-2.622,6.164q0,2.3,0.874,4.186t2.576,2.714q-1.702,1.242-2.576,3.266t-0.874,4.324q0,3.588,2.622,6.118q2.668,2.668,6.164,2.668l15.64,0l0-3.036l-15.64,0q-2.76,0-4.347-1.564t-1.587-4.186z M504.4216,419.1l0-2.898l-8.188,0q-5.704,0-9.568-3.864t-3.864-9.568q0-5.244,3.864-9.016t9.568-3.772l8.188,0l0-2.99l-8.188,0q-6.946,0-11.638,4.6q-4.692,4.554-4.692,11.178q0,7.038,4.692,11.638q4.6,4.692,11.638,4.692l8.188,0z M534.08424,386.9l-24.932,0l0,2.806l11.316,0l0,29.486l2.852,0l0-29.486l10.764,0l0-2.806z"/><path fill="#" d=""/></svg>
