<svg width="526.0549926757812px" height="140.9600036621094px" xmlns="http://www.w3.org/2000/svg" viewBox="-13.027496337890625 4.519998168945307 526.0549926757812 140.9600036621094" style="background: rgba(0, 0, 0, 0);" preserveAspectRatio="xMidYMid"><defs><filter id="editing-extrude-glow"><feFlood flood-color="#333333" result="flood-1"></feFlood><feMorphology operator="erode" radius="1" in="SourceAlpha" result="erode"></feMorphology><feComposite operator="in" in="flood-1" in2="erode" result="comp1"></feComposite><feConvolveMatrix order="3,3" divisor="1" in="comp1" result="convolve" kernelMatrix="0 0 0 1 1 1 0 0 0"></feConvolveMatrix><feOffset dx="-3" dy="0" in="convolve" result="extrude"></feOffset><feComposite operator="in" in="flood-1" in2="extrude" result="comp-extrude"></feComposite><feFlood flood-color="#000000" result="flood-2"></feFlood><feComposite operator="in" in="flood-2" in2="SourceAlpha" result="comp2"></feComposite><feMorphology operator="dilate" radius="1" in="comp2" result="dilate"></feMorphology><feOffset dx="-4.5" dy="0" in="dilate" result="offset"></feOffset><feGaussianBlur in="offset" stdDeviation="5.8" result="blur"></feGaussianBlur><feComponentTransfer in="blur" result="shadow"><feFuncA type="linear" slope="0.8" intercept="-0.2"></feFuncA></feComponentTransfer><feMerge><feMergeNode in="shadow"></feMergeNode><feMergeNode in="comp-extrude"></feMergeNode><feMergeNode in="SourceGraphic"></feMergeNode></feMerge></filter></defs><g filter="url(#editing-extrude-glow)"><g transform="translate(64.03002274036407, 112.03500175476074)"><path d="M23.06-16.13L23.06-16.13L23.06-16.13Q29.94-16.13 29.94-12.63L29.94-12.63L29.94-12.63Q29.94-10 26.13-6.50L26.13-6.50L26.13-6.50Q20.44-1.31 10.81 1.81L10.81 1.81L10.81 1.81Q10.38 1.81 9.84 0.94L9.84 0.94L9.84 0.94Q9.31 0.06 9.03-0.41L9.03-0.41L9.03-0.41Q8.75-0.88 8.63-1L8.63-1L8.63-1Q15.81-3.38 20.44-6.75L20.44-6.75L20.44-6.75Q23.56-9 23.56-10.44L23.56-10.44L23.56-10.44Q23.56-11.88 19.88-11.88L19.88-11.88L19.88-11.88Q16.19-11.88 9.06-10.13L9.06-10.13L9.06-10.13Q5.81-10.25 3.44-12.44L3.44-12.44L3.44-12.44Q1.38-14.38 1.38-16.34L1.38-16.34L1.38-16.34Q1.38-18.31 2.50-19.97L2.50-19.97L2.50-19.97Q3.63-21.63 5.50-23.06L5.50-23.06L5.50-23.06Q7.38-24.50 9.88-25.69L9.88-25.69L9.88-25.69Q16-28.63 22.56-28.63L22.56-28.63L22.56-28.63Q24.50-28.63 26.31-28.25L26.31-28.25L26.31-28.25Q27.81-28.25 28.06-26.94L28.06-26.94L28.06-26.94Q28.31-25.63 28.31-22.63L28.31-22.63L28.31-22.63Q24.63-24.31 20-24.31L20-24.31L20-24.31Q14.25-24.31 10.50-22L10.50-22L10.50-22Q6.63-19.75 6.50-16.13L6.50-16.13L6.50-16.13Q6.50-14.38 9.06-14.38L9.06-14.38L13.63-14.88L13.63-14.88Q19.50-16.13 23.06-16.13ZM63.19-0.88L63.19-0.88L63.19-0.88Q62.63 0.19 60.28 0.19L60.28 0.19L60.28 0.19Q57.94 0.19 57.94-1.50L57.94-1.50L57.94-1.50Q57.94-8.88 57.63-11.63L57.63-11.63L57.63-11.63Q57.06-17.69 55.25-18.13L55.25-18.13L55.25-18.13Q50.75-19 47.91-19L47.91-19L47.91-19Q45.06-19 43.22-17.28L43.22-17.28L43.22-17.28Q41.38-15.56 40.41-11.59L40.41-11.59L40.41-11.59Q39.44-7.63 39-0.44L39-0.44L34.19-0.44L34.19-0.44Q34.31-4 34.31-7.06L34.31-7.06L34.31-7.06Q34.31-10.13 34.19-14.34L34.19-14.34L34.19-14.34Q34.06-18.56 33.88-23.56L33.88-23.56L33.88-23.56Q33.56-29.31 33.56-33.28L33.56-33.28L33.56-33.28Q33.56-37.25 34.06-40.56L34.06-40.56L34.06-40.56Q34.69-41.75 35.88-41.75L35.88-41.75L35.88-41.75Q37.31-41.75 38.13-40.72L38.13-40.72L38.13-40.72Q38.94-39.69 39-38.88L39-38.88L38.69-28.56L38.69-28.56Q38.69-22.75 39.25-19.88L39.25-19.88L39.25-19.88Q44.88-23.63 50.88-23.63L50.88-23.63L50.88-23.63Q52.81-23.63 55-23.31L55-23.31L55-23.31Q59.69-20.88 61.13-18.13L61.13-18.13L61.13-18.13Q61.81-16.69 62-15.06L62-15.06L62-15.06Q62.19-13.44 62.25-11.38L62.25-11.38L62.25-11.38Q62.63-4.25 63.19-0.88ZM90.06-10.38L90.06-10.38L90.06-10.38Q85.38-3 77.56-1.25L77.56-1.25L77.56-1.25Q75.75-0.88 74.28-0.88L74.28-0.88L74.28-0.88Q72.81-0.88 71.84-0.91L71.84-0.91L71.84-0.91Q70.88-0.94 69.69-1.19L69.69-1.19L69.69-1.19Q68.50-1.44 67.50-2L67.50-2L67.50-2Q65.19-3.31 65.19-5.69L65.19-5.69L65.19-5.69Q64.94-6.81 64.94-8.22L64.94-8.22L64.94-8.22Q64.94-9.63 65.56-11.94L65.56-11.94L65.56-11.94Q66.19-14.25 67.84-16.94L67.84-16.94L67.84-16.94Q69.50-19.63 71.88-21.88L71.88-21.88L71.88-21.88Q76.81-26.63 82.56-28L82.56-28L82.56-28Q84.25-28.38 85.66-28.38L85.66-28.38L85.66-28.38Q87.06-28.38 88.19-28.19L88.19-28.19L88.19-28.19Q91.81-28.19 93.06-23.25L93.06-23.25L93.06-23.25Q93.88-20.13 94.03-14.53L94.03-14.53L94.03-14.53Q94.19-8.94 94.34-5.91L94.34-5.91L94.34-5.91Q94.50-2.88 95.13-0.38L95.13-0.38L91.44-0.38L91.44-0.38Q91.19-2.06 91.06-3.38L91.06-3.38L91.06-3.38Q90.94-4.69 90.81-5.81L90.81-5.81L90.81-5.81Q90.50-8.44 90.06-10.38ZM89.81-20.06L89.81-20.06L89.81-20.06Q89.81-23.69 86.25-23.69L86.25-23.69L86.25-23.69Q85.81-23.75 85.38-23.75L85.38-23.75L85.38-23.75Q80.81-23.75 75.75-19.38L75.75-19.38L75.75-19.38Q73.38-17.38 71.69-14.88L71.69-14.88L71.69-14.88Q69.19-11.31 69.19-8.50L69.19-8.50L69.19-8.50Q69.19-4.81 73.44-4.13L73.44-4.13L73.44-4.13Q79.06-4.25 84.19-9.25L84.19-9.25L84.19-9.25Q86.38-11.44 87.81-14L87.81-14L87.81-14Q89.81-17.44 89.81-20.06ZM127.44-0.88L127.44-0.88L127.44-0.88Q126.88 0.19 124.53 0.19L124.53 0.19L124.53 0.19Q122.19 0.19 122.19-1.50L122.19-1.50L122.19-1.50Q122.19-8.88 121.88-11.63L121.88-11.63L121.88-11.63Q121.31-17.69 119.50-18.13L119.50-18.13L119.50-18.13Q115-19 112.16-19L112.16-19L112.16-19Q109.31-19 107.47-17.28L107.47-17.28L107.47-17.28Q105.63-15.56 104.66-11.59L104.66-11.59L104.66-11.59Q103.69-7.63 103.25-0.44L103.25-0.44L98.44-0.44L98.44-0.44Q98.56-4 98.56-7.06L98.56-7.06L98.56-7.06Q98.56-10.13 98.44-14.34L98.44-14.34L98.44-14.34Q98.31-18.56 98.13-23.56L98.13-23.56L98.13-23.56Q97.81-29.31 97.81-33.28L97.81-33.28L97.81-33.28Q97.81-37.25 98.31-40.56L98.31-40.56L98.31-40.56Q98.94-41.75 100.13-41.75L100.13-41.75L100.13-41.75Q101.56-41.75 102.38-40.72L102.38-40.72L102.38-40.72Q103.19-39.69 103.25-38.88L103.25-38.88L102.94-28.56L102.94-28.56Q102.94-22.75 103.50-19.88L103.50-19.88L103.50-19.88Q109.13-23.63 115.13-23.63L115.13-23.63L115.13-23.63Q117.06-23.63 119.25-23.31L119.25-23.31L119.25-23.31Q123.94-20.88 125.38-18.13L125.38-18.13L125.38-18.13Q126.06-16.69 126.25-15.06L126.25-15.06L126.25-15.06Q126.44-13.44 126.50-11.38L126.50-11.38L126.50-11.38Q126.88-4.25 127.44-0.88ZM159.31-50.19L159.31-50.19Q159.31-44.19 158.97-38.47L158.97-38.47L158.97-38.47Q158.63-32.75 158.34-27.28L158.34-27.28L158.34-27.28Q158.06-21.81 158.06-15.66L158.06-15.66L158.06-15.66Q158.06-9.50 158.94-2.63L158.94-2.63L158.94-2.63Q158.94-1.19 158.41-0.56L158.41-0.56L158.41-0.56Q157.88 0.06 156.63 0.06L156.63 0.06L156.63 0.06Q153.69 0.06 153.69-4.81L153.69-4.81L153.69-6.88L153.69-6.88Q144.81-0.25 138.69-0.25L138.69-0.25L138.69-0.25Q136.25-0.25 133.72-1.44L133.72-1.44L133.72-1.44Q131.19-2.63 128.94-6.25L128.94-6.25L128.94-6.25Q128.63-7.75 128.63-9.31L128.63-9.31L128.63-9.31Q128.63-10.88 129.22-13.09L129.22-13.09L129.22-13.09Q129.81-15.31 131.66-17.69L131.66-17.69L131.66-17.69Q133.50-20.06 136.13-21.88L136.13-21.88L136.13-21.88Q141.88-25.75 148.56-25.75L148.56-25.75L148.56-25.75Q151.44-25.75 154.06-24.88L154.06-24.88L154.06-24.88Q154.06-26 154.22-28.81L154.22-28.81L154.22-28.81Q154.38-31.63 154.56-34.75L154.56-34.75L154.56-34.75Q154.94-42.88 155.06-44.34L155.06-44.34L155.06-44.34Q155.19-45.81 155.41-46.84L155.41-46.84L155.41-46.84Q155.63-47.88 156.06-48.63L156.06-48.63L156.06-48.63Q157-50.19 159.31-50.19L159.31-50.19ZM133.19-9.81L133.19-9.81L133.19-9.81Q133.19-4.88 136.75-4.88L136.75-4.88L136.75-4.88Q137.31-4.88 138-5L138-5L138-5Q140.56-5 144.31-6.50L144.31-6.50L144.31-6.50Q151.44-9.31 153-11.38L153-11.38L153-19.69L153-19.69Q153-21.88 149.44-21.88L149.44-21.88L149.44-21.88Q149-21.94 148.28-21.94L148.28-21.94L148.28-21.94Q147.56-21.94 146.06-21.63L146.06-21.63L146.06-21.63Q144.56-21.31 142.69-20.50L142.69-20.50L142.69-20.50Q140.81-19.69 139-18.50L139-18.50L139-18.50Q135.19-15.94 133.75-12.50L133.75-12.50L133.75-12.50Q133.19-11.19 133.19-9.81ZM176.31 0L176.31 0L176.31 0Q175.50-0.13 174.91-0.94L174.91-0.94L174.91-0.94Q174.31-1.75 174.31-2.88L174.31-2.88L174.31-2.88Q180.31-6.44 182.91-9.16L182.91-9.16L182.91-9.16Q185.50-11.88 186.88-14.56L186.88-14.56L186.88-14.56Q188.25-17.25 188.50-20.69L188.50-20.69L188.50-20.69Q187.88-20.75 186.81-20.75L186.81-20.75L186.81-20.75Q185.75-20.75 183.84-20.47L183.84-20.47L183.84-20.47Q181.94-20.19 179.75-19.81L179.75-19.81L179.75-19.81Q174.75-19 173.31-19L173.31-19L173.31-19Q171.88-19 170.47-19.09L170.47-19.09L170.47-19.09Q169.06-19.19 167.16-19.94L167.16-19.94L167.16-19.94Q165.25-20.69 163.63-22.38L163.63-22.38L163.63-22.38Q162.75-23.56 162.75-24.50L162.75-24.50L162.75-24.50Q162.75-29.13 169.06-33.63L169.06-33.63L169.06-33.63Q174.19-37.31 179.25-38.31L179.25-38.31L179.25-38.31Q180.50-38.56 181.59-38.56L181.59-38.56L181.59-38.56Q182.69-38.56 183.69-38.25L183.69-38.25L183.69-38.25Q191-36 193.06-29.69L193.06-29.69L193.06-29.69Q193.81-27.38 193.81-25.75L193.81-25.75L193.81-25.75Q193.81-24.13 193.69-22.19L193.69-22.19L193.69-22.19Q193.56-20.25 192.50-16.97L192.50-16.97L192.50-16.97Q191.44-13.69 189.66-10.69L189.66-10.69L189.66-10.69Q187.88-7.69 185.69-5.38L185.69-5.38L185.69-5.38Q180.94-0.25 176.31 0ZM168.63-24.13L168.63-24.13L168.63-24.13Q171.50-22.88 175.75-22.88L175.75-22.88L175.75-22.88Q181.94-22.88 188.25-25.44L188.25-25.44L188.25-25.44Q188.50-26.50 188.50-27.31L188.50-27.31L188.50-27.31Q188.50-28.13 188.38-29.16L188.38-29.16L188.38-29.16Q188.25-30.19 187.50-31.38L187.50-31.38L187.50-31.38Q185.75-34.06 182.25-34.31L182.25-34.31L182.25-34.31Q173.06-34.31 169.81-29L169.81-29L169.81-29Q168.63-27 168.63-24.13ZM221.94-1L216.69 0L216.50-3.63L216.50-3.63Q216.50-4 216.50-4.31L216.50-4.31L216.50-4.31Q216.50-10.06 220.44-18.13L220.44-18.13L220.44-18.13Q222.13-21.44 223.69-24.44L223.69-24.44L223.69-24.44Q225.25-27.44 225.81-29.88L225.81-29.88L225.81-29.88Q222.44-29.88 219.13-29.69L219.13-29.69L219.13-29.69Q207-29 204.16-29L204.16-29L204.16-29Q201.31-29 199.06-29.13L199.06-29.13L199.06-29.13Q198.38-29.44 198.16-29.75L198.16-29.75L198.16-29.75Q197.94-30.06 197.94-30.63L197.94-30.63L197.94-30.63Q197.94-31.19 198.16-31.50L198.16-31.50L198.16-31.50Q198.38-31.81 199.06-32.13L199.06-32.13L199.06-32.13Q200.25-32.06 202.44-32.06L202.44-32.06L202.44-32.06Q204.63-32.06 208.38-32.50L208.38-32.50L208.38-32.50Q212.13-32.94 216.41-33.59L216.41-33.59L216.41-33.59Q220.69-34.25 224.94-34.81L224.94-34.81L224.94-34.81Q229.19-35.38 233.44-35.38L233.44-35.38L233.44-35.38Q234.44-35.38 234.94-34.88L234.94-34.88L234.94-34.88Q235.44-34.38 235.44-33.91L235.44-33.91L235.44-33.91Q235.44-33.44 235.44-33.25L235.44-33.25L235.44-33.25Q224.56-21.19 222.06-9.81L222.06-9.81L222.06-9.81Q221.56-7.38 221.56-5.19L221.56-5.19L221.56-5.19Q221.56-3 221.94-1L221.94-1ZM259.75-16.13L259.75-16.13L259.75-16.13Q266.63-16.13 266.63-12.63L266.63-12.63L266.63-12.63Q266.63-10 262.81-6.50L262.81-6.50L262.81-6.50Q257.13-1.31 247.50 1.81L247.50 1.81L247.50 1.81Q247.06 1.81 246.53 0.94L246.53 0.94L246.53 0.94Q246 0.06 245.72-0.41L245.72-0.41L245.72-0.41Q245.44-0.88 245.31-1L245.31-1L245.31-1Q252.50-3.38 257.13-6.75L257.13-6.75L257.13-6.75Q260.25-9 260.25-10.44L260.25-10.44L260.25-10.44Q260.25-11.88 256.56-11.88L256.56-11.88L256.56-11.88Q252.88-11.88 245.75-10.13L245.75-10.13L245.75-10.13Q242.50-10.25 240.13-12.44L240.13-12.44L240.13-12.44Q238.06-14.38 238.06-16.34L238.06-16.34L238.06-16.34Q238.06-18.31 239.19-19.97L239.19-19.97L239.19-19.97Q240.31-21.63 242.19-23.06L242.19-23.06L242.19-23.06Q244.06-24.50 246.56-25.69L246.56-25.69L246.56-25.69Q252.69-28.63 259.25-28.63L259.25-28.63L259.25-28.63Q261.19-28.63 263-28.25L263-28.25L263-28.25Q264.50-28.25 264.75-26.94L264.75-26.94L264.75-26.94Q265-25.63 265-22.63L265-22.63L265-22.63Q261.31-24.31 256.69-24.31L256.69-24.31L256.69-24.31Q250.94-24.31 247.19-22L247.19-22L247.19-22Q243.31-19.75 243.19-16.13L243.19-16.13L243.19-16.13Q243.19-14.38 245.75-14.38L245.75-14.38L250.31-14.88L250.31-14.88Q256.19-16.13 259.75-16.13ZM299.88-0.88L299.88-0.88L299.88-0.88Q299.31 0.19 296.97 0.19L296.97 0.19L296.97 0.19Q294.63 0.19 294.63-1.50L294.63-1.50L294.63-1.50Q294.63-8.88 294.31-11.63L294.31-11.63L294.31-11.63Q293.75-17.69 291.94-18.13L291.94-18.13L291.94-18.13Q287.44-19 284.59-19L284.59-19L284.59-19Q281.75-19 279.91-17.28L279.91-17.28L279.91-17.28Q278.06-15.56 277.09-11.59L277.09-11.59L277.09-11.59Q276.13-7.63 275.69-0.44L275.69-0.44L270.88-0.44L270.88-0.44Q271-4 271-7.06L271-7.06L271-7.06Q271-10.13 270.88-14.34L270.88-14.34L270.88-14.34Q270.75-18.56 270.56-23.56L270.56-23.56L270.56-23.56Q270.25-29.31 270.25-33.28L270.25-33.28L270.25-33.28Q270.25-37.25 270.75-40.56L270.75-40.56L270.75-40.56Q271.38-41.75 272.56-41.75L272.56-41.75L272.56-41.75Q274-41.75 274.81-40.72L274.81-40.72L274.81-40.72Q275.63-39.69 275.69-38.88L275.69-38.88L275.38-28.56L275.38-28.56Q275.38-22.75 275.94-19.88L275.94-19.88L275.94-19.88Q281.56-23.63 287.56-23.63L287.56-23.63L287.56-23.63Q289.50-23.63 291.69-23.31L291.69-23.31L291.69-23.31Q296.38-20.88 297.81-18.13L297.81-18.13L297.81-18.13Q298.50-16.69 298.69-15.06L298.69-15.06L298.69-15.06Q298.88-13.44 298.94-11.38L298.94-11.38L298.94-11.38Q299.31-4.25 299.88-0.88ZM303.75-11.88L303.75-11.88L303.75-11.88Q303.75-19.25 310.13-23.75L310.13-23.75L310.13-23.75Q315.19-27.31 322.31-28.06L322.31-28.06L322.31-28.06Q322.69-28.06 324.06-28.06L324.06-28.06L324.06-28.06Q325.44-28.06 327.75-27.25L327.75-27.25L327.75-27.25Q332.88-25.50 334.75-21.06L334.75-21.06L334.75-21.06Q335.50-19.31 335.50-18.09L335.50-18.09L335.50-18.09Q335.50-16.88 335.44-16.38L335.44-16.38L335.44-16.38Q335.44-8.56 329.50-4.06L329.50-4.06L329.50-4.06Q324 0.06 315.75 0.06L315.75 0.06L315.75 0.06Q309.81 0.06 306.78-2.69L306.78-2.69L306.78-2.69Q303.75-5.44 303.75-11.88ZM308.06-10.38L308.06-10.38L308.06-10.38Q308.06-6.50 310.13-5.13L310.13-5.13L310.13-5.13Q311.69-4.13 315.38-4.13L315.38-4.13L315.38-4.13Q319.06-4.13 321.88-4.69L321.88-4.69L321.88-4.69Q324.69-5.25 326.88-6.63L326.88-6.63L326.88-6.63Q331.56-9.63 331.56-15.94L331.56-15.94L331.56-15.94Q331.56-19.69 329.56-22.06L329.56-22.06L329.56-22.06Q327.38-24.63 323.81-24.63L323.81-24.63L323.81-24.63Q321.38-24.19 318.91-23.69L318.91-23.69L318.91-23.69Q316.44-23.19 314.25-21.75L314.25-21.75L314.25-21.75Q309.50-18.69 308.06-10.38ZM344.19-25.06L344.19-25.06L344.19-25.06Q352.69-28 358.88-28L358.88-28L358.88-28Q366.75-28 369.38-23.88L369.38-23.88L369.38-23.88Q370.56-21.94 370.56-19.69L370.56-19.69L370.56-19.69Q370.56-16.56 368.59-13.25L368.59-13.25L368.59-13.25Q366.63-9.94 363.38-7.25L363.38-7.25L363.38-7.25Q355.81-1.06 345 0.44L345 0.44L345 0.44Q345 1.13 345.03 2.66L345.03 2.66L345.03 2.66Q345.06 4.19 345.09 6.06L345.09 6.06L345.09 6.06Q345.13 7.94 345.16 10.06L345.16 10.06L345.16 10.06Q345.19 12.19 345.25 14.13L345.25 14.13L345.25 14.13Q345.44 18.94 345.53 19.63L345.53 19.63L345.53 19.63Q345.63 20.31 345.63 20.75L345.63 20.75L345.63 20.75Q345.63 22.31 344.63 23.09L344.63 23.09L344.63 23.09Q343.63 23.88 342 23.88L342 23.88L342 23.88Q341.69 23.88 341.38 23.88L341.38 23.88L340.38-26.38L340.38-26.38Q340.94-27.19 341.88-27.13L341.88-27.13L341.88-27.13Q342.81-27.06 343.38-26.63L343.38-26.63L343.38-26.63Q343.94-26.19 344.19-25.06ZM362.44-22.88L362.44-22.88L362.44-22.88Q360.38-23.94 358.03-23.94L358.03-23.94L358.03-23.94Q355.69-23.94 353.38-23.50L353.38-23.50L353.38-23.50Q348.13-22.50 345.63-19.06L345.63-19.06L345.63-19.06Q344.50-17.44 344.50-15.06L344.50-15.06L344.50-15.06Q344.50-14.81 344.50-14.56L344.50-14.56L344.50-3.75L344.50-3.75Q357.38-6.63 362.75-11.75L362.75-11.75L362.75-11.75Q365.88-14.69 365.88-17.81L365.88-17.81L365.88-17.81Q365.88-21.13 362.44-22.88Z" fill="#eb6cd0"></path></g></g><style>text {
  font-size: 64px;
  font-family: Arial Black;
  dominant-baseline: central;
  text-anchor: middle;
}</style></svg>