<svg width="866.1050292968749px" height="222.56000366210938px" xmlns="http://www.w3.org/2000/svg" viewBox="-183.05251464843747 -36.28000183105469 866.1050292968749 222.56000366210938" style="background: rgba(0, 0, 0, 0);" preserveAspectRatio="xMidYMid"><defs><filter id="editing-extrude-glow"><feFlood flood-color="#0e0e0e" result="flood-1"></feFlood><feMorphology operator="erode" radius="1" in="SourceAlpha" result="erode"></feMorphology><feComposite operator="in" in="flood-1" in2="erode" result="comp1"></feComposite><feConvolveMatrix order="0,0" divisor="1" in="comp1" result="convolve" kernelMatrix=""></feConvolveMatrix><feOffset dx="0" dy="0" in="convolve" result="extrude"></feOffset><feComposite operator="in" in="flood-1" in2="extrude" result="comp-extrude"></feComposite><feFlood flood-color="#8d8b8b" result="flood-2"></feFlood><feComposite operator="in" in="flood-2" in2="SourceAlpha" result="comp2"></feComposite><feMorphology operator="dilate" radius="1" in="comp2" result="dilate"></feMorphology><feOffset dx="0" dy="0" in="dilate" result="offset"></feOffset><feGaussianBlur in="offset" stdDeviation="5.8" result="blur"></feGaussianBlur><feComponentTransfer in="blur" result="shadow"><feFuncA type="linear" slope="0.8" intercept="-0.2"></feFuncA></feComponentTransfer><feMerge><feMergeNode in="shadow"></feMergeNode><feMergeNode in="comp-extrude"></feMergeNode><feMergeNode in="SourceGraphic"></feMergeNode></feMerge></filter></defs><g filter="url(#editing-extrude-glow)"><g transform="translate(-60.914997816085815, 136.9150013923645)"><path d="M38.56-26.96L38.56-26.96L38.56-26.96Q50.05-26.96 50.05-21.11L50.05-21.11L50.05-21.11Q50.05-16.72 43.68-10.87L43.68-10.87L43.68-10.87Q34.17-2.19 18.08 3.03L18.08 3.03L18.08 3.03Q17.35 3.03 16.46 1.57L16.46 1.57L16.46 1.57Q15.57 0.10 15.10-0.68L15.10-0.68L15.10-0.68Q14.63-1.46 14.42-1.67L14.42-1.67L14.42-1.67Q26.44-5.64 34.17-11.29L34.17-11.29L34.17-11.29Q39.39-15.05 39.39-17.45L39.39-17.45L39.39-17.45Q39.39-19.85 33.23-19.85L33.23-19.85L33.23-19.85Q27.06-19.85 15.15-16.93L15.15-16.93L15.15-16.93Q9.72-17.14 5.75-20.79L5.75-20.79L5.75-20.79Q2.30-24.03 2.30-27.32L2.30-27.32L2.30-27.32Q2.30-30.62 4.18-33.39L4.18-33.39L4.18-33.39Q6.06-36.15 9.20-38.56L9.20-38.56L9.20-38.56Q12.33-40.96 16.51-42.95L16.51-42.95L16.51-42.95Q26.75-47.86 37.72-47.86L37.72-47.86L37.72-47.86Q40.96-47.86 43.99-47.23L43.99-47.23L43.99-47.23Q46.50-47.23 46.92-45.04L46.92-45.04L46.92-45.04Q47.33-42.84 47.33-37.83L47.33-37.83L47.33-37.83Q41.17-40.65 33.44-40.65L33.44-40.65L33.44-40.65Q23.82-40.65 17.55-36.78L17.55-36.78L17.55-36.78Q11.08-33.02 10.87-26.96L10.87-26.96L10.87-26.96Q10.87-24.03 15.15-24.03L15.15-24.03L22.78-24.87L22.78-24.87Q32.60-26.96 38.56-26.96ZM105.64-1.46L105.64-1.46L105.64-1.46Q104.70 0.31 100.78 0.31L100.78 0.31L100.78 0.31Q96.86 0.31 96.86-2.51L96.86-2.51L96.86-2.51Q96.86-14.84 96.34-19.44L96.34-19.44L96.34-19.44Q95.40-29.57 92.37-30.30L92.37-30.30L92.37-30.30Q84.85-31.77 80.09-31.77L80.09-31.77L80.09-31.77Q75.34-31.77 72.26-28.89L72.26-28.89L72.26-28.89Q69.17-26.02 67.55-19.38L67.55-19.38L67.55-19.38Q65.93-12.75 65.20-0.73L65.20-0.73L57.16-0.73L57.16-0.73Q57.37-6.69 57.37-11.81L57.37-11.81L57.37-11.81Q57.37-16.93 57.16-23.98L57.16-23.98L57.16-23.98Q56.95-31.03 56.63-39.39L56.63-39.39L56.63-39.39Q56.11-49.01 56.11-55.64L56.11-55.64L56.11-55.64Q56.11-62.28 56.95-67.82L56.95-67.82L56.95-67.82Q57.99-69.80 59.98-69.80L59.98-69.80L59.98-69.80Q62.38-69.80 63.74-68.08L63.74-68.08L63.74-68.08Q65.10-66.35 65.20-64.99L65.20-64.99L64.68-47.75L64.68-47.75Q64.68-38.04 65.62-33.23L65.62-33.23L65.62-33.23Q75.03-39.50 85.06-39.50L85.06-39.50L85.06-39.50Q88.30-39.50 91.95-38.98L91.95-38.98L91.95-38.98Q99.79-34.90 102.19-30.30L102.19-30.30L102.19-30.30Q103.34-27.90 103.66-25.18L103.66-25.18L103.66-25.18Q103.97-22.47 104.07-19.02L104.07-19.02L104.07-19.02Q104.70-7.11 105.64-1.46ZM150.57-17.35L150.57-17.35L150.57-17.35Q142.74-5.02 129.67-2.09L129.67-2.09L129.67-2.09Q126.64-1.46 124.19-1.46L124.19-1.46L124.19-1.46Q121.73-1.46 120.11-1.52L120.11-1.52L120.11-1.52Q118.49-1.57 116.51-1.99L116.51-1.99L116.51-1.99Q114.52-2.40 112.85-3.34L112.85-3.34L112.85-3.34Q108.99-5.54 108.99-9.51L108.99-9.51L108.99-9.51Q108.57-11.39 108.57-13.74L108.57-13.74L108.57-13.74Q108.57-16.09 109.61-19.96L109.61-19.96L109.61-19.96Q110.66-23.82 113.43-28.32L113.43-28.32L113.43-28.32Q116.20-32.81 120.17-36.57L120.17-36.57L120.17-36.57Q128.42-44.51 138.03-46.81L138.03-46.81L138.03-46.81Q140.86-47.44 143.21-47.44L143.21-47.44L143.21-47.44Q145.56-47.44 147.44-47.13L147.44-47.13L147.44-47.13Q153.50-47.13 155.59-38.87L155.59-38.87L155.59-38.87Q156.95-33.65 157.21-24.29L157.21-24.29L157.21-24.29Q157.47-14.94 157.73-9.87L157.73-9.87L157.73-9.87Q157.99-4.81 159.04-0.63L159.04-0.63L152.87-0.63L152.87-0.63Q152.45-3.45 152.25-5.64L152.25-5.64L152.25-5.64Q152.04-7.84 151.83-9.72L151.83-9.72L151.83-9.72Q151.30-14.11 150.57-17.35ZM150.16-33.54L150.16-33.54L150.16-33.54Q150.16-39.60 144.20-39.60L144.20-39.60L144.20-39.60Q143.47-39.71 142.74-39.71L142.74-39.71L142.74-39.71Q135.11-39.71 126.64-32.39L126.64-32.39L126.64-32.39Q122.67-29.05 119.85-24.87L119.85-24.87L119.85-24.87Q115.67-18.91 115.67-14.21L115.67-14.21L115.67-14.21Q115.67-8.05 122.78-6.90L122.78-6.90L122.78-6.90Q132.18-7.11 140.75-15.46L140.75-15.46L140.75-15.46Q144.41-19.12 146.81-23.41L146.81-23.41L146.81-23.41Q150.16-29.15 150.16-33.54ZM213.06-1.46L213.06-1.46L213.06-1.46Q212.12 0.31 208.20 0.31L208.20 0.31L208.20 0.31Q204.28 0.31 204.28-2.51L204.28-2.51L204.28-2.51Q204.28-14.84 203.76-19.44L203.76-19.44L203.76-19.44Q202.82-29.57 199.79-30.30L199.79-30.30L199.79-30.30Q192.27-31.77 187.51-31.77L187.51-31.77L187.51-31.77Q182.76-31.77 179.67-28.89L179.67-28.89L179.67-28.89Q176.59-26.02 174.97-19.38L174.97-19.38L174.97-19.38Q173.35-12.75 172.62-0.73L172.62-0.73L164.58-0.73L164.58-0.73Q164.78-6.69 164.78-11.81L164.78-11.81L164.78-11.81Q164.78-16.93 164.58-23.98L164.58-23.98L164.58-23.98Q164.37-31.03 164.05-39.39L164.05-39.39L164.05-39.39Q163.53-49.01 163.53-55.64L163.53-55.64L163.53-55.64Q163.53-62.28 164.37-67.82L164.37-67.82L164.37-67.82Q165.41-69.80 167.40-69.80L167.40-69.80L167.40-69.80Q169.80-69.80 171.16-68.08L171.16-68.08L171.16-68.08Q172.52-66.35 172.62-64.99L172.62-64.99L172.10-47.75L172.10-47.75Q172.10-38.04 173.04-33.23L173.04-33.23L173.04-33.23Q182.44-39.50 192.47-39.50L192.47-39.50L192.47-39.50Q195.71-39.50 199.37-38.98L199.37-38.98L199.37-38.98Q207.21-34.90 209.61-30.30L209.61-30.30L209.61-30.30Q210.76-27.90 211.07-25.18L211.07-25.18L211.07-25.18Q211.39-22.47 211.49-19.02L211.49-19.02L211.49-19.02Q212.12-7.11 213.06-1.46ZM266.35-83.91L266.35-83.91Q266.35-73.88 265.78-64.31L265.78-64.31L265.78-64.31Q265.20-54.75 264.73-45.61L264.73-45.61L264.73-45.61Q264.26-36.47 264.26-26.18L264.26-26.18L264.26-26.18Q264.26-15.88 265.72-4.39L265.72-4.39L265.72-4.39Q265.72-1.99 264.84-0.94L264.84-0.94L264.84-0.94Q263.95 0.10 261.86 0.10L261.86 0.10L261.86 0.10Q256.95 0.10 256.95-8.05L256.95-8.05L256.95-11.49L256.95-11.49Q242.11-0.42 231.87-0.42L231.87-0.42L231.87-0.42Q227.79-0.42 223.56-2.40L223.56-2.40L223.56-2.40Q219.33-4.39 215.57-10.45L215.57-10.45L215.57-10.45Q215.04-12.96 215.04-15.57L215.04-15.57L215.04-15.57Q215.04-18.18 216.04-21.89L216.04-21.89L216.04-21.89Q217.03-25.60 220.11-29.57L220.11-29.57L220.11-29.57Q223.20-33.54 227.58-36.57L227.58-36.57L227.58-36.57Q237.20-43.05 248.38-43.05L248.38-43.05L248.38-43.05Q253.18-43.05 257.57-41.59L257.57-41.59L257.57-41.59Q257.57-43.47 257.83-48.17L257.83-48.17L257.83-48.17Q258.10-52.87 258.41-58.10L258.41-58.10L258.41-58.10Q259.04-71.68 259.25-74.14L259.25-74.14L259.25-74.14Q259.45-76.59 259.82-78.32L259.82-78.32L259.82-78.32Q260.19-80.04 260.92-81.29L260.92-81.29L260.92-81.29Q262.48-83.91 266.35-83.91L266.35-83.91ZM222.67-16.41L222.67-16.41L222.67-16.41Q222.67-8.15 228.63-8.15L228.63-8.15L228.63-8.15Q229.57-8.15 230.72-8.36L230.72-8.36L230.72-8.36Q235.00-8.36 241.27-10.87L241.27-10.87L241.27-10.87Q253.18-15.57 255.80-19.02L255.80-19.02L255.80-32.92L255.80-32.92Q255.80-36.57 249.84-36.57L249.84-36.57L249.84-36.57Q249.11-36.68 247.91-36.68L247.91-36.68L247.91-36.68Q246.71-36.68 244.20-36.15L244.20-36.15L244.20-36.15Q241.69-35.63 238.56-34.27L238.56-34.27L238.56-34.27Q235.42-32.92 232.39-30.93L232.39-30.93L232.39-30.93Q226.02-26.65 223.61-20.90L223.61-20.90L223.61-20.90Q222.67-18.70 222.67-16.41ZM294.77 0L294.77 0L294.77 0Q293.41-0.21 292.42-1.57L292.42-1.57L292.42-1.57Q291.43-2.93 291.43-4.81L291.43-4.81L291.43-4.81Q301.46-10.76 305.80-15.31L305.80-15.31L305.80-15.31Q310.13-19.85 312.43-24.35L312.43-24.35L312.43-24.35Q314.73-28.84 315.15-34.59L315.15-34.59L315.15-34.59Q314.10-34.69 312.33-34.69L312.33-34.69L312.33-34.69Q310.55-34.69 307.36-34.22L307.36-34.22L307.36-34.22Q304.18-33.75 300.52-33.12L300.52-33.12L300.52-33.12Q292.16-31.77 289.76-31.77L289.76-31.77L289.76-31.77Q287.35-31.77 285.00-31.92L285.00-31.92L285.00-31.92Q282.65-32.08 279.46-33.33L279.46-33.33L279.46-33.33Q276.28-34.59 273.56-37.41L273.56-37.41L273.56-37.41Q272.10-39.39 272.10-40.96L272.10-40.96L272.10-40.96Q272.10-48.69 282.65-56.22L282.65-56.22L282.65-56.22Q291.22-62.38 299.68-64.05L299.68-64.05L299.68-64.05Q301.77-64.47 303.60-64.47L303.60-64.47L303.60-64.47Q305.43-64.47 307.10-63.95L307.10-63.95L307.10-63.95Q319.33-60.19 322.78-49.63L322.78-49.63L322.78-49.63Q324.03-45.77 324.03-43.05L324.03-43.05L324.03-43.05Q324.03-40.33 323.82-37.09L323.82-37.09L323.82-37.09Q323.61-33.86 321.84-28.37L321.84-28.37L321.84-28.37Q320.06-22.88 317.08-17.87L317.08-17.87L317.08-17.87Q314.10-12.85 310.45-8.99L310.45-8.99L310.45-8.99Q302.50-0.42 294.77 0ZM281.92-40.33L281.92-40.33L281.92-40.33Q286.73-38.24 293.83-38.24L293.83-38.24L293.83-38.24Q304.18-38.24 314.73-42.53L314.73-42.53L314.73-42.53Q315.15-44.30 315.15-45.66L315.15-45.66L315.15-45.66Q315.15-47.02 314.94-48.75L314.94-48.75L314.94-48.75Q314.73-50.47 313.48-52.46L313.48-52.46L313.48-52.46Q310.55-56.95 304.70-57.37L304.70-57.37L304.70-57.37Q289.34-57.37 283.91-48.48L283.91-48.48L283.91-48.48Q281.92-45.14 281.92-40.33ZM371.05-1.67L362.27 0L361.96-6.06L361.96-6.06Q361.96-6.69 361.96-7.21L361.96-7.21L361.96-7.21Q361.96-16.82 368.54-30.30L368.54-30.30L368.54-30.30Q371.37-35.84 373.98-40.86L373.98-40.86L373.98-40.86Q376.59-45.87 377.53-49.95L377.53-49.95L377.53-49.95Q371.89-49.95 366.35-49.63L366.35-49.63L366.35-49.63Q346.08-48.48 341.32-48.48L341.32-48.48L341.32-48.48Q336.57-48.48 332.81-48.69L332.81-48.69L332.81-48.69Q331.66-49.22 331.29-49.74L331.29-49.74L331.29-49.74Q330.93-50.26 330.93-51.20L330.93-51.20L330.93-51.20Q330.93-52.14 331.29-52.66L331.29-52.66L331.29-52.66Q331.66-53.19 332.81-53.71L332.81-53.71L332.81-53.71Q334.79-53.60 338.45-53.60L338.45-53.60L338.45-53.60Q342.11-53.60 348.38-54.34L348.38-54.34L348.38-54.34Q354.65-55.07 361.80-56.16L361.80-56.16L361.80-56.16Q368.96-57.26 376.07-58.20L376.07-58.20L376.07-58.20Q383.17-59.14 390.28-59.14L390.28-59.14L390.28-59.14Q391.95-59.14 392.79-58.31L392.79-58.31L392.79-58.31Q393.62-57.47 393.62-56.69L393.62-56.69L393.62-56.69Q393.62-55.90 393.62-55.59L393.62-55.59L393.62-55.59Q375.44-35.42 371.26-16.41L371.26-16.41L371.26-16.41Q370.42-12.33 370.42-8.67L370.42-8.67L370.42-8.67Q370.42-5.02 371.05-1.67L371.05-1.67ZM434.27-26.96L434.27-26.96L434.27-26.96Q445.76-26.96 445.76-21.11L445.76-21.11L445.76-21.11Q445.76-16.72 439.39-10.87L439.39-10.87L439.39-10.87Q429.88-2.19 413.79 3.03L413.79 3.03L413.79 3.03Q413.06 3.03 412.17 1.57L412.17 1.57L412.17 1.57Q411.28 0.10 410.81-0.68L410.81-0.68L410.81-0.68Q410.34-1.46 410.13-1.67L410.13-1.67L410.13-1.67Q422.15-5.64 429.88-11.29L429.88-11.29L429.88-11.29Q435.11-15.05 435.11-17.45L435.11-17.45L435.11-17.45Q435.11-19.85 428.94-19.85L428.94-19.85L428.94-19.85Q422.78-19.85 410.86-16.93L410.86-16.93L410.86-16.93Q405.43-17.14 401.46-20.79L401.46-20.79L401.46-20.79Q398.01-24.03 398.01-27.32L398.01-27.32L398.01-27.32Q398.01-30.62 399.89-33.39L399.89-33.39L399.89-33.39Q401.77-36.15 404.91-38.56L404.91-38.56L404.91-38.56Q408.04-40.96 412.22-42.95L412.22-42.95L412.22-42.95Q422.46-47.86 433.43-47.86L433.43-47.86L433.43-47.86Q436.67-47.86 439.70-47.23L439.70-47.23L439.70-47.23Q442.21-47.23 442.63-45.04L442.63-45.04L442.63-45.04Q443.05-42.84 443.05-37.83L443.05-37.83L443.05-37.83Q436.88-40.65 429.15-40.65L429.15-40.65L429.15-40.65Q419.54-40.65 413.27-36.78L413.27-36.78L413.27-36.78Q406.79-33.02 406.58-26.96L406.58-26.96L406.58-26.96Q406.58-24.03 410.86-24.03L410.86-24.03L418.49-24.87L418.49-24.87Q428.31-26.96 434.27-26.96ZM501.35-1.46L501.35-1.46L501.35-1.46Q500.41 0.31 496.49 0.31L496.49 0.31L496.49 0.31Q492.58 0.31 492.58-2.51L492.58-2.51L492.58-2.51Q492.58-14.84 492.05-19.44L492.05-19.44L492.05-19.44Q491.11-29.57 488.08-30.30L488.08-30.30L488.08-30.30Q480.56-31.77 475.81-31.77L475.81-31.77L475.81-31.77Q471.05-31.77 467.97-28.89L467.97-28.89L467.97-28.89Q464.89-26.02 463.27-19.38L463.27-19.38L463.27-19.38Q461.65-12.75 460.92-0.73L460.92-0.73L452.87-0.73L452.87-0.73Q453.08-6.69 453.08-11.81L453.08-11.81L453.08-11.81Q453.08-16.93 452.87-23.98L452.87-23.98L452.87-23.98Q452.66-31.03 452.35-39.39L452.35-39.39L452.35-39.39Q451.82-49.01 451.82-55.64L451.82-55.64L451.82-55.64Q451.82-62.28 452.66-67.82L452.66-67.82L452.66-67.82Q453.71-69.80 455.69-69.80L455.69-69.80L455.69-69.80Q458.09-69.80 459.45-68.08L459.45-68.08L459.45-68.08Q460.81-66.35 460.92-64.99L460.92-64.99L460.39-47.75L460.39-47.75Q460.39-38.04 461.33-33.23L461.33-33.23L461.33-33.23Q470.74-39.50 480.77-39.50L480.77-39.50L480.77-39.50Q484.01-39.50 487.67-38.98L487.67-38.98L487.67-38.98Q495.50-34.90 497.91-30.30L497.91-30.30L497.91-30.30Q499.05-27.90 499.37-25.18L499.37-25.18L499.37-25.18Q499.68-22.47 499.79-19.02L499.79-19.02L499.79-19.02Q500.41-7.11 501.35-1.46ZM507.83-19.85L507.83-19.85L507.83-19.85Q507.83-32.18 518.49-39.71L518.49-39.71L518.49-39.71Q526.95-45.66 538.87-46.92L538.87-46.92L538.87-46.92Q539.49-46.92 541.79-46.92L541.79-46.92L541.79-46.92Q544.09-46.92 547.96-45.56L547.96-45.56L547.96-45.56Q556.53-42.63 559.66-35.21L559.66-35.21L559.66-35.21Q560.91-32.29 560.91-30.25L560.91-30.25L560.91-30.25Q560.91-28.21 560.81-27.38L560.81-27.38L560.81-27.38Q560.81-14.32 550.88-6.79L550.88-6.79L550.88-6.79Q541.69 0.10 527.89 0.10L527.89 0.10L527.89 0.10Q517.97 0.10 512.90-4.49L512.90-4.49L512.90-4.49Q507.83-9.09 507.83-19.85ZM515.04-17.35L515.04-17.35L515.04-17.35Q515.04-10.87 518.49-8.57L518.49-8.57L518.49-8.57Q521.10-6.90 527.27-6.90L527.27-6.90L527.27-6.90Q533.43-6.90 538.13-7.84L538.13-7.84L538.13-7.84Q542.84-8.78 546.49-11.08L546.49-11.08L546.49-11.08Q554.33-16.09 554.33-26.65L554.33-26.65L554.33-26.65Q554.33-32.92 550.99-36.89L550.99-36.89L550.99-36.89Q547.33-41.17 541.37-41.17L541.37-41.17L541.37-41.17Q537.30-40.44 533.17-39.60L533.17-39.60L533.17-39.60Q529.04-38.77 525.39-36.36L525.39-36.36L525.39-36.36Q517.45-31.24 515.04-17.35ZM575.44-41.90L575.44-41.90L575.44-41.90Q589.65-46.81 599.99-46.81L599.99-46.81L599.99-46.81Q613.16-46.81 617.55-39.92L617.55-39.92L617.55-39.92Q619.53-36.68 619.53-32.92L619.53-32.92L619.53-32.92Q619.53-27.69 616.24-22.15L616.24-22.15L616.24-22.15Q612.95-16.61 607.52-12.12L607.52-12.12L607.52-12.12Q594.87-1.78 576.80 0.73L576.80 0.73L576.80 0.73Q576.80 1.88 576.85 4.44L576.85 4.44L576.85 4.44Q576.90 7.00 576.95 10.14L576.95 10.14L576.95 10.14Q577.01 13.27 577.06 16.82L577.06 16.82L577.06 16.82Q577.11 20.38 577.21 23.62L577.21 23.62L577.21 23.62Q577.53 31.66 577.69 32.81L577.69 32.81L577.69 32.81Q577.84 33.96 577.84 34.69L577.84 34.69L577.84 34.69Q577.84 37.30 576.17 38.61L576.17 38.61L576.17 38.61Q574.50 39.92 571.78 39.92L571.78 39.92L571.78 39.92Q571.26 39.92 570.74 39.92L570.74 39.92L569.06-44.10L569.06-44.10Q570.00-45.45 571.57-45.35L571.57-45.35L571.57-45.35Q573.14-45.25 574.08-44.51L574.08-44.51L574.08-44.51Q575.02-43.78 575.44-41.90ZM605.95-38.24L605.95-38.24L605.95-38.24Q602.50-40.02 598.58-40.02L598.58-40.02L598.58-40.02Q594.67-40.02 590.80-39.29L590.80-39.29L590.80-39.29Q582.02-37.62 577.84-31.87L577.84-31.87L577.84-31.87Q575.96-29.15 575.96-25.18L575.96-25.18L575.96-25.18Q575.96-24.76 575.96-24.35L575.96-24.35L575.96-6.27L575.96-6.27Q597.49-11.08 606.47-19.64L606.47-19.64L606.47-19.64Q611.70-24.56 611.70-29.78L611.70-29.78L611.70-29.78Q611.70-35.32 605.95-38.24Z" fill="#eb6cd0"></path></g></g><style>text {
  font-size: 64px;
  font-family: Arial Black;
  dominant-baseline: central;
  text-anchor: middle;
}</style></svg>