<svg width="559.1866088867188px" height="168.79999999999998px" xmlns="http://www.w3.org/2000/svg" viewBox="-29.593304443359386 -9.399999999999991 559.1866088867188 168.79999999999998" style="background: rgba(0, 0, 0, 0);" preserveAspectRatio="xMidYMid"><defs><linearGradient id="editing-shiny-gradient" x1="0.04322727117869957" x2="0.9567727288213004" y1="0.2966316784620999" y2="0.7033683215379001" gradientUnits="objectBoundingBox"><stop offset="0.0" stop-color="#ffb200"></stop><stop offset="0.5" stop-color="#e10057"></stop><stop offset="1.0" stop-color="#5A1A80"></stop></linearGradient><linearGradient id="editing-shiny-gradient2" x1="0" x2="0" y1="0" y2="1"><stop offset="0.2" stop-color="#fff" stop-opacity="0.8"></stop><stop offset="0.8" stop-color="#fff" stop-opacity="0"></stop></linearGradient><filter id="editing-shiny2" x="-100%" y="-100%" width="300%" height="300%"><feMorphology operator="erode" radius="2"></feMorphology></filter><filter id="editing-shiny" x="-100%" y="-100%" width="300%" height="300%"><feFlood flood-color="#fff" result="flood"></feFlood><feConvolveMatrix in="SourceGraphic" result="conv" order="8,8" divisor="1" kernelMatrix="0 0 0 0 0 0 0 0 0 0 0 1 1 0 0 0 0 0 0 1 1 0 0 0 0 0 1 0 0 1 0 0 0 0 1 0 0 1 0 0 0 1 0 0 0 0 1 0 0 1 1 0 0 1 1 0 0 0 0 1 1 0 0 0 "></feConvolveMatrix><feOffset dx="0" dy="4" in="conv" result="offset"></feOffset><feComposite operator="in" in="flood" in2="offset" result="comp"></feComposite><feGaussianBlur in="offset" stdDeviation="3" result="shadow"></feGaussianBlur><feColorMatrix in="shadow" type="matrix" values="0.7 0 0 0 0  0 0.7 0 0 0  0 0 0.7 0 0  0 0 0 0.3 0" result="dark-shadow"></feColorMatrix><feOffset dx="0" dy="4" in="dark-shadow" result="offset-shadow"></feOffset><feOffset dx="0" dy="2" in="conv" result="offset-2"></feOffset><feComposite operator="out" in="offset" in2="offset-2" result="edge-diff"></feComposite><feGaussianBlur in="edge-diff" stdDeviation="1" result="edge-blur"></feGaussianBlur><feColorMatrix in="edge-blur" result="edge-shadow" type="matrix" values="0 0 0 0 0  0 0 0 0 0  0 0 0 0 0  0 0 0 0.5 0"></feColorMatrix><feComposite operator="in" in="edge-shadow" in2="offset" result="edge-shadow-in"></feComposite><feOffset dx="0" dy="1" in="edge-shadow-in" result="edge-shadow-final"></feOffset><feMerge result="out"><feMergeNode in="offset-shadow"></feMergeNode><feMergeNode in="comp"></feMergeNode><feMergeNode in="edge-shadow-final"></feMergeNode><feMergeNode in="SourceGraphic"></feMergeNode></feMerge></filter></defs><g filter="url(#editing-shiny)"><g transform="translate(48.899794578552246, 113.24000358581543)"><path d="M14.01 0.35L14.01 0.35Q12.44-0.26 10.96-1.44L10.96-1.44L10.96-1.44Q9.48-2.61 8.96-3.48L8.96-3.48L8.96-3.48Q8.96-3.65 8.96-4.09L8.96-4.09L8.96-4.09Q8.96-4.52 9.22-4.65L9.22-4.65L9.22-4.65Q9.48-4.79 10.18-4.79L10.18-4.79L10.18-4.79Q11.66-4.79 14.88-4.44L14.88-4.44L14.88-4.44Q16.79-4.44 19.23-4.92L19.23-4.92L19.23-4.92Q21.66-5.39 21.92-6.00L21.92-6.00L21.92-6.00Q22.19-6.00 22.19-6.09L22.19-6.09L22.19-6.09Q22.19-6.26 21.49-6.96L21.49-6.96L21.49-6.96Q21.32-6.96 20.71-7.26L20.71-7.26L20.71-7.26Q20.10-7.57 19.92-7.57L19.92-7.57L19.92-7.57Q19.92-7.92 19.14-8.48L19.14-8.48L19.14-8.48Q18.36-9.05 17.40-9.48L17.40-9.48L17.40-9.48Q14.88-11.57 13.83-12.57L13.83-12.57L13.83-12.57Q12.79-13.57 13.05-14.01L13.05-14.01L13.05-14.44L13.05-14.44Q12.44-14.44 11.70-16.14L11.70-16.14L11.70-16.14Q10.96-17.84 10.96-19.31L10.96-19.31L10.96-19.31Q10.96-20.88 12.31-23.66L12.31-23.66L12.31-23.66Q13.66-26.45 15.40-28.19L15.40-28.19L15.40-28.19Q17.84-30.45 21.71-32.97L21.71-32.97L21.71-32.97Q25.58-35.50 27.84-36.19L27.84-36.19L27.84-36.19Q29.32-36.80 30.80-36.80L30.80-36.80L30.80-36.80Q32.19-36.80 33.15-36.19L33.15-36.19L33.15-36.19Q34.28-35.50 35.37-34.19L35.37-34.19L35.37-34.19Q36.45-32.89 36.80-31.84L36.80-31.84L36.80-31.84Q36.80-29.93 36.41-28.14L36.41-28.14L36.41-28.14Q36.02-26.36 35.24-26.36L35.24-26.36L35.24-26.36Q35.15-26.36 34.97-26.27L34.97-26.27L34.97-26.27Q34.80-26.19 34.80-25.84L34.80-25.84L34.80-25.84Q34.80-25.49 34.45-24.93L34.45-24.93L34.45-24.93Q34.10-24.36 33.50-23.84L33.50-23.84L33.50-23.84Q31.58-22.45 30.36-22.45L30.36-22.45L30.36-22.45Q29.41-22.45 29.15-23.40L29.15-23.40L29.15-23.40Q28.97-23.58 28.80-23.93L28.80-23.93L28.80-23.93Q28.62-24.27 28.36-24.27L28.36-24.27L28.36-24.27Q28.28-24.27 28.06-24.58L28.06-24.58L28.06-24.58Q27.84-24.88 27.84-25.40L27.84-25.40L27.84-25.40Q27.84-25.67 28.06-25.97L28.06-25.97L28.06-25.97Q28.28-26.27 28.36-26.36L28.36-26.36L28.36-26.36Q28.88-26.36 30.10-28.41L30.10-28.41L30.10-28.41Q31.32-30.45 31.32-31.15L31.32-31.15L31.32-31.15Q31.32-31.67 31.19-31.76L31.19-31.76L31.19-31.76Q31.06-31.84 30.36-31.84L30.36-31.84L30.36-31.84Q23.58-28.80 21.92-27.23L21.92-27.23L21.92-27.23Q21.66-26.71 21.53-26.54L21.53-26.54L21.53-26.54Q21.40-26.36 21.05-26.36L21.05-26.36L21.05-26.36Q21.05-27.14 16.44-20.45L16.44-20.45L16.44-20.45Q16.27-20.27 16.05-19.40L16.05-19.40L16.05-19.40Q15.83-18.53 15.83-17.92L15.83-17.92L15.83-17.92Q15.66-17.23 15.66-17.14L15.66-17.14L15.66-17.14Q15.66-16.79 15.96-16.44L15.96-16.44L15.96-16.44Q16.27-16.10 16.79-15.70L16.79-15.70L16.79-15.70Q17.31-15.31 17.84-14.88L17.84-14.88L17.84-14.88Q22.36-11.48 24.14-9.79L24.14-9.79L24.14-9.79Q25.93-8.09 26.27-6.96L26.27-6.96L26.27-6.96Q27.41-5.22 27.41-3.83L27.41-3.83L27.41-3.83Q27.41-2.78 26.62-2.00L26.62-2.00L26.62-2.00Q25.84-1.22 24.27-0.52L24.27-0.52L24.27-0.52Q23.32-0.09 21.05 0.22L21.05 0.22L21.05 0.22Q18.79 0.52 16.62 0.52L16.62 0.52L16.62 0.52Q15.40 0.52 14.01 0.35L14.01 0.35ZM41.50-4.70L40.98-4.70L40.98-4.70Q39.67-4.70 38.98-5.31L38.98-5.31L38.98-5.31Q38.28-5.92 38.06-6.26L38.06-6.26L38.06-6.26Q37.84-6.61 37.84-7.13L37.84-7.13L37.84-7.13Q37.84-7.48 38.45-10.35L38.45-10.35L39.24-13.22L39.24-13.22Q40.11-16.79 40.80-19.14L40.80-19.14L40.80-19.14Q41.15-21.32 42.15-23.75L42.15-23.75L42.15-23.75Q43.15-26.19 43.33-26.71L43.33-26.71L43.33-26.71Q44.02-29.23 46.02-34.54L46.02-34.54L48.63-41.59L48.63-41.59Q51.68-49.85 52.29-51.68L52.29-51.68L53.68-55.51L53.68-55.51Q53.68-56.90 55.07-56.90L55.07-56.90L55.07-56.90Q56.29-56.90 57.12-55.55L57.12-55.55L57.12-55.55Q57.94-54.20 57.94-52.46L57.94-52.46L57.94-52.46Q57.94-51.16 57.42-49.94L57.42-49.94L57.42-49.94Q56.20-47.33 54.77-43.37L54.77-43.37L54.77-43.37Q53.33-39.41 52.90-38.19L52.90-38.19L52.90-38.19Q49.94-29.84 48.63-27.06L48.63-27.06L48.63-27.06Q48.63-26.71 48.37-25.84L48.37-25.84L48.37-25.84Q48.11-24.97 47.76-24.27L47.76-24.27L46.81-22.36L46.81-22.36Q46.81-22.10 45.85-18.71L45.85-18.71L45.85-18.71Q44.63-14.96 44.37-13.22L44.37-13.22L44.37-13.22Q44.81-14.01 46.20-15.62L46.20-15.62L46.20-15.62Q47.59-17.23 48.81-18.27L48.81-18.27L48.81-18.27Q53.59-22.36 54.72-23.14L54.72-23.14L54.72-23.14Q55.77-23.75 56.46-24.27L56.46-24.27L56.46-24.27Q57.16-24.80 57.42-24.97L57.42-24.97L57.42-24.97Q57.42-25.40 58.38-25.40L58.38-25.40L58.38-25.40Q58.73-25.40 58.77-25.49L58.77-25.49L58.77-25.49Q58.81-25.58 58.81-25.93L58.81-25.93L58.81-25.93Q58.81-26.54 60.81-27.01L60.81-27.01L60.81-27.01Q62.81-27.49 64.38-27.49L64.38-27.49L64.38-27.49Q65.42-27.49 66.03-27.06L66.03-27.06L66.03-27.06Q66.64-26.62 67.60-25.14L67.60-25.14L67.60-25.14Q69.08-23.06 69.08-20.62L69.08-20.62L69.08-20.62Q69.08-19.23 68.56-17.75L68.56-17.75L68.56-17.75Q68.56-17.05 68.34-15.62L68.34-15.62L68.34-15.62Q68.12-14.18 68.12-13.14L68.12-13.14L67.60-10.35L68.99-10.35L68.99-10.35Q69.60-10.35 70.17-10.18L70.17-10.18L70.17-10.18Q70.73-10.01 70.91-9.92L70.91-9.92L70.91-9.92Q71.69-8.96 72.30-8.96L72.30-8.96L72.30-8.96Q73.08-8.96 73.08-8.35L73.08-8.35L73.08-8.35Q73.08-8.00 72.73-7.48L72.73-7.48L72.73-7.48Q72.38-6.96 71.78-6.61L71.78-6.61L71.78-6.61Q69.51-5.22 67.95-5.22L67.95-5.22L67.95-5.22Q66.47-5.22 64.90-6.61L64.90-6.61L64.90-6.61Q62.99-8.53 62.99-11.22L62.99-11.22L62.99-11.22Q62.99-12.62 63.51-14.53L63.51-14.53L63.77-17.31L63.77-17.31Q63.95-19.40 63.95-19.92L63.95-19.92L63.95-19.92Q63.95-21.92 62.99-21.92L62.99-21.92L62.99-21.92Q61.77-21.92 58.33-19.79L58.33-19.79L58.33-19.79Q54.90-17.66 51.24-14.49L51.24-14.49L51.24-14.49Q47.59-11.31 45.41-8.09L45.41-8.09L45.41-8.09Q44.11-6.44 43.20-5.61L43.20-5.61L43.20-5.61Q42.28-4.79 41.50-4.70L41.50-4.70ZM79.34-3.13L79.34-3.13Q79.08-3.65 78.52-4.22L78.52-4.22L78.52-4.22Q77.95-4.79 77.95-4.96L77.95-4.96L77.95-4.96Q77.95-5.92 77.52-6.44L77.52-6.44L77.52-6.44Q77.34-6.61 77.34-7.22L77.34-7.22L77.34-7.22Q77.34-8.61 78.69-11.96L78.69-11.96L78.69-11.96Q80.04-15.31 82.22-19.23L82.22-19.23L82.22-19.23Q82.74-19.75 83.56-21.05L83.56-21.05L83.56-21.05Q84.39-22.36 84.65-22.53L84.65-22.53L84.65-22.53Q84.65-22.88 84.91-23.19L84.91-23.19L84.91-23.19Q85.17-23.49 85.52-23.49L85.52-23.49L85.52-24.01L85.52-24.01Q85.52-24.80 88.39-27.80L88.39-27.80L88.39-27.80Q91.26-30.80 93.09-31.93L93.09-31.93L93.09-31.93Q95.27-33.41 97.53-33.41L97.53-33.41L97.53-33.41Q99.09-33.41 100.22-32.54L100.22-32.54L100.22-32.54Q100.66-32.02 104.23-28.80L104.23-28.80L107.44-25.93L105.88-21.58L105.88-21.58Q105.10-19.23 105.10-17.31L105.10-17.31L105.10-17.31Q105.10-14.01 107.01-10.96L107.01-10.96L107.01-10.96Q107.44-10.01 108.75-9.14L108.75-9.14L108.75-9.14Q110.06-8.27 111.36-8.09L111.36-8.09L111.36-8.09Q113.27-7.74 113.27-6.18L113.27-6.18L113.27-6.18Q113.27-4.44 111.71-4.09L111.71-4.09L111.71-4.09Q111.36-4.00 110.66-4.00L110.66-4.00L110.66-4.00Q105.53-4.00 101.79-11.22L101.79-11.22L101.79-11.22Q101.44-11.75 100.88-13.14L100.88-13.14L100.88-13.14Q100.31-14.53 100.22-15.05L100.22-15.05L100.22-15.05Q99.70-14.36 98.92-13.40L98.92-13.40L98.92-13.40Q98.14-12.44 97.44-11.75L97.44-11.75L97.44-11.75Q87.96-2.26 82.48-2.26L82.48-2.26L82.48-2.26Q80.74-2.26 79.34-3.13L79.34-3.13ZM82.48-8.00L82.48-8.00Q82.48-7.57 83.39-7.74L83.39-7.74L83.39-7.74Q84.30-7.92 85.65-8.61L85.65-8.61L85.65-8.61Q87-9.31 88.39-10.44L88.39-10.44L88.39-10.44Q95.87-16.88 99.18-21.66L99.18-21.66L101.09-24.80L101.09-24.80Q100.22-26.62 99.27-27.45L99.27-27.45L99.27-27.45Q98.31-28.28 97.53-28.28L97.53-28.28L97.53-28.28Q95.70-28.28 91.78-23.71L91.78-23.71L91.78-23.71Q87.87-19.14 84.65-12.96L84.65-12.96L84.65-12.96Q83.87-11.48 83.26-9.96L83.26-9.96L83.26-9.96Q82.65-8.44 82.48-8.00L82.48-8.00ZM119.89-4.70L119.36-4.70L119.36-4.70Q118.06-4.70 117.36-5.31L117.36-5.31L117.36-5.31Q116.67-5.92 116.45-6.26L116.45-6.26L116.45-6.26Q116.23-6.61 116.23-7.13L116.23-7.13L116.23-7.13Q116.23-7.48 116.84-10.35L116.84-10.35L117.62-13.22L117.62-13.22Q118.49-16.79 119.19-19.14L119.19-19.14L119.19-19.14Q119.54-21.32 120.54-23.75L120.54-23.75L120.54-23.75Q121.54-26.19 121.71-26.71L121.71-26.71L121.71-26.71Q122.41-29.23 124.41-34.54L124.41-34.54L127.02-41.59L127.02-41.59Q130.06-49.85 130.67-51.68L130.67-51.68L132.07-55.51L132.07-55.51Q132.07-56.90 133.46-56.90L133.46-56.90L133.46-56.90Q134.68-56.90 135.50-55.55L135.50-55.55L135.50-55.55Q136.33-54.20 136.33-52.46L136.33-52.46L136.33-52.46Q136.33-51.16 135.81-49.94L135.81-49.94L135.81-49.94Q134.59-47.33 133.15-43.37L133.15-43.37L133.15-43.37Q131.72-39.41 131.28-38.19L131.28-38.19L131.28-38.19Q128.32-29.84 127.02-27.06L127.02-27.06L127.02-27.06Q127.02-26.71 126.76-25.84L126.76-25.84L126.76-25.84Q126.50-24.97 126.15-24.27L126.15-24.27L125.19-22.36L125.19-22.36Q125.19-22.10 124.24-18.71L124.24-18.71L124.24-18.71Q123.02-14.96 122.76-13.22L122.76-13.22L122.76-13.22Q123.19-14.01 124.58-15.62L124.58-15.62L124.58-15.62Q125.98-17.23 127.19-18.27L127.19-18.27L127.19-18.27Q131.98-22.36 133.11-23.14L133.11-23.14L133.11-23.14Q134.15-23.75 134.85-24.27L134.85-24.27L134.85-24.27Q135.55-24.80 135.81-24.97L135.81-24.97L135.81-24.97Q135.81-25.40 136.76-25.40L136.76-25.40L136.76-25.40Q137.11-25.40 137.16-25.49L137.16-25.49L137.16-25.49Q137.20-25.58 137.20-25.93L137.20-25.93L137.20-25.93Q137.20-26.54 139.20-27.01L139.20-27.01L139.20-27.01Q141.20-27.49 142.77-27.49L142.77-27.49L142.77-27.49Q143.81-27.49 144.42-27.06L144.42-27.06L144.42-27.06Q145.03-26.62 145.99-25.14L145.99-25.14L145.99-25.14Q147.47-23.06 147.47-20.62L147.47-20.62L147.47-20.62Q147.47-19.23 146.94-17.75L146.94-17.75L146.94-17.75Q146.94-17.05 146.73-15.62L146.73-15.62L146.73-15.62Q146.51-14.18 146.51-13.14L146.51-13.14L145.99-10.35L147.38-10.35L147.38-10.35Q147.99-10.35 148.55-10.18L148.55-10.18L148.55-10.18Q149.12-10.01 149.29-9.92L149.29-9.92L149.29-9.92Q150.07-8.96 150.68-8.96L150.68-8.96L150.68-8.96Q151.47-8.96 151.47-8.35L151.47-8.35L151.47-8.35Q151.47-8.00 151.12-7.48L151.12-7.48L151.12-7.48Q150.77-6.96 150.16-6.61L150.16-6.61L150.16-6.61Q147.90-5.22 146.33-5.22L146.33-5.22L146.33-5.22Q144.86-5.22 143.29-6.61L143.29-6.61L143.29-6.61Q141.38-8.53 141.38-11.22L141.38-11.22L141.38-11.22Q141.38-12.62 141.90-14.53L141.90-14.53L142.16-17.31L142.16-17.31Q142.33-19.40 142.33-19.92L142.33-19.92L142.33-19.92Q142.33-21.92 141.38-21.92L141.38-21.92L141.38-21.92Q140.16-21.92 136.72-19.79L136.72-19.79L136.72-19.79Q133.28-17.66 129.63-14.49L129.63-14.49L129.63-14.49Q125.98-11.31 123.80-8.09L123.80-8.09L123.80-8.09Q122.50-6.44 121.58-5.61L121.58-5.61L121.58-5.61Q120.67-4.79 119.89-4.70L119.89-4.70ZM179.92 1.65L179.92 1.65Q177.74 2.18 176.96-0.26L176.96-0.26L176.96-0.26Q175.74-3.65 175.74-7.40L175.74-7.40L175.74-7.40Q175.74-8.44 175.83-8.87L175.83-8.87L176.00-10.70L172.61-8.00L172.61-8.00Q169.82-5.57 167.08-4.35L167.08-4.35L167.08-4.35Q164.34-3.13 162.08-3.13L162.08-3.13L162.08-3.13Q160.60-3.39 159.25-4.39L159.25-4.39L159.25-4.39Q157.91-5.39 157.30-6.79L157.30-6.79L157.30-6.79Q156.95-7.48 156.95-8.87L156.95-8.87L156.95-8.87Q156.95-12.09 158.69-16.49L158.69-16.49L158.69-16.49Q160.43-20.88 163.04-23.75L163.04-23.75L163.04-23.75Q166.78-29.41 171.39-29.41L171.39-29.41L171.39-29.41Q173.56-29.41 175.74-28.10L175.74-28.10L175.74-28.10Q177.91-27.23 178.26-27.23L178.26-27.23L178.26-27.23Q178.78-27.23 179.05-27.67L179.05-27.67L179.05-27.67Q179.31-28.10 179.57-29.23L179.57-29.23L179.57-29.23Q180.53-33.23 181.40-35.93L181.40-35.93L181.40-35.93Q183.31-41.67 184.70-45.15L184.70-45.15L184.70-45.15Q186.09-48.63 188.09-52.81L188.09-52.81L188.09-52.81Q188.96-54.64 189.62-55.20L189.62-55.20L189.62-55.20Q190.27-55.77 191.05-55.68L191.05-55.68L191.05-55.68Q192.97-55.68 194.01-53.07L194.01-53.07L194.01-53.07Q194.27-52.46 194.27-51.85L194.27-51.85L194.27-51.85Q194.27-51.24 193.75-50.20L193.75-50.20L193.75-50.20Q191.49-46.28 188.18-37.41L188.18-37.41L188.18-37.41Q184.88-28.54 183.05-22.01L183.05-22.01L183.05-22.01Q182.26-19.14 181.70-13.75L181.70-13.75L181.70-13.75Q181.13-8.35 181.13-4.79L181.13-4.79L181.13-4.79Q181.13-3.22 181.31-2.52L181.31-2.52L181.31-2.52Q181.74-1.04 181.74 0.09L181.74 0.09L181.74 0.09Q181.74 0.96 181.31 1.26L181.31 1.26L181.31 1.26Q180.87 1.57 179.92 1.65L179.92 1.65ZM165.21-8.00L165.21-8.00Q167.21-8.44 170.09-10.61L170.09-10.61L170.09-10.61Q170.61-10.96 172.61-12.44L172.61-12.44L172.61-12.44Q174.61-13.92 175.65-15.57L175.65-15.57L175.65-15.57Q176.70-17.23 177.13-19.31L177.13-19.31L177.13-19.31Q177.22-20.88 176.83-21.88L176.83-21.88L176.83-21.88Q176.44-22.88 175.31-23.84L175.31-23.84L175.31-23.84Q174.44-24.45 173.13-24.45L173.13-24.45L173.13-24.45Q170.78-24.45 168.78-22.53L168.78-22.53L168.78-22.53Q166.43-20.45 164.60-17.14L164.60-17.14L164.60-17.14Q162.78-13.83 161.82-9.48L161.82-9.48L161.82-9.48Q161.56-7.83 163.56-7.83L163.56-7.83L163.56-7.83Q164.60-7.83 165.21-8.00L165.21-8.00ZM209.84 2.35L209.84 2.35Q209.24 2.26 208.45 1.57L208.45 1.57L208.45 1.57Q207.67 0.87 207.67 0.52L207.67 0.52L207.67 0.52Q207.76 0.26 207.67 0.17L207.67 0.17L207.67 0.17Q207.58 0.09 207.32 0.09L207.32 0.09L207.32 0.09Q207.23-0.09 207.10-0.61L207.10-0.61L207.10-0.61Q206.97-1.13 207.06-1.65L207.06-1.65L207.06-1.65Q207.06-2.00 207.15-2.83L207.15-2.83L207.15-2.83Q207.23-3.65 207.23-4.61L207.23-4.61L207.23-4.61Q207.41-6.96 208.76-11.79L208.76-11.79L208.76-11.79Q210.10-16.62 211.58-20.97L211.58-20.97L211.58-20.97Q212.72-23.93 212.72-24.53L212.72-24.53L212.72-24.53Q212.72-25.40 211.50-25.40L211.50-25.40L211.50-25.40Q210.89-25.40 210.45-25.32L210.45-25.32L210.45-25.32Q209.93-25.23 209.06-25.23L209.06-25.23L209.06-25.23Q205.67-25.23 203.28-27.67L203.28-27.67L203.28-27.67Q200.88-30.10 200.88-33.50L200.88-33.50L200.88-33.50Q200.88-35.06 201.32-36.24L201.32-36.24L201.32-36.24Q201.75-37.41 203.06-39.50L203.06-39.50L203.06-39.50Q205.75-43.50 209.32-46.28L209.32-46.28L209.32-46.28Q212.89-49.07 216.28-49.68L216.28-49.68L216.28-49.68Q217.50-49.85 218.54-49.85L218.54-49.85L218.54-49.85Q221.24-49.85 222.55-49.33L222.55-49.33L222.55-49.33Q224.46-48.55 226.11-45.89L226.11-45.89L226.11-45.89Q227.77-43.24 227.33-41.76L227.33-41.76L227.33-41.76Q226.81-39.06 226.03-37.54L226.03-37.54L226.03-37.54Q225.24-36.02 224.03-34.71L224.03-34.71L224.03-34.71Q222.02-32.97 218.98-26.97L218.98-26.97L218.98-26.97Q215.93-20.97 213.76-14.79L213.76-14.79L213.76-14.79Q212.11-10.09 212.11-6.61L212.11-6.61L212.11-6.61Q212.11-5.13 212.54-5.13L212.54-5.13L212.54-5.13Q212.80-5.13 213.50-4.87L213.50-4.87L213.50-4.87Q214.19-4.61 214.37-4.61L214.37-4.61L214.37-4.61Q214.63-4.26 214.63-3.92L214.63-3.92L214.63-3.92Q214.63-3.57 214.19-2.44L214.19-2.44L214.19-2.44Q213.76-1.22 212.11 0.61L212.11 0.61L212.11 0.61Q210.45 2.44 209.84 2.35L209.84 2.35ZM205.93-30.80L205.93-30.80Q206.80-29.84 208.37-29.84L208.37-29.84L208.37-29.84Q210.71-29.84 213.59-31.89L213.59-31.89L213.59-31.89Q216.46-33.93 218.54-37.15L218.54-37.15L220.20-39.32L220.20-39.32Q221.24-40.63 221.42-40.80L221.42-40.80L221.42-40.80Q222.72-42.28 222.72-43.07L222.72-43.07L222.72-43.07Q222.72-43.67 222.20-44.20L222.20-44.20L222.20-44.20Q221.59-45.24 220.20-45.24L220.20-45.24L220.20-45.24Q219.33-45.24 217.24-44.54L217.24-44.54L217.24-44.54Q215.93-44.28 214.76-43.72L214.76-43.72L214.76-43.72Q213.59-43.15 211.67-41.93L211.67-41.93L211.67-41.93Q211.15-41.41 210.28-41.59L210.28-41.59L210.28-41.59Q210.19-41.59 210.06-41.50L210.06-41.50L210.06-41.50Q209.93-41.41 209.93-41.15L209.93-41.15L209.93-41.15Q210.02-41.06 210.02-40.80L210.02-40.80L210.02-40.80Q210.02-40.02 208.89-39.15L208.89-39.15L208.89-39.15Q207.23-37.50 206.36-35.63L206.36-35.63L206.36-35.63Q205.49-33.76 205.49-32.28L205.49-32.28L205.49-32.28Q205.49-31.41 205.93-30.80L205.93-30.80ZM240.99 1.57L240.99 1.57Q239.08 1.22 237.86-1.74L237.86-1.74L237.86-1.74Q237.25-4.61 243.95-17.23L243.95-17.23L243.95-17.23Q245.86-20.27 245.86-20.88L245.86-20.88L245.86-20.88Q245.86-21.23 245.38-21.32L245.38-21.32L245.38-21.32Q244.91-21.40 244.12-21.40L244.12-21.40L244.12-21.40Q243.69-21.49 242.47-21.75L242.47-21.75L242.47-21.75Q241.25-22.01 240.99-22.36L240.99-22.36L240.99-22.36Q239.34-23.23 239.34-24.19L239.34-24.19L239.34-24.19Q239.34-24.71 239.95-24.80L239.95-24.80L239.95-24.80Q240.82-24.97 240.82-25.32L240.82-25.32L240.82-25.32Q240.82-25.58 239.77-25.93L239.77-25.93L240.73-25.75L245.08-25.67L245.08-25.67Q246.65-25.67 247.34-25.58L247.34-25.58L247.34-25.58Q247.60-25.49 248.04-25.49L248.04-25.49L248.04-25.49Q248.65-25.49 248.99-25.80L248.99-25.80L248.99-25.80Q249.34-26.10 249.86-26.75L249.86-26.75L249.86-26.75Q250.39-27.41 250.65-27.75L250.65-27.75L252.30-30.36L252.30-30.36Q254.04-32.80 255.43-35.24L255.43-35.24L255.43-35.24Q260.13-41.93 260.13-43.76L260.13-43.76L260.13-43.76Q260.13-44.98 258.39-44.98L258.39-44.98L258.39-44.98Q257.00-44.98 255.30-44.50L255.30-44.50L255.30-44.50Q253.61-44.02 249.95-42.63L249.95-42.63L249.95-42.63Q248.04-41.85 246.60-41.33L246.60-41.33L246.60-41.33Q245.17-40.80 244.47-40.80L244.47-40.80L244.47-40.80Q243.69-40.80 243.25-41.15L243.25-41.15L243.25-41.15Q242.64-41.24 242.34-41.85L242.34-41.85L242.34-41.85Q242.03-42.46 242.03-43.24L242.03-43.24L242.03-43.24Q242.03-43.85 242.12-44.11L242.12-44.11L242.12-44.11Q242.47-45.68 253.52-48.46L253.52-48.46L253.52-48.46Q256.30-48.89 258.30-48.89L258.30-48.89L258.30-48.89Q261.61-48.89 262.22-47.76L262.22-47.76L262.22-47.76Q262.31-47.68 262.48-47.55L262.48-47.55L262.48-47.55Q262.65-47.42 262.74-47.68L262.74-47.68L262.74-47.68Q263.00-47.59 263.31-46.94L263.31-46.94L263.31-46.94Q263.61-46.28 263.96-45.59L263.96-45.59L263.96-45.59Q264.13-45.24 264.65-44.28L264.65-44.28L264.65-44.28Q265.18-43.33 265.18-42.63L265.18-42.63L265.18-42.63Q265.18-42.28 265.00-41.41L265.00-41.41L265.00-41.41Q264.74-40.54 264.13-39.59L264.13-39.59L264.13-39.59Q263.52-38.63 263.18-38.28L263.18-38.28L263.18-38.28Q262.83-37.93 262.61-37.54L262.61-37.54L262.61-37.54Q262.39-37.15 262.31-37.06L262.31-37.06L262.31-37.06Q262.22-36.80 261.74-36.41L261.74-36.41L261.74-36.41Q261.26-36.02 260.91-35.58L260.91-35.58L260.91-35.58Q260.83-35.32 260.52-34.84L260.52-34.84L260.52-34.84Q260.22-34.37 260.13-34.10L260.13-34.10L255.34-26.88L255.34-26.88Q254.13-25.75 254.13-25.23L254.13-25.23L254.13-25.23Q254.13-24.71 255.26-24.19L255.26-24.19L255.26-24.19Q258.30-22.79 259.00-20.71L259.00-20.71L259.00-19.92L259.00-19.92Q259.00-18.97 258.56-18.71L258.56-18.71L258.56-18.71Q258.22-18.18 257.35-18.18L257.35-18.18L257.35-18.18Q256.30-18.18 256.04-18.62L256.04-18.62L256.04-18.62Q255.69-19.31 254.08-19.97L254.08-19.97L254.08-19.97Q252.47-20.62 251.95-20.62L251.95-20.62L251.95-20.62Q251.52-20.36 250.47-18.97L250.47-18.97L250.47-18.97Q249.78-18.01 247.60-13.66L247.60-13.66L245.34-9.57L245.34-9.57Q245.25-9.31 244.86-8.70L244.86-8.70L244.86-8.70Q244.47-8.09 244.30-7.66L244.30-7.66L244.30-7.66Q243.95-7.05 243.69-5.83L243.69-5.83L243.69-5.83Q243.43-4.61 243.43-3.65L243.43-3.65L243.43-3.65Q243.43-2.78 243.69-2.78L243.69-2.78L243.69-2.78Q243.86-2.87 244.12-2.87L244.12-2.87L244.12-2.87Q244.91-2.87 245.17-1.65L245.17-1.65L245.17-1.65Q245.60-1.04 244.91-0.17L244.91-0.17L244.91-0.17Q244.21 0.70 243.08 1.22L243.08 1.22L243.08 1.22Q241.95 1.74 240.99 1.57L240.99 1.57ZM274.92 0.35L274.92 0.35Q273.35-0.26 271.88-1.44L271.88-1.44L271.88-1.44Q270.40-2.61 269.87-3.48L269.87-3.48L269.87-3.48Q269.87-3.65 269.87-4.09L269.87-4.09L269.87-4.09Q269.87-4.52 270.13-4.65L270.13-4.65L270.13-4.65Q270.40-4.79 271.09-4.79L271.09-4.79L271.09-4.79Q272.57-4.79 275.79-4.44L275.79-4.44L275.79-4.44Q277.70-4.44 280.14-4.92L280.14-4.92L280.14-4.92Q282.58-5.39 282.84-6.00L282.84-6.00L282.84-6.00Q283.10-6.00 283.10-6.09L283.10-6.09L283.10-6.09Q283.10-6.26 282.40-6.96L282.40-6.96L282.40-6.96Q282.23-6.96 281.62-7.26L281.62-7.26L281.62-7.26Q281.01-7.57 280.84-7.57L280.84-7.57L280.84-7.57Q280.84-7.92 280.05-8.48L280.05-8.48L280.05-8.48Q279.27-9.05 278.31-9.48L278.31-9.48L278.31-9.48Q275.79-11.57 274.75-12.57L274.75-12.57L274.75-12.57Q273.70-13.57 273.96-14.01L273.96-14.01L273.96-14.44L273.96-14.44Q273.35-14.44 272.61-16.14L272.61-16.14L272.61-16.14Q271.88-17.84 271.88-19.31L271.88-19.31L271.88-19.31Q271.88-20.88 273.22-23.66L273.22-23.66L273.22-23.66Q274.57-26.45 276.31-28.19L276.31-28.19L276.31-28.19Q278.75-30.45 282.62-32.97L282.62-32.97L282.62-32.97Q286.49-35.50 288.75-36.19L288.75-36.19L288.75-36.19Q290.23-36.80 291.71-36.80L291.71-36.80L291.71-36.80Q293.10-36.80 294.06-36.19L294.06-36.19L294.06-36.19Q295.19-35.50 296.28-34.19L296.28-34.19L296.28-34.19Q297.37-32.89 297.71-31.84L297.71-31.84L297.71-31.84Q297.71-29.93 297.32-28.14L297.32-28.14L297.32-28.14Q296.93-26.36 296.15-26.36L296.15-26.36L296.15-26.36Q296.06-26.36 295.89-26.27L295.89-26.27L295.89-26.27Q295.71-26.19 295.71-25.84L295.71-25.84L295.71-25.84Q295.71-25.49 295.37-24.93L295.37-24.93L295.37-24.93Q295.02-24.36 294.41-23.84L294.41-23.84L294.41-23.84Q292.49-22.45 291.28-22.45L291.28-22.45L291.28-22.45Q290.32-22.45 290.06-23.40L290.06-23.40L290.06-23.40Q289.88-23.58 289.71-23.93L289.71-23.93L289.71-23.93Q289.54-24.27 289.28-24.27L289.28-24.27L289.28-24.27Q289.19-24.27 288.97-24.58L288.97-24.58L288.97-24.58Q288.75-24.88 288.75-25.40L288.75-25.40L288.75-25.40Q288.75-25.67 288.97-25.97L288.97-25.97L288.97-25.97Q289.19-26.27 289.28-26.36L289.28-26.36L289.28-26.36Q289.80-26.36 291.01-28.41L291.01-28.41L291.01-28.41Q292.23-30.45 292.23-31.15L292.23-31.15L292.23-31.15Q292.23-31.67 292.10-31.76L292.10-31.76L292.10-31.76Q291.97-31.84 291.28-31.84L291.28-31.84L291.28-31.84Q284.49-28.80 282.84-27.23L282.84-27.23L282.84-27.23Q282.58-26.71 282.45-26.54L282.45-26.54L282.45-26.54Q282.31-26.36 281.97-26.36L281.97-26.36L281.97-26.36Q281.97-27.14 277.36-20.45L277.36-20.45L277.36-20.45Q277.18-20.27 276.96-19.40L276.96-19.40L276.96-19.40Q276.75-18.53 276.75-17.92L276.75-17.92L276.75-17.92Q276.57-17.23 276.57-17.14L276.57-17.14L276.57-17.14Q276.57-16.79 276.88-16.44L276.88-16.44L276.88-16.44Q277.18-16.10 277.70-15.70L277.70-15.70L277.70-15.70Q278.23-15.31 278.75-14.88L278.75-14.88L278.75-14.88Q283.27-11.48 285.06-9.79L285.06-9.79L285.06-9.79Q286.84-8.09 287.19-6.96L287.19-6.96L287.19-6.96Q288.32-5.22 288.32-3.83L288.32-3.83L288.32-3.83Q288.32-2.78 287.54-2.00L287.54-2.00L287.54-2.00Q286.75-1.22 285.19-0.52L285.19-0.52L285.19-0.52Q284.23-0.09 281.97 0.22L281.97 0.22L281.97 0.22Q279.71 0.52 277.53 0.52L277.53 0.52L277.53 0.52Q276.31 0.52 274.92 0.35L274.92 0.35ZM302.41-4.70L301.89-4.70L301.89-4.70Q300.59-4.70 299.89-5.31L299.89-5.31L299.89-5.31Q299.19-5.92 298.98-6.26L298.98-6.26L298.98-6.26Q298.76-6.61 298.76-7.13L298.76-7.13L298.76-7.13Q298.76-7.48 299.37-10.35L299.37-10.35L300.15-13.22L300.15-13.22Q301.02-16.79 301.72-19.14L301.72-19.14L301.72-19.14Q302.06-21.32 303.06-23.75L303.06-23.75L303.06-23.75Q304.07-26.19 304.24-26.71L304.24-26.71L304.24-26.71Q304.94-29.23 306.94-34.54L306.94-34.54L309.55-41.59L309.55-41.59Q312.59-49.85 313.20-51.68L313.20-51.68L314.59-55.51L314.59-55.51Q314.59-56.90 315.98-56.90L315.98-56.90L315.98-56.90Q317.20-56.90 318.03-55.55L318.03-55.55L318.03-55.55Q318.86-54.20 318.86-52.46L318.86-52.46L318.86-52.46Q318.86-51.16 318.33-49.94L318.33-49.94L318.33-49.94Q317.12-47.33 315.68-43.37L315.68-43.37L315.68-43.37Q314.24-39.41 313.81-38.19L313.81-38.19L313.81-38.19Q310.85-29.84 309.55-27.06L309.55-27.06L309.55-27.06Q309.55-26.71 309.29-25.84L309.29-25.84L309.29-25.84Q309.02-24.97 308.68-24.27L308.68-24.27L307.72-22.36L307.72-22.36Q307.72-22.10 306.76-18.71L306.76-18.71L306.76-18.71Q305.54-14.96 305.28-13.22L305.28-13.22L305.28-13.22Q305.72-14.01 307.11-15.62L307.11-15.62L307.11-15.62Q308.50-17.23 309.72-18.27L309.72-18.27L309.72-18.27Q314.51-22.36 315.64-23.14L315.64-23.14L315.64-23.14Q316.68-23.75 317.38-24.27L317.38-24.27L317.38-24.27Q318.07-24.80 318.33-24.97L318.33-24.97L318.33-24.97Q318.33-25.40 319.29-25.40L319.29-25.40L319.29-25.40Q319.64-25.40 319.68-25.49L319.68-25.49L319.68-25.49Q319.73-25.58 319.73-25.93L319.73-25.93L319.73-25.93Q319.73-26.54 321.73-27.01L321.73-27.01L321.73-27.01Q323.73-27.49 325.29-27.49L325.29-27.49L325.29-27.49Q326.34-27.49 326.95-27.06L326.95-27.06L326.95-27.06Q327.56-26.62 328.51-25.14L328.51-25.14L328.51-25.14Q329.99-23.06 329.99-20.62L329.99-20.62L329.99-20.62Q329.99-19.23 329.47-17.75L329.47-17.75L329.47-17.75Q329.47-17.05 329.25-15.62L329.25-15.62L329.25-15.62Q329.03-14.18 329.03-13.14L329.03-13.14L328.51-10.35L329.90-10.35L329.90-10.35Q330.51-10.35 331.08-10.18L331.08-10.18L331.08-10.18Q331.64-10.01 331.82-9.92L331.82-9.92L331.82-9.92Q332.60-8.96 333.21-8.96L333.21-8.96L333.21-8.96Q333.99-8.96 333.99-8.35L333.99-8.35L333.99-8.35Q333.99-8.00 333.65-7.48L333.65-7.48L333.65-7.48Q333.30-6.96 332.69-6.61L332.69-6.61L332.69-6.61Q330.43-5.22 328.86-5.22L328.86-5.22L328.86-5.22Q327.38-5.22 325.82-6.61L325.82-6.61L325.82-6.61Q323.90-8.53 323.90-11.22L323.90-11.22L323.90-11.22Q323.90-12.62 324.42-14.53L324.42-14.53L324.68-17.31L324.68-17.31Q324.86-19.40 324.86-19.92L324.86-19.92L324.86-19.92Q324.86-21.92 323.90-21.92L323.90-21.92L323.90-21.92Q322.68-21.92 319.25-19.79L319.25-19.79L319.25-19.79Q315.81-17.66 312.16-14.49L312.16-14.49L312.16-14.49Q308.50-11.31 306.33-8.09L306.33-8.09L306.33-8.09Q305.02-6.44 304.11-5.61L304.11-5.61L304.11-5.61Q303.20-4.79 302.41-4.70L302.41-4.70ZM345.65-1.31L345.65-1.31Q344.61-1.31 344.00-1.65L344.00-1.65L344.00-1.65Q343.39-2.00 342.26-2.96L342.26-2.96L342.26-2.96Q339.39-6.00 339.39-8.53L339.39-8.53L339.39-8.53Q339.39-9.14 339.47-9.40L339.47-9.40L339.47-9.40Q339.74-10.01 339.69-10.61L339.69-10.61L339.69-10.61Q339.65-11.22 339.65-11.40L339.65-11.40L339.65-11.40Q339.30-11.75 339.30-11.88L339.30-11.88L339.30-11.88Q339.30-12.01 339.47-12.14L339.47-12.14L339.47-12.14Q339.65-12.27 339.74-12.44L339.74-12.44L339.74-12.44Q340.26-12.44 340.08-13.40L340.08-13.40L340.08-13.40Q339.91-14.09 340.78-16.49L340.78-16.49L340.78-16.49Q341.65-18.88 342.95-20.88L342.95-20.88L342.95-20.88Q343.91-22.45 345.78-24.80L345.78-24.80L345.78-24.80Q347.65-27.14 349.13-28.36L349.13-28.36L349.13-28.36Q351.22-30.19 352.87-31.06L352.87-31.06L352.87-31.06Q354.53-31.93 356.53-32.36L356.53-32.36L356.53-32.36Q358.27-32.80 358.88-32.80L358.88-32.80L358.88-32.80Q359.48-32.80 359.96-32.49L359.96-32.49L359.96-32.49Q360.44-32.19 361.22-31.41L361.22-31.41L361.22-31.41Q363.57-30.36 364.49-28.75L364.49-28.75L364.49-28.75Q365.40-27.14 365.40-23.75L365.40-23.75L365.40-23.75Q365.40-18.10 360.79-11.48L360.79-11.48L360.79-11.48Q358.79-8.61 357.05-7.09L357.05-7.09L357.05-7.09Q355.31-5.57 352.44-3.83L352.44-3.83L352.44-3.83Q350.61-2.52 349.09-1.96L349.09-1.96L349.09-1.96Q347.57-1.39 345.65-1.31L345.65-1.31ZM354.00-10.53L354.00-10.53Q356.09-12.88 357.35-14.96L357.35-14.96L357.35-14.96Q358.61-17.05 359.75-20.27L359.75-20.27L359.75-20.27Q360.18-21.75 360.18-23.84L360.18-23.84L360.18-23.84Q360.18-26.45 359.48-26.80L359.48-26.80L359.48-26.80Q358.61-27.23 357.74-27.23L357.74-27.23L357.74-27.23Q355.83-27.23 353.74-25.49L353.74-25.49L353.74-25.49Q351.22-23.32 349.22-20.14L349.22-20.14L349.22-20.14Q347.22-16.96 345.13-12.27L345.13-12.27L345.13-12.27Q344.26-10.44 344.26-8.70L344.26-8.70L344.26-8.70Q344.26-7.40 344.91-6.61L344.91-6.61L344.91-6.61Q345.56-5.83 346.70-5.83L346.70-5.83L346.70-5.83Q349.57-5.83 354.00-10.53L354.00-10.53ZM366.97 19.49L366.27 19.58L366.27 19.58Q365.57 19.58 365.14 18.79L365.14 18.79L365.14 18.79Q364.70 18.18 364.70 17.31L364.70 17.31L364.70 17.31Q364.70 16.70 365.14 14.36L365.14 14.36L365.14 14.36Q366.10 10.70 366.10 9.31L366.10 9.31L366.10 9.31Q366.10 8.87 366.27 8.05L366.27 8.05L366.27 8.05Q366.44 7.22 366.53 6.53L366.53 6.53L366.53 6.53Q366.88 5.92 367.18 4.65L367.18 4.65L367.18 4.65Q367.49 3.39 367.49 2.44L367.49 2.44L367.49 2.44Q367.49 2.00 367.79 1.44L367.79 1.44L367.79 1.44Q368.10 0.87 368.53 0.52L368.53 0.52L368.53 0.52Q368.53 0 368.79-1.09L368.79-1.09L368.79-1.09Q369.05-2.18 369.14-2.61L369.14-2.61L369.14-2.61Q369.58-4.96 372.53-13.75L372.53-13.75L372.53-13.75Q375.49-22.53 377.58-27.93L377.58-27.93L377.58-27.93Q378.54-30.10 378.97-31.93L378.97-31.93L378.97-31.93Q379.41-33.76 379.41-34.80L379.41-34.80L379.41-34.80Q379.41-35.15 379.62-35.45L379.62-35.45L379.62-35.45Q379.84-35.76 380.36-36.28L380.36-36.28L380.36-36.28Q380.97-36.89 381.50-36.89L381.50-36.89L381.50-36.89Q381.93-36.89 382.45-36.54L382.45-36.54L382.45-36.54Q382.97-36.19 383.50-35.76L383.50-35.76L383.50-35.76Q384.02-34.97 384.32-34.28L384.32-34.28L384.32-34.28Q384.63-33.58 384.63-32.80L384.63-32.80L384.63-32.80Q384.63-32.54 384.45-31.15L384.45-31.15L384.45-31.15Q384.45-29.32 383.67-28.14L383.67-28.14L383.67-28.14Q382.89-26.97 383.06-27.06L383.06-27.06L383.06-27.06Q386.98-28.88 390.02-28.88L390.02-28.88L390.02-28.88Q393.68-28.88 395.72-26.54L395.72-26.54L395.72-26.54Q397.76-24.19 397.76-20.45L397.76-20.45L397.76-20.45Q397.76-18.88 396.85-16.66L396.85-16.66L396.85-16.66Q395.94-14.44 395.07-13.66L395.07-13.66L395.07-13.66Q394.55-13.66 393.68-11.83L393.68-11.83L393.68-11.83Q392.54-10.44 389.93-8.92L389.93-8.92L389.93-8.92Q387.32-7.40 386.28-7.74L386.28-7.74L386.28-7.74Q386.19-7.74 386.02-7.66L386.02-7.66L386.02-7.66Q385.85-7.57 385.85-7.22L385.85-7.22L385.85-7.22Q385.85-6.87 382.89-5.92L382.89-5.92L382.89-5.92Q379.93-4.96 378.02-4.96L378.02-4.96L378.02-4.96Q376.97-4.96 376.45-5.09L376.45-5.09L376.45-5.09Q375.93-5.22 375.41-5.66L375.41-5.66L375.41-5.66Q374.80-5.05 374.80-4.52L374.80-4.52L374.80-4.52Q374.80-3.57 373.93-1.04L373.93-1.04L373.93-1.04Q373.06 1.48 372.53 1.48L372.53 1.48L372.53 1.48Q372.45 1.57 372.32 1.83L372.32 1.83L372.32 1.83Q372.19 2.09 372.53 2.44L372.53 2.44L372.53 2.44Q372.53 2.70 372.45 3.65L372.45 3.65L372.45 3.65Q372.36 4.61 372.01 5.13L372.01 5.13L372.01 5.13Q372.01 5.92 371.75 7.26L371.75 7.26L371.75 7.26Q371.49 8.61 371.14 9.31L371.14 9.31L371.14 9.31Q371.14 10.35 370.84 11.35L370.84 11.35L370.84 11.35Q370.53 12.35 370.19 12.35L370.19 12.35L370.19 12.35Q369.66 12.53 369.66 14.88L369.66 14.88L369.66 14.88Q369.58 17.05 368.79 18.27L368.79 18.27L368.79 18.27Q368.01 19.49 366.97 19.49L366.97 19.49ZM377.49-9.57L377.49-9.57Q378.80-9.57 382.76-10.92L382.76-10.92L382.76-10.92Q386.72-12.27 388.28-13.57L388.28-13.57L388.28-13.57Q390.11-15.14 391.24-16.92L391.24-16.92L391.24-16.92Q392.37-18.71 392.37-20.53L392.37-20.53L392.37-20.53Q392.37-21.92 391.59-23.06L391.59-23.06L391.59-23.06Q390.98-24.01 389.50-24.01L389.50-24.01L389.50-24.01Q387.76-24.01 385.37-22.79L385.37-22.79L385.37-22.79Q382.97-21.58 380.97-19.58L380.97-19.58L380.97-19.58Q379.41-18.01 378.19-15.09L378.19-15.09L378.19-15.09Q376.97-12.18 376.97-10.53L376.97-10.53L376.97-10.53Q376.97-9.57 377.49-9.57L377.49-9.57Z" fill="url(#editing-shiny-gradient)"></path></g></g><g filter="url(#editing-shiny2)"><g transform="translate(48.99800777435303, 113.24000549316406)"><path d="M14.01 0.35L14.01 0.35Q12.44-0.26 10.96-1.44L10.96-1.44L10.96-1.44Q9.48-2.61 8.96-3.48L8.96-3.48L8.96-3.48Q8.96-3.65 8.96-4.09L8.96-4.09L8.96-4.09Q8.96-4.52 9.22-4.65L9.22-4.65L9.22-4.65Q9.48-4.79 10.18-4.79L10.18-4.79L10.18-4.79Q11.66-4.79 14.88-4.44L14.88-4.44L14.88-4.44Q16.79-4.44 19.23-4.92L19.23-4.92L19.23-4.92Q21.66-5.39 21.92-6.00L21.92-6.00L21.92-6.00Q22.19-6.00 22.19-6.09L22.19-6.09L22.19-6.09Q22.19-6.26 21.49-6.96L21.49-6.96L21.49-6.96Q21.32-6.96 20.71-7.26L20.71-7.26L20.71-7.26Q20.10-7.57 19.92-7.57L19.92-7.57L19.92-7.57Q19.92-7.92 19.14-8.48L19.14-8.48L19.14-8.48Q18.36-9.05 17.40-9.48L17.40-9.48L17.40-9.48Q14.88-11.57 13.83-12.57L13.83-12.57L13.83-12.57Q12.79-13.57 13.05-14.01L13.05-14.01L13.05-14.44L13.05-14.44Q12.44-14.44 11.70-16.14L11.70-16.14L11.70-16.14Q10.96-17.84 10.96-19.31L10.96-19.31L10.96-19.31Q10.96-20.88 12.31-23.66L12.31-23.66L12.31-23.66Q13.66-26.45 15.40-28.19L15.40-28.19L15.40-28.19Q17.84-30.45 21.71-32.97L21.71-32.97L21.71-32.97Q25.58-35.50 27.84-36.19L27.84-36.19L27.84-36.19Q29.32-36.80 30.80-36.80L30.80-36.80L30.80-36.80Q32.19-36.80 33.15-36.19L33.15-36.19L33.15-36.19Q34.28-35.50 35.37-34.19L35.37-34.19L35.37-34.19Q36.45-32.89 36.80-31.84L36.80-31.84L36.80-31.84Q36.80-29.93 36.41-28.14L36.41-28.14L36.41-28.14Q36.02-26.36 35.24-26.36L35.24-26.36L35.24-26.36Q35.15-26.36 34.97-26.27L34.97-26.27L34.97-26.27Q34.80-26.19 34.80-25.84L34.80-25.84L34.80-25.84Q34.80-25.49 34.45-24.93L34.45-24.93L34.45-24.93Q34.10-24.36 33.50-23.84L33.50-23.84L33.50-23.84Q31.58-22.45 30.36-22.45L30.36-22.45L30.36-22.45Q29.41-22.45 29.15-23.40L29.15-23.40L29.15-23.40Q28.97-23.58 28.80-23.93L28.80-23.93L28.80-23.93Q28.62-24.27 28.36-24.27L28.36-24.27L28.36-24.27Q28.28-24.27 28.06-24.58L28.06-24.58L28.06-24.58Q27.84-24.88 27.84-25.40L27.84-25.40L27.84-25.40Q27.84-25.67 28.06-25.97L28.06-25.97L28.06-25.97Q28.28-26.27 28.36-26.36L28.36-26.36L28.36-26.36Q28.88-26.36 30.10-28.41L30.10-28.41L30.10-28.41Q31.32-30.45 31.32-31.15L31.32-31.15L31.32-31.15Q31.32-31.67 31.19-31.76L31.19-31.76L31.19-31.76Q31.06-31.84 30.36-31.84L30.36-31.84L30.36-31.84Q23.58-28.80 21.92-27.23L21.92-27.23L21.92-27.23Q21.66-26.71 21.53-26.54L21.53-26.54L21.53-26.54Q21.40-26.36 21.05-26.36L21.05-26.36L21.05-26.36Q21.05-27.14 16.44-20.45L16.44-20.45L16.44-20.45Q16.27-20.27 16.05-19.40L16.05-19.40L16.05-19.40Q15.83-18.53 15.83-17.92L15.83-17.92L15.83-17.92Q15.66-17.23 15.66-17.14L15.66-17.14L15.66-17.14Q15.66-16.79 15.96-16.44L15.96-16.44L15.96-16.44Q16.27-16.10 16.79-15.70L16.79-15.70L16.79-15.70Q17.31-15.31 17.84-14.88L17.84-14.88L17.84-14.88Q22.36-11.48 24.14-9.79L24.14-9.79L24.14-9.79Q25.93-8.09 26.27-6.96L26.27-6.96L26.27-6.96Q27.41-5.22 27.41-3.83L27.41-3.83L27.41-3.83Q27.41-2.78 26.62-2.00L26.62-2.00L26.62-2.00Q25.84-1.22 24.27-0.52L24.27-0.52L24.27-0.52Q23.32-0.09 21.05 0.22L21.05 0.22L21.05 0.22Q18.79 0.52 16.62 0.52L16.62 0.52L16.62 0.52Q15.40 0.52 14.01 0.35L14.01 0.35ZM41.50-4.70L40.98-4.70L40.98-4.70Q39.67-4.70 38.98-5.31L38.98-5.31L38.98-5.31Q38.28-5.92 38.06-6.26L38.06-6.26L38.06-6.26Q37.84-6.61 37.84-7.13L37.84-7.13L37.84-7.13Q37.84-7.48 38.45-10.35L38.45-10.35L39.24-13.22L39.24-13.22Q40.11-16.79 40.80-19.14L40.80-19.14L40.80-19.14Q41.15-21.32 42.15-23.75L42.15-23.75L42.15-23.75Q43.15-26.19 43.33-26.71L43.33-26.71L43.33-26.71Q44.02-29.23 46.02-34.54L46.02-34.54L48.63-41.59L48.63-41.59Q51.68-49.85 52.29-51.68L52.29-51.68L53.68-55.51L53.68-55.51Q53.68-56.90 55.07-56.90L55.07-56.90L55.07-56.90Q56.29-56.90 57.12-55.55L57.12-55.55L57.12-55.55Q57.94-54.20 57.94-52.46L57.94-52.46L57.94-52.46Q57.94-51.16 57.42-49.94L57.42-49.94L57.42-49.94Q56.20-47.33 54.77-43.37L54.77-43.37L54.77-43.37Q53.33-39.41 52.90-38.19L52.90-38.19L52.90-38.19Q49.94-29.84 48.63-27.06L48.63-27.06L48.63-27.06Q48.63-26.71 48.37-25.84L48.37-25.84L48.37-25.84Q48.11-24.97 47.76-24.27L47.76-24.27L46.81-22.36L46.81-22.36Q46.81-22.10 45.85-18.71L45.85-18.71L45.85-18.71Q44.63-14.96 44.37-13.22L44.37-13.22L44.37-13.22Q44.81-14.01 46.20-15.62L46.20-15.62L46.20-15.62Q47.59-17.23 48.81-18.27L48.81-18.27L48.81-18.27Q53.59-22.36 54.72-23.14L54.72-23.14L54.72-23.14Q55.77-23.75 56.46-24.27L56.46-24.27L56.46-24.27Q57.16-24.80 57.42-24.97L57.42-24.97L57.42-24.97Q57.42-25.40 58.38-25.40L58.38-25.40L58.38-25.40Q58.73-25.40 58.77-25.49L58.77-25.49L58.77-25.49Q58.81-25.58 58.81-25.93L58.81-25.93L58.81-25.93Q58.81-26.54 60.81-27.01L60.81-27.01L60.81-27.01Q62.81-27.49 64.38-27.49L64.38-27.49L64.38-27.49Q65.42-27.49 66.03-27.06L66.03-27.06L66.03-27.06Q66.64-26.62 67.60-25.14L67.60-25.14L67.60-25.14Q69.08-23.06 69.08-20.62L69.08-20.62L69.08-20.62Q69.08-19.23 68.56-17.75L68.56-17.75L68.56-17.75Q68.56-17.05 68.34-15.62L68.34-15.62L68.34-15.62Q68.12-14.18 68.12-13.14L68.12-13.14L67.60-10.35L68.99-10.35L68.99-10.35Q69.60-10.35 70.17-10.18L70.17-10.18L70.17-10.18Q70.73-10.01 70.91-9.92L70.91-9.92L70.91-9.92Q71.69-8.96 72.30-8.96L72.30-8.96L72.30-8.96Q73.08-8.96 73.08-8.35L73.08-8.35L73.08-8.35Q73.08-8.00 72.73-7.48L72.73-7.48L72.73-7.48Q72.38-6.96 71.78-6.61L71.78-6.61L71.78-6.61Q69.51-5.22 67.95-5.22L67.95-5.22L67.95-5.22Q66.47-5.22 64.90-6.61L64.90-6.61L64.90-6.61Q62.99-8.53 62.99-11.22L62.99-11.22L62.99-11.22Q62.99-12.62 63.51-14.53L63.51-14.53L63.77-17.31L63.77-17.31Q63.95-19.40 63.95-19.92L63.95-19.92L63.95-19.92Q63.95-21.92 62.99-21.92L62.99-21.92L62.99-21.92Q61.77-21.92 58.33-19.79L58.33-19.79L58.33-19.79Q54.90-17.66 51.24-14.49L51.24-14.49L51.24-14.49Q47.59-11.31 45.41-8.09L45.41-8.09L45.41-8.09Q44.11-6.44 43.20-5.61L43.20-5.61L43.20-5.61Q42.28-4.79 41.50-4.70L41.50-4.70ZM79.34-3.13L79.34-3.13Q79.08-3.65 78.52-4.22L78.52-4.22L78.52-4.22Q77.95-4.79 77.95-4.96L77.95-4.96L77.95-4.96Q77.95-5.92 77.52-6.44L77.52-6.44L77.52-6.44Q77.34-6.61 77.34-7.22L77.34-7.22L77.34-7.22Q77.34-8.61 78.69-11.96L78.69-11.96L78.69-11.96Q80.04-15.31 82.22-19.23L82.22-19.23L82.22-19.23Q82.74-19.75 83.56-21.05L83.56-21.05L83.56-21.05Q84.39-22.36 84.65-22.53L84.65-22.53L84.65-22.53Q84.65-22.88 84.91-23.19L84.91-23.19L84.91-23.19Q85.17-23.49 85.52-23.49L85.52-23.49L85.52-24.01L85.52-24.01Q85.52-24.80 88.39-27.80L88.39-27.80L88.39-27.80Q91.26-30.80 93.09-31.93L93.09-31.93L93.09-31.93Q95.27-33.41 97.53-33.41L97.53-33.41L97.53-33.41Q99.09-33.41 100.22-32.54L100.22-32.54L100.22-32.54Q100.66-32.02 104.23-28.80L104.23-28.80L107.44-25.93L105.88-21.58L105.88-21.58Q105.10-19.23 105.10-17.31L105.10-17.31L105.10-17.31Q105.10-14.01 107.01-10.96L107.01-10.96L107.01-10.96Q107.44-10.01 108.75-9.14L108.75-9.14L108.75-9.14Q110.06-8.27 111.36-8.09L111.36-8.09L111.36-8.09Q113.27-7.74 113.27-6.18L113.27-6.18L113.27-6.18Q113.27-4.44 111.71-4.09L111.71-4.09L111.71-4.09Q111.36-4.00 110.66-4.00L110.66-4.00L110.66-4.00Q105.53-4.00 101.79-11.22L101.79-11.22L101.79-11.22Q101.44-11.75 100.88-13.14L100.88-13.14L100.88-13.14Q100.31-14.53 100.22-15.05L100.22-15.05L100.22-15.05Q99.70-14.36 98.92-13.40L98.92-13.40L98.92-13.40Q98.14-12.44 97.44-11.75L97.44-11.75L97.44-11.75Q87.96-2.26 82.48-2.26L82.48-2.26L82.48-2.26Q80.74-2.26 79.34-3.13L79.34-3.13ZM82.48-8.00L82.48-8.00Q82.48-7.57 83.39-7.74L83.39-7.74L83.39-7.74Q84.30-7.92 85.65-8.61L85.65-8.61L85.65-8.61Q87-9.31 88.39-10.44L88.39-10.44L88.39-10.44Q95.87-16.88 99.18-21.66L99.18-21.66L101.09-24.80L101.09-24.80Q100.22-26.62 99.27-27.45L99.27-27.45L99.27-27.45Q98.31-28.28 97.53-28.28L97.53-28.28L97.53-28.28Q95.70-28.28 91.78-23.71L91.78-23.71L91.78-23.71Q87.87-19.14 84.65-12.96L84.65-12.96L84.65-12.96Q83.87-11.48 83.26-9.96L83.26-9.96L83.26-9.96Q82.65-8.44 82.48-8.00L82.48-8.00ZM119.89-4.70L119.36-4.70L119.36-4.70Q118.06-4.70 117.36-5.31L117.36-5.31L117.36-5.31Q116.67-5.92 116.45-6.26L116.45-6.26L116.45-6.26Q116.23-6.61 116.23-7.13L116.23-7.13L116.23-7.13Q116.23-7.48 116.84-10.35L116.84-10.35L117.62-13.22L117.62-13.22Q118.49-16.79 119.19-19.14L119.19-19.14L119.19-19.14Q119.54-21.32 120.54-23.75L120.54-23.75L120.54-23.75Q121.54-26.19 121.71-26.71L121.71-26.71L121.71-26.71Q122.41-29.23 124.41-34.54L124.41-34.54L127.02-41.59L127.02-41.59Q130.06-49.85 130.67-51.68L130.67-51.68L132.07-55.51L132.07-55.51Q132.07-56.90 133.46-56.90L133.46-56.90L133.46-56.90Q134.68-56.90 135.50-55.55L135.50-55.55L135.50-55.55Q136.33-54.20 136.33-52.46L136.33-52.46L136.33-52.46Q136.33-51.16 135.81-49.94L135.81-49.94L135.81-49.94Q134.59-47.33 133.15-43.37L133.15-43.37L133.15-43.37Q131.72-39.41 131.28-38.19L131.28-38.19L131.28-38.19Q128.32-29.84 127.02-27.06L127.02-27.06L127.02-27.06Q127.02-26.71 126.76-25.84L126.76-25.84L126.76-25.84Q126.50-24.97 126.15-24.27L126.15-24.27L125.19-22.36L125.19-22.36Q125.19-22.10 124.24-18.71L124.24-18.71L124.24-18.71Q123.02-14.96 122.76-13.22L122.76-13.22L122.76-13.22Q123.19-14.01 124.58-15.62L124.58-15.62L124.58-15.62Q125.98-17.23 127.19-18.27L127.19-18.27L127.19-18.27Q131.98-22.36 133.11-23.14L133.11-23.14L133.11-23.14Q134.15-23.75 134.85-24.27L134.85-24.27L134.85-24.27Q135.55-24.80 135.81-24.97L135.81-24.97L135.81-24.97Q135.81-25.40 136.76-25.40L136.76-25.40L136.76-25.40Q137.11-25.40 137.16-25.49L137.16-25.49L137.16-25.49Q137.20-25.58 137.20-25.93L137.20-25.93L137.20-25.93Q137.20-26.54 139.20-27.01L139.20-27.01L139.20-27.01Q141.20-27.49 142.77-27.49L142.77-27.49L142.77-27.49Q143.81-27.49 144.42-27.06L144.42-27.06L144.42-27.06Q145.03-26.62 145.99-25.14L145.99-25.14L145.99-25.14Q147.47-23.06 147.47-20.62L147.47-20.62L147.47-20.62Q147.47-19.23 146.94-17.75L146.94-17.75L146.94-17.75Q146.94-17.05 146.73-15.62L146.73-15.62L146.73-15.62Q146.51-14.18 146.51-13.14L146.51-13.14L145.99-10.35L147.38-10.35L147.38-10.35Q147.99-10.35 148.55-10.18L148.55-10.18L148.55-10.18Q149.12-10.01 149.29-9.92L149.29-9.92L149.29-9.92Q150.07-8.96 150.68-8.96L150.68-8.96L150.68-8.96Q151.47-8.96 151.47-8.35L151.47-8.35L151.47-8.35Q151.47-8.00 151.12-7.48L151.12-7.48L151.12-7.48Q150.77-6.96 150.16-6.61L150.16-6.61L150.16-6.61Q147.90-5.22 146.33-5.22L146.33-5.22L146.33-5.22Q144.86-5.22 143.29-6.61L143.29-6.61L143.29-6.61Q141.38-8.53 141.38-11.22L141.38-11.22L141.38-11.22Q141.38-12.62 141.90-14.53L141.90-14.53L142.16-17.31L142.16-17.31Q142.33-19.40 142.33-19.92L142.33-19.92L142.33-19.92Q142.33-21.92 141.38-21.92L141.38-21.92L141.38-21.92Q140.16-21.92 136.72-19.79L136.72-19.79L136.72-19.79Q133.28-17.66 129.63-14.49L129.63-14.49L129.63-14.49Q125.98-11.31 123.80-8.09L123.80-8.09L123.80-8.09Q122.50-6.44 121.58-5.61L121.58-5.61L121.58-5.61Q120.67-4.79 119.89-4.70L119.89-4.70ZM179.92 1.65L179.92 1.65Q177.74 2.18 176.96-0.26L176.96-0.26L176.96-0.26Q175.74-3.65 175.74-7.40L175.74-7.40L175.74-7.40Q175.74-8.44 175.83-8.87L175.83-8.87L176.00-10.70L172.61-8.00L172.61-8.00Q169.82-5.57 167.08-4.35L167.08-4.35L167.08-4.35Q164.34-3.13 162.08-3.13L162.08-3.13L162.08-3.13Q160.60-3.39 159.25-4.39L159.25-4.39L159.25-4.39Q157.91-5.39 157.30-6.79L157.30-6.79L157.30-6.79Q156.95-7.48 156.95-8.87L156.95-8.87L156.95-8.87Q156.95-12.09 158.69-16.49L158.69-16.49L158.69-16.49Q160.43-20.88 163.04-23.75L163.04-23.75L163.04-23.75Q166.78-29.41 171.39-29.41L171.39-29.41L171.39-29.41Q173.56-29.41 175.74-28.10L175.74-28.10L175.74-28.10Q177.91-27.23 178.26-27.23L178.26-27.23L178.26-27.23Q178.78-27.23 179.05-27.67L179.05-27.67L179.05-27.67Q179.31-28.10 179.57-29.23L179.57-29.23L179.57-29.23Q180.53-33.23 181.40-35.93L181.40-35.93L181.40-35.93Q183.31-41.67 184.70-45.15L184.70-45.15L184.70-45.15Q186.09-48.63 188.09-52.81L188.09-52.81L188.09-52.81Q188.96-54.64 189.62-55.20L189.62-55.20L189.62-55.20Q190.27-55.77 191.05-55.68L191.05-55.68L191.05-55.68Q192.97-55.68 194.01-53.07L194.01-53.07L194.01-53.07Q194.27-52.46 194.27-51.85L194.27-51.85L194.27-51.85Q194.27-51.24 193.75-50.20L193.75-50.20L193.75-50.20Q191.49-46.28 188.18-37.41L188.18-37.41L188.18-37.41Q184.88-28.54 183.05-22.01L183.05-22.01L183.05-22.01Q182.26-19.14 181.70-13.75L181.70-13.75L181.70-13.75Q181.13-8.35 181.13-4.79L181.13-4.79L181.13-4.79Q181.13-3.22 181.31-2.52L181.31-2.52L181.31-2.52Q181.74-1.04 181.74 0.09L181.74 0.09L181.74 0.09Q181.74 0.96 181.31 1.26L181.31 1.26L181.31 1.26Q180.87 1.57 179.92 1.65L179.92 1.65ZM165.21-8.00L165.21-8.00Q167.21-8.44 170.09-10.61L170.09-10.61L170.09-10.61Q170.61-10.96 172.61-12.44L172.61-12.44L172.61-12.44Q174.61-13.92 175.65-15.57L175.65-15.57L175.65-15.57Q176.70-17.23 177.13-19.31L177.13-19.31L177.13-19.31Q177.22-20.88 176.83-21.88L176.83-21.88L176.83-21.88Q176.44-22.88 175.31-23.84L175.31-23.84L175.31-23.84Q174.44-24.45 173.13-24.45L173.13-24.45L173.13-24.45Q170.78-24.45 168.78-22.53L168.78-22.53L168.78-22.53Q166.43-20.45 164.60-17.14L164.60-17.14L164.60-17.14Q162.78-13.83 161.82-9.48L161.82-9.48L161.82-9.48Q161.56-7.83 163.56-7.83L163.56-7.83L163.56-7.83Q164.60-7.83 165.21-8.00L165.21-8.00ZM209.84 2.35L209.84 2.35Q209.24 2.26 208.45 1.57L208.45 1.57L208.45 1.57Q207.67 0.87 207.67 0.52L207.67 0.52L207.67 0.52Q207.76 0.26 207.67 0.17L207.67 0.17L207.67 0.17Q207.58 0.09 207.32 0.09L207.32 0.09L207.32 0.09Q207.23-0.09 207.10-0.61L207.10-0.61L207.10-0.61Q206.97-1.13 207.06-1.65L207.06-1.65L207.06-1.65Q207.06-2.00 207.15-2.83L207.15-2.83L207.15-2.83Q207.23-3.65 207.23-4.61L207.23-4.61L207.23-4.61Q207.41-6.96 208.76-11.79L208.76-11.79L208.76-11.79Q210.10-16.62 211.58-20.97L211.58-20.97L211.58-20.97Q212.72-23.93 212.72-24.53L212.72-24.53L212.72-24.53Q212.72-25.40 211.50-25.40L211.50-25.40L211.50-25.40Q210.89-25.40 210.45-25.32L210.45-25.32L210.45-25.32Q209.93-25.23 209.06-25.23L209.06-25.23L209.06-25.23Q205.67-25.23 203.28-27.67L203.28-27.67L203.28-27.67Q200.88-30.10 200.88-33.50L200.88-33.50L200.88-33.50Q200.88-35.06 201.32-36.24L201.32-36.24L201.32-36.24Q201.75-37.41 203.06-39.50L203.06-39.50L203.06-39.50Q205.75-43.50 209.32-46.28L209.32-46.28L209.32-46.28Q212.89-49.07 216.28-49.68L216.28-49.68L216.28-49.68Q217.50-49.85 218.54-49.85L218.54-49.85L218.54-49.85Q221.24-49.85 222.55-49.33L222.55-49.33L222.55-49.33Q224.46-48.55 226.11-45.89L226.11-45.89L226.11-45.89Q227.77-43.24 227.33-41.76L227.33-41.76L227.33-41.76Q226.81-39.06 226.03-37.54L226.03-37.54L226.03-37.54Q225.24-36.02 224.03-34.71L224.03-34.71L224.03-34.71Q222.02-32.97 218.98-26.97L218.98-26.97L218.98-26.97Q215.93-20.97 213.76-14.79L213.76-14.79L213.76-14.79Q212.11-10.09 212.11-6.61L212.11-6.61L212.11-6.61Q212.11-5.13 212.54-5.13L212.54-5.13L212.54-5.13Q212.80-5.13 213.50-4.87L213.50-4.87L213.50-4.87Q214.19-4.61 214.37-4.61L214.37-4.61L214.37-4.61Q214.63-4.26 214.63-3.92L214.63-3.92L214.63-3.92Q214.63-3.57 214.19-2.44L214.19-2.44L214.19-2.44Q213.76-1.22 212.11 0.61L212.11 0.61L212.11 0.61Q210.45 2.44 209.84 2.35L209.84 2.35ZM205.93-30.80L205.93-30.80Q206.80-29.84 208.37-29.84L208.37-29.84L208.37-29.84Q210.71-29.84 213.59-31.89L213.59-31.89L213.59-31.89Q216.46-33.93 218.54-37.15L218.54-37.15L220.20-39.32L220.20-39.32Q221.24-40.63 221.42-40.80L221.42-40.80L221.42-40.80Q222.72-42.28 222.72-43.07L222.72-43.07L222.72-43.07Q222.72-43.67 222.20-44.20L222.20-44.20L222.20-44.20Q221.59-45.24 220.20-45.24L220.20-45.24L220.20-45.24Q219.33-45.24 217.24-44.54L217.24-44.54L217.24-44.54Q215.93-44.28 214.76-43.72L214.76-43.72L214.76-43.72Q213.59-43.15 211.67-41.93L211.67-41.93L211.67-41.93Q211.15-41.41 210.28-41.59L210.28-41.59L210.28-41.59Q210.19-41.59 210.06-41.50L210.06-41.50L210.06-41.50Q209.93-41.41 209.93-41.15L209.93-41.15L209.93-41.15Q210.02-41.06 210.02-40.80L210.02-40.80L210.02-40.80Q210.02-40.02 208.89-39.15L208.89-39.15L208.89-39.15Q207.23-37.50 206.36-35.63L206.36-35.63L206.36-35.63Q205.49-33.76 205.49-32.28L205.49-32.28L205.49-32.28Q205.49-31.41 205.93-30.80L205.93-30.80ZM240.99 1.57L240.99 1.57Q239.08 1.22 237.86-1.74L237.86-1.74L237.86-1.74Q237.25-4.61 243.95-17.23L243.95-17.23L243.95-17.23Q245.86-20.27 245.86-20.88L245.86-20.88L245.86-20.88Q245.86-21.23 245.38-21.32L245.38-21.32L245.38-21.32Q244.91-21.40 244.12-21.40L244.12-21.40L244.12-21.40Q243.69-21.49 242.47-21.75L242.47-21.75L242.47-21.75Q241.25-22.01 240.99-22.36L240.99-22.36L240.99-22.36Q239.34-23.23 239.34-24.19L239.34-24.19L239.34-24.19Q239.34-24.71 239.95-24.80L239.95-24.80L239.95-24.80Q240.82-24.97 240.82-25.32L240.82-25.32L240.82-25.32Q240.82-25.58 239.77-25.93L239.77-25.93L240.73-25.75L245.08-25.67L245.08-25.67Q246.65-25.67 247.34-25.58L247.34-25.58L247.34-25.58Q247.60-25.49 248.04-25.49L248.04-25.49L248.04-25.49Q248.65-25.49 248.99-25.80L248.99-25.80L248.99-25.80Q249.34-26.10 249.86-26.75L249.86-26.75L249.86-26.75Q250.39-27.41 250.65-27.75L250.65-27.75L252.30-30.36L252.30-30.36Q254.04-32.80 255.43-35.24L255.43-35.24L255.43-35.24Q260.13-41.93 260.13-43.76L260.13-43.76L260.13-43.76Q260.13-44.98 258.39-44.98L258.39-44.98L258.39-44.98Q257.00-44.98 255.30-44.50L255.30-44.50L255.30-44.50Q253.61-44.02 249.95-42.63L249.95-42.63L249.95-42.63Q248.04-41.85 246.60-41.33L246.60-41.33L246.60-41.33Q245.17-40.80 244.47-40.80L244.47-40.80L244.47-40.80Q243.69-40.80 243.25-41.15L243.25-41.15L243.25-41.15Q242.64-41.24 242.34-41.85L242.34-41.85L242.34-41.85Q242.03-42.46 242.03-43.24L242.03-43.24L242.03-43.24Q242.03-43.85 242.12-44.11L242.12-44.11L242.12-44.11Q242.47-45.68 253.52-48.46L253.52-48.46L253.52-48.46Q256.30-48.89 258.30-48.89L258.30-48.89L258.30-48.89Q261.61-48.89 262.22-47.76L262.22-47.76L262.22-47.76Q262.31-47.68 262.48-47.55L262.48-47.55L262.48-47.55Q262.65-47.42 262.74-47.68L262.74-47.68L262.74-47.68Q263.00-47.59 263.31-46.94L263.31-46.94L263.31-46.94Q263.61-46.28 263.96-45.59L263.96-45.59L263.96-45.59Q264.13-45.24 264.65-44.28L264.65-44.28L264.65-44.28Q265.18-43.33 265.18-42.63L265.18-42.63L265.18-42.63Q265.18-42.28 265.00-41.41L265.00-41.41L265.00-41.41Q264.74-40.54 264.13-39.59L264.13-39.59L264.13-39.59Q263.52-38.63 263.18-38.28L263.18-38.28L263.18-38.28Q262.83-37.93 262.61-37.54L262.61-37.54L262.61-37.54Q262.39-37.15 262.31-37.06L262.31-37.06L262.31-37.06Q262.22-36.80 261.74-36.41L261.74-36.41L261.74-36.41Q261.26-36.02 260.91-35.58L260.91-35.58L260.91-35.58Q260.83-35.32 260.52-34.84L260.52-34.84L260.52-34.84Q260.22-34.37 260.13-34.10L260.13-34.10L255.34-26.88L255.34-26.88Q254.13-25.75 254.13-25.23L254.13-25.23L254.13-25.23Q254.13-24.71 255.26-24.19L255.26-24.19L255.26-24.19Q258.30-22.79 259.00-20.71L259.00-20.71L259.00-19.92L259.00-19.92Q259.00-18.97 258.56-18.71L258.56-18.71L258.56-18.71Q258.22-18.18 257.35-18.18L257.35-18.18L257.35-18.18Q256.30-18.18 256.04-18.62L256.04-18.62L256.04-18.62Q255.69-19.31 254.08-19.97L254.08-19.97L254.08-19.97Q252.47-20.62 251.95-20.62L251.95-20.62L251.95-20.62Q251.52-20.36 250.47-18.97L250.47-18.97L250.47-18.97Q249.78-18.01 247.60-13.66L247.60-13.66L245.34-9.57L245.34-9.57Q245.25-9.31 244.86-8.70L244.86-8.70L244.86-8.70Q244.47-8.09 244.30-7.66L244.30-7.66L244.30-7.66Q243.95-7.05 243.69-5.83L243.69-5.83L243.69-5.83Q243.43-4.61 243.43-3.65L243.43-3.65L243.43-3.65Q243.43-2.78 243.69-2.78L243.69-2.78L243.69-2.78Q243.86-2.87 244.12-2.87L244.12-2.87L244.12-2.87Q244.91-2.87 245.17-1.65L245.17-1.65L245.17-1.65Q245.60-1.04 244.91-0.17L244.91-0.17L244.91-0.17Q244.21 0.70 243.08 1.22L243.08 1.22L243.08 1.22Q241.95 1.74 240.99 1.57L240.99 1.57ZM274.92 0.35L274.92 0.35Q273.35-0.26 271.88-1.44L271.88-1.44L271.88-1.44Q270.40-2.61 269.87-3.48L269.87-3.48L269.87-3.48Q269.87-3.65 269.87-4.09L269.87-4.09L269.87-4.09Q269.87-4.52 270.13-4.65L270.13-4.65L270.13-4.65Q270.40-4.79 271.09-4.79L271.09-4.79L271.09-4.79Q272.57-4.79 275.79-4.44L275.79-4.44L275.79-4.44Q277.70-4.44 280.14-4.92L280.14-4.92L280.14-4.92Q282.58-5.39 282.84-6.00L282.84-6.00L282.84-6.00Q283.10-6.00 283.10-6.09L283.10-6.09L283.10-6.09Q283.10-6.26 282.40-6.96L282.40-6.96L282.40-6.96Q282.23-6.96 281.62-7.26L281.62-7.26L281.62-7.26Q281.01-7.57 280.84-7.57L280.84-7.57L280.84-7.57Q280.84-7.92 280.05-8.48L280.05-8.48L280.05-8.48Q279.27-9.05 278.31-9.48L278.31-9.48L278.31-9.48Q275.79-11.57 274.75-12.57L274.75-12.57L274.75-12.57Q273.70-13.57 273.96-14.01L273.96-14.01L273.96-14.44L273.96-14.44Q273.35-14.44 272.61-16.14L272.61-16.14L272.61-16.14Q271.88-17.84 271.88-19.31L271.88-19.31L271.88-19.31Q271.88-20.88 273.22-23.66L273.22-23.66L273.22-23.66Q274.57-26.45 276.31-28.19L276.31-28.19L276.31-28.19Q278.75-30.45 282.62-32.97L282.62-32.97L282.62-32.97Q286.49-35.50 288.75-36.19L288.75-36.19L288.75-36.19Q290.23-36.80 291.71-36.80L291.71-36.80L291.71-36.80Q293.10-36.80 294.06-36.19L294.06-36.19L294.06-36.19Q295.19-35.50 296.28-34.19L296.28-34.19L296.28-34.19Q297.37-32.89 297.71-31.84L297.71-31.84L297.71-31.84Q297.71-29.93 297.32-28.14L297.32-28.14L297.32-28.14Q296.93-26.36 296.15-26.36L296.15-26.36L296.15-26.36Q296.06-26.36 295.89-26.27L295.89-26.27L295.89-26.27Q295.71-26.19 295.71-25.84L295.71-25.84L295.71-25.84Q295.71-25.49 295.37-24.93L295.37-24.93L295.37-24.93Q295.02-24.36 294.41-23.84L294.41-23.84L294.41-23.84Q292.49-22.45 291.28-22.45L291.28-22.45L291.28-22.45Q290.32-22.45 290.06-23.40L290.06-23.40L290.06-23.40Q289.88-23.58 289.71-23.93L289.71-23.93L289.71-23.93Q289.54-24.27 289.28-24.27L289.28-24.27L289.28-24.27Q289.19-24.27 288.97-24.58L288.97-24.58L288.97-24.58Q288.75-24.88 288.75-25.40L288.75-25.40L288.75-25.40Q288.75-25.67 288.97-25.97L288.97-25.97L288.97-25.97Q289.19-26.27 289.28-26.36L289.28-26.36L289.28-26.36Q289.80-26.36 291.01-28.41L291.01-28.41L291.01-28.41Q292.23-30.45 292.23-31.15L292.23-31.15L292.23-31.15Q292.23-31.67 292.10-31.76L292.10-31.76L292.10-31.76Q291.97-31.84 291.28-31.84L291.28-31.84L291.28-31.84Q284.49-28.80 282.84-27.23L282.84-27.23L282.84-27.23Q282.58-26.71 282.45-26.54L282.45-26.54L282.45-26.54Q282.31-26.36 281.97-26.36L281.97-26.36L281.97-26.36Q281.97-27.14 277.36-20.45L277.36-20.45L277.36-20.45Q277.18-20.27 276.96-19.40L276.96-19.40L276.96-19.40Q276.75-18.53 276.75-17.92L276.75-17.92L276.75-17.92Q276.57-17.23 276.57-17.14L276.57-17.14L276.57-17.14Q276.57-16.79 276.88-16.44L276.88-16.44L276.88-16.44Q277.18-16.10 277.70-15.70L277.70-15.70L277.70-15.70Q278.23-15.31 278.75-14.88L278.75-14.88L278.75-14.88Q283.27-11.48 285.06-9.79L285.06-9.79L285.06-9.79Q286.84-8.09 287.19-6.96L287.19-6.96L287.19-6.96Q288.32-5.22 288.32-3.83L288.32-3.83L288.32-3.83Q288.32-2.78 287.54-2.00L287.54-2.00L287.54-2.00Q286.75-1.22 285.19-0.52L285.19-0.52L285.19-0.52Q284.23-0.09 281.97 0.22L281.97 0.22L281.97 0.22Q279.71 0.52 277.53 0.52L277.53 0.52L277.53 0.52Q276.31 0.52 274.92 0.35L274.92 0.35ZM302.41-4.70L301.89-4.70L301.89-4.70Q300.59-4.70 299.89-5.31L299.89-5.31L299.89-5.31Q299.19-5.92 298.98-6.26L298.98-6.26L298.98-6.26Q298.76-6.61 298.76-7.13L298.76-7.13L298.76-7.13Q298.76-7.48 299.37-10.35L299.37-10.35L300.15-13.22L300.15-13.22Q301.02-16.79 301.72-19.14L301.72-19.14L301.72-19.14Q302.06-21.32 303.06-23.75L303.06-23.75L303.06-23.75Q304.07-26.19 304.24-26.71L304.24-26.71L304.24-26.71Q304.94-29.23 306.94-34.54L306.94-34.54L309.55-41.59L309.55-41.59Q312.59-49.85 313.20-51.68L313.20-51.68L314.59-55.51L314.59-55.51Q314.59-56.90 315.98-56.90L315.98-56.90L315.98-56.90Q317.20-56.90 318.03-55.55L318.03-55.55L318.03-55.55Q318.86-54.20 318.86-52.46L318.86-52.46L318.86-52.46Q318.86-51.16 318.33-49.94L318.33-49.94L318.33-49.94Q317.12-47.33 315.68-43.37L315.68-43.37L315.68-43.37Q314.24-39.41 313.81-38.19L313.81-38.19L313.81-38.19Q310.85-29.84 309.55-27.06L309.55-27.06L309.55-27.06Q309.55-26.71 309.29-25.84L309.29-25.84L309.29-25.84Q309.02-24.97 308.68-24.27L308.68-24.27L307.72-22.36L307.72-22.36Q307.72-22.10 306.76-18.71L306.76-18.71L306.76-18.71Q305.54-14.96 305.28-13.22L305.28-13.22L305.28-13.22Q305.72-14.01 307.11-15.62L307.11-15.62L307.11-15.62Q308.50-17.23 309.72-18.27L309.72-18.27L309.72-18.27Q314.51-22.36 315.64-23.14L315.64-23.14L315.64-23.14Q316.68-23.75 317.38-24.27L317.38-24.27L317.38-24.27Q318.07-24.80 318.33-24.97L318.33-24.97L318.33-24.97Q318.33-25.40 319.29-25.40L319.29-25.40L319.29-25.40Q319.64-25.40 319.68-25.49L319.68-25.49L319.68-25.49Q319.73-25.58 319.73-25.93L319.73-25.93L319.73-25.93Q319.73-26.54 321.73-27.01L321.73-27.01L321.73-27.01Q323.73-27.49 325.29-27.49L325.29-27.49L325.29-27.49Q326.34-27.49 326.95-27.06L326.95-27.06L326.95-27.06Q327.56-26.62 328.51-25.14L328.51-25.14L328.51-25.14Q329.99-23.06 329.99-20.62L329.99-20.62L329.99-20.62Q329.99-19.23 329.47-17.75L329.47-17.75L329.47-17.75Q329.47-17.05 329.25-15.62L329.25-15.62L329.25-15.62Q329.03-14.18 329.03-13.14L329.03-13.14L328.51-10.35L329.90-10.35L329.90-10.35Q330.51-10.35 331.08-10.18L331.08-10.18L331.08-10.18Q331.64-10.01 331.82-9.92L331.82-9.92L331.82-9.92Q332.60-8.96 333.21-8.96L333.21-8.96L333.21-8.96Q333.99-8.96 333.99-8.35L333.99-8.35L333.99-8.35Q333.99-8.00 333.65-7.48L333.65-7.48L333.65-7.48Q333.30-6.96 332.69-6.61L332.69-6.61L332.69-6.61Q330.43-5.22 328.86-5.22L328.86-5.22L328.86-5.22Q327.38-5.22 325.82-6.61L325.82-6.61L325.82-6.61Q323.90-8.53 323.90-11.22L323.90-11.22L323.90-11.22Q323.90-12.62 324.42-14.53L324.42-14.53L324.68-17.31L324.68-17.31Q324.86-19.40 324.86-19.92L324.86-19.92L324.86-19.92Q324.86-21.92 323.90-21.92L323.90-21.92L323.90-21.92Q322.68-21.92 319.25-19.79L319.25-19.79L319.25-19.79Q315.81-17.66 312.16-14.49L312.16-14.49L312.16-14.49Q308.50-11.31 306.33-8.09L306.33-8.09L306.33-8.09Q305.02-6.44 304.11-5.61L304.11-5.61L304.11-5.61Q303.20-4.79 302.41-4.70L302.41-4.70ZM345.65-1.31L345.65-1.31Q344.61-1.31 344.00-1.65L344.00-1.65L344.00-1.65Q343.39-2.00 342.26-2.96L342.26-2.96L342.26-2.96Q339.39-6.00 339.39-8.53L339.39-8.53L339.39-8.53Q339.39-9.14 339.47-9.40L339.47-9.40L339.47-9.40Q339.74-10.01 339.69-10.61L339.69-10.61L339.69-10.61Q339.65-11.22 339.65-11.40L339.65-11.40L339.65-11.40Q339.30-11.75 339.30-11.88L339.30-11.88L339.30-11.88Q339.30-12.01 339.47-12.14L339.47-12.14L339.47-12.14Q339.65-12.27 339.74-12.44L339.74-12.44L339.74-12.44Q340.26-12.44 340.08-13.40L340.08-13.40L340.08-13.40Q339.91-14.09 340.78-16.49L340.78-16.49L340.78-16.49Q341.65-18.88 342.95-20.88L342.95-20.88L342.95-20.88Q343.91-22.45 345.78-24.80L345.78-24.80L345.78-24.80Q347.65-27.14 349.13-28.36L349.13-28.36L349.13-28.36Q351.22-30.19 352.87-31.06L352.87-31.06L352.87-31.06Q354.53-31.93 356.53-32.36L356.53-32.36L356.53-32.36Q358.27-32.80 358.88-32.80L358.88-32.80L358.88-32.80Q359.48-32.80 359.96-32.49L359.96-32.49L359.96-32.49Q360.44-32.19 361.22-31.41L361.22-31.41L361.22-31.41Q363.57-30.36 364.49-28.75L364.49-28.75L364.49-28.75Q365.40-27.14 365.40-23.75L365.40-23.75L365.40-23.75Q365.40-18.10 360.79-11.48L360.79-11.48L360.79-11.48Q358.79-8.61 357.05-7.09L357.05-7.09L357.05-7.09Q355.31-5.57 352.44-3.83L352.44-3.83L352.44-3.83Q350.61-2.52 349.09-1.96L349.09-1.96L349.09-1.96Q347.57-1.39 345.65-1.31L345.65-1.31ZM354.00-10.53L354.00-10.53Q356.09-12.88 357.35-14.96L357.35-14.96L357.35-14.96Q358.61-17.05 359.75-20.27L359.75-20.27L359.75-20.27Q360.18-21.75 360.18-23.84L360.18-23.84L360.18-23.84Q360.18-26.45 359.48-26.80L359.48-26.80L359.48-26.80Q358.61-27.23 357.74-27.23L357.74-27.23L357.74-27.23Q355.83-27.23 353.74-25.49L353.74-25.49L353.74-25.49Q351.22-23.32 349.22-20.14L349.22-20.14L349.22-20.14Q347.22-16.96 345.13-12.27L345.13-12.27L345.13-12.27Q344.26-10.44 344.26-8.70L344.26-8.70L344.26-8.70Q344.26-7.40 344.91-6.61L344.91-6.61L344.91-6.61Q345.56-5.83 346.70-5.83L346.70-5.83L346.70-5.83Q349.57-5.83 354.00-10.53L354.00-10.53ZM366.97 19.49L366.27 19.58L366.27 19.58Q365.57 19.58 365.14 18.79L365.14 18.79L365.14 18.79Q364.70 18.18 364.70 17.31L364.70 17.31L364.70 17.31Q364.70 16.70 365.14 14.36L365.14 14.36L365.14 14.36Q366.10 10.70 366.10 9.31L366.10 9.31L366.10 9.31Q366.10 8.87 366.27 8.05L366.27 8.05L366.27 8.05Q366.44 7.22 366.53 6.53L366.53 6.53L366.53 6.53Q366.88 5.92 367.18 4.65L367.18 4.65L367.18 4.65Q367.49 3.39 367.49 2.44L367.49 2.44L367.49 2.44Q367.49 2.00 367.79 1.44L367.79 1.44L367.79 1.44Q368.10 0.87 368.53 0.52L368.53 0.52L368.53 0.52Q368.53 0 368.79-1.09L368.79-1.09L368.79-1.09Q369.05-2.18 369.14-2.61L369.14-2.61L369.14-2.61Q369.58-4.96 372.53-13.75L372.53-13.75L372.53-13.75Q375.49-22.53 377.58-27.93L377.58-27.93L377.58-27.93Q378.54-30.10 378.97-31.93L378.97-31.93L378.97-31.93Q379.41-33.76 379.41-34.80L379.41-34.80L379.41-34.80Q379.41-35.15 379.62-35.45L379.62-35.45L379.62-35.45Q379.84-35.76 380.36-36.28L380.36-36.28L380.36-36.28Q380.97-36.89 381.50-36.89L381.50-36.89L381.50-36.89Q381.93-36.89 382.45-36.54L382.45-36.54L382.45-36.54Q382.97-36.19 383.50-35.76L383.50-35.76L383.50-35.76Q384.02-34.97 384.32-34.28L384.32-34.28L384.32-34.28Q384.63-33.58 384.63-32.80L384.63-32.80L384.63-32.80Q384.63-32.54 384.45-31.15L384.45-31.15L384.45-31.15Q384.45-29.32 383.67-28.14L383.67-28.14L383.67-28.14Q382.89-26.97 383.06-27.06L383.06-27.06L383.06-27.06Q386.98-28.88 390.02-28.88L390.02-28.88L390.02-28.88Q393.68-28.88 395.72-26.54L395.72-26.54L395.72-26.54Q397.76-24.19 397.76-20.45L397.76-20.45L397.76-20.45Q397.76-18.88 396.85-16.66L396.85-16.66L396.85-16.66Q395.94-14.44 395.07-13.66L395.07-13.66L395.07-13.66Q394.55-13.66 393.68-11.83L393.68-11.83L393.68-11.83Q392.54-10.44 389.93-8.92L389.93-8.92L389.93-8.92Q387.32-7.40 386.28-7.74L386.28-7.74L386.28-7.74Q386.19-7.74 386.02-7.66L386.02-7.66L386.02-7.66Q385.85-7.57 385.85-7.22L385.85-7.22L385.85-7.22Q385.85-6.87 382.89-5.92L382.89-5.92L382.89-5.92Q379.93-4.96 378.02-4.96L378.02-4.96L378.02-4.96Q376.97-4.96 376.45-5.09L376.45-5.09L376.45-5.09Q375.93-5.22 375.41-5.66L375.41-5.66L375.41-5.66Q374.80-5.05 374.80-4.52L374.80-4.52L374.80-4.52Q374.80-3.57 373.93-1.04L373.93-1.04L373.93-1.04Q373.06 1.48 372.53 1.48L372.53 1.48L372.53 1.48Q372.45 1.57 372.32 1.83L372.32 1.83L372.32 1.83Q372.19 2.09 372.53 2.44L372.53 2.44L372.53 2.44Q372.53 2.70 372.45 3.65L372.45 3.65L372.45 3.65Q372.36 4.61 372.01 5.13L372.01 5.13L372.01 5.13Q372.01 5.92 371.75 7.26L371.75 7.26L371.75 7.26Q371.49 8.61 371.14 9.31L371.14 9.31L371.14 9.31Q371.14 10.35 370.84 11.35L370.84 11.35L370.84 11.35Q370.53 12.35 370.19 12.35L370.19 12.35L370.19 12.35Q369.66 12.53 369.66 14.88L369.66 14.88L369.66 14.88Q369.58 17.05 368.79 18.27L368.79 18.27L368.79 18.27Q368.01 19.49 366.97 19.49L366.97 19.49ZM377.49-9.57L377.49-9.57Q378.80-9.57 382.76-10.92L382.76-10.92L382.76-10.92Q386.72-12.27 388.28-13.57L388.28-13.57L388.28-13.57Q390.11-15.14 391.24-16.92L391.24-16.92L391.24-16.92Q392.37-18.71 392.37-20.53L392.37-20.53L392.37-20.53Q392.37-21.92 391.59-23.06L391.59-23.06L391.59-23.06Q390.98-24.01 389.50-24.01L389.50-24.01L389.50-24.01Q387.76-24.01 385.37-22.79L385.37-22.79L385.37-22.79Q382.97-21.58 380.97-19.58L380.97-19.58L380.97-19.58Q379.41-18.01 378.19-15.09L378.19-15.09L378.19-15.09Q376.97-12.18 376.97-10.53L376.97-10.53L376.97-10.53Q376.97-9.57 377.49-9.57L377.49-9.57Z" fill="url(#editing-shiny-gradient2)"></path></g></g><style>text {
  font-size: 64px;
  font-family: Arial Black;
  dominant-baseline: central;
  text-anchor: middle;
}</style></svg>