<svg width="496.3100219726562px" height="180.32000732421875px" xmlns="http://www.w3.org/2000/svg" viewBox="1.844989013671892 -15.160003662109375 496.3100219726562 180.32000732421875" style="background: rgb(253, 253, 253);" preserveAspectRatio="xMidYMid"><defs><linearGradient id="editing-outline-gradient" x1="1.3910065241883678" x2="-0.3910065241883678" y1="0.04600950026045314" y2="0.9539904997395469"><stop offset="0" stop-color="#ff77f6"></stop><stop offset="1" stop-color="#bbcedd"></stop></linearGradient><filter id="editing-outline" x="-100%" y="-100%" width="300%" height="300%"><feMorphology in="SourceGraphic" operator="dilate" radius="3" result="outline"></feMorphology><feComposite operator="out" in="outline" in2="SourceAlpha"></feComposite></filter></defs><g filter="url(#editing-outline)"><g transform="translate(75.27001094818115, 115.00000190734863)"><path d="M1.31-8.56L1.31-8.56L1.31-8.56Q1.25-8.75 1.25-9.41L1.25-9.41L1.25-9.41Q1.25-10.06 1.25-10.31L1.25-10.31L1.25-10.31Q1.25-10.50 1.22-10.91L1.22-10.91L1.22-10.91Q1.19-11.31 1.25-11.69L1.25-11.69L1.25-11.69Q1.31-12.06 1.50-12.38L1.50-12.38L1.50-12.38Q1.69-12.69 2.13-12.81L2.13-12.81L2.13-12.81Q2.06-11.56 2.69-10.38L2.69-10.38L2.69-10.38Q3.31-9.19 4.31-8.03L4.31-8.03L4.31-8.03Q5.31-6.88 6.59-5.84L6.59-5.84L6.59-5.84Q7.88-4.81 9.28-4.09L9.28-4.09L9.28-4.09Q10.69-3.38 12.03-2.94L12.03-2.94L12.03-2.94Q13.38-2.50 14.56-2.50L14.56-2.50L14.56-2.50Q16.75-2.50 19-3.25L19-3.25L19-3.25Q21.25-4 23.03-5.34L23.03-5.34L23.03-5.34Q24.81-6.69 25.94-8.63L25.94-8.63L25.94-8.63Q27.06-10.56 27.06-13L27.06-13L27.06-13Q27.06-14.50 26.16-15.53L26.16-15.53L26.16-15.53Q25.25-16.56 23.78-17.34L23.78-17.34L23.78-17.34Q22.31-18.13 20.47-18.66L20.47-18.66L20.47-18.66Q18.63-19.19 16.66-19.69L16.66-19.69L16.66-19.69Q14.69-20.19 12.81-20.75L12.81-20.75L12.81-20.75Q10.94-21.31 9.47-22.09L9.47-22.09L9.47-22.09Q8-22.88 7.13-23.94L7.13-23.94L7.13-23.94Q6.25-25 6.25-26.63L6.25-26.63L6.25-26.63Q6.25-28.06 6.91-29.16L6.91-29.16L6.91-29.16Q7.56-30.25 8.66-31.13L8.66-31.13L8.66-31.13Q9.75-32 11.16-32.59L11.16-32.59L11.16-32.59Q12.56-33.19 14-33.59L14-33.59L14-33.59Q15.44-34 16.84-34.16L16.84-34.16L16.84-34.16Q18.25-34.31 19.38-34.31L19.38-34.31L19.38-34.31Q20.81-34.31 21.91-34.28L21.91-34.28L21.91-34.28Q23-34.25 23.94-33.94L23.94-33.94L23.94-33.94Q24.88-33.63 25.63-32.94L25.63-32.94L25.63-32.94Q26.38-32.25 26.94-30.75L26.94-30.75L26.94-30.75Q26.69-30.25 26.41-30.09L26.41-30.09L26.41-30.09Q26.13-29.94 25.63-29.94L25.63-29.94L25.63-29.94Q24.94-29.94 24.47-30.47L24.47-30.47L24.47-30.47Q24-31 23.50-31.69L23.50-31.69L23.50-31.69Q23.31-31.69 22.75-31.72L22.75-31.72L22.75-31.72Q22.19-31.75 21.59-31.75L21.59-31.75L21.59-31.75Q21-31.75 20.47-31.75L20.47-31.75L20.47-31.75Q19.94-31.75 19.69-31.75L19.69-31.75L19.69-31.75Q18.94-31.75 17.84-31.69L17.84-31.69L17.84-31.69Q16.75-31.63 15.53-31.44L15.53-31.44L15.53-31.44Q14.31-31.25 13.16-30.88L13.16-30.88L13.16-30.88Q12-30.50 11.03-29.94L11.03-29.94L11.03-29.94Q10.06-29.38 9.47-28.53L9.47-28.53L9.47-28.53Q8.88-27.69 8.88-26.56L8.88-26.56L8.88-26.56Q8.88-25.56 9.28-25L9.28-25L9.28-25Q9.69-24.44 10.69-23.88L10.69-23.88L10.69-23.88Q11.13-23.88 12-23.59L12-23.59L12-23.59Q12.88-23.31 13.97-23L13.97-23L13.97-23Q15.06-22.69 16.28-22.34L16.28-22.34L16.28-22.34Q17.50-22 18.59-21.63L18.59-21.63L18.59-21.63Q19.69-21.25 20.53-20.94L20.53-20.94L20.53-20.94Q21.38-20.63 21.81-20.50L21.81-20.50L21.81-20.50Q23.31-19.94 24.88-19.38L24.88-19.38L24.88-19.38Q26.44-18.81 27.69-17.97L27.69-17.97L27.69-17.97Q28.94-17.13 29.69-15.91L29.69-15.91L29.69-15.91Q30.44-14.69 30.44-12.81L30.44-12.81L30.44-12.81Q30.44-10 28.94-7.66L28.94-7.66L28.94-7.66Q27.44-5.31 25.16-3.59L25.16-3.59L25.16-3.59Q22.88-1.88 20.16-0.91L20.16-0.91L20.16-0.91Q17.44 0.06 14.88 0.06L14.88 0.06L14.88 0.06Q12.63 0.06 10.69-0.59L10.69-0.59L10.69-0.59Q8.75-1.25 7.09-2.44L7.09-2.44L7.09-2.44Q5.44-3.63 4-5.16L4-5.16L4-5.16Q2.56-6.69 1.31-8.56ZM55.25-8.56L55.25-8.56L55.25-8.56Q55.13-9.06 54.97-10.13L54.97-10.13L54.97-10.13Q54.81-11.19 54.56-12.53L54.56-12.53L54.56-12.53Q54.31-13.88 54.03-15.38L54.03-15.38L54.03-15.38Q53.75-16.88 53.47-18.22L53.47-18.22L53.47-18.22Q53.19-19.56 52.97-20.63L52.97-20.63L52.97-20.63Q52.75-21.69 52.63-22.19L52.63-22.19L52.63-22.19Q52.44-23.31 52.16-24.22L52.16-24.22L52.16-24.22Q51.88-25.13 51.34-25.84L51.34-25.84L51.34-25.84Q50.81-26.56 50.03-26.97L50.03-26.97L50.03-26.97Q49.25-27.38 48-27.38L48-27.38L48-27.38Q47.06-27.38 46.03-26.69L46.03-26.69L46.03-26.69Q45-26 44.06-25.09L44.06-25.09L44.06-25.09Q43.13-24.19 42.44-23.34L42.44-23.34L42.44-23.34Q41.75-22.50 41.50-22.19L41.50-22.19L41.50-22.19Q39.94-20.50 39.13-17.88L39.13-17.88L39.13-17.88Q38.31-15.25 37.91-12.38L37.91-12.38L37.91-12.38Q37.50-9.50 37.44-6.72L37.44-6.72L37.44-6.72Q37.38-3.94 37.25-1.75L37.25-1.75L34.69-0.81L34.69-40.19L34.69-40.19Q34.69-40.50 34.78-41.34L34.78-41.34L34.78-41.34Q34.88-42.19 35.03-43.16L35.03-43.16L35.03-43.16Q35.19-44.13 35.34-44.97L35.34-44.97L35.34-44.97Q35.50-45.81 35.56-46.19L35.56-46.19L35.56-46.19Q35.63-46.38 35.94-46.66L35.94-46.66L35.94-46.66Q36.25-46.94 36.38-47L36.38-47L37.25-46.19L39-24.81L39.81-24.81L39.81-24.81Q40.63-25.56 41.69-26.44L41.69-26.44L41.69-26.44Q42.75-27.31 44-28.13L44-28.13L44-28.13Q45.25-28.94 46.59-29.44L46.59-29.44L46.59-29.44Q47.94-29.94 49.25-29.94L49.25-29.94L49.25-29.94Q51.56-29.94 52.94-28.81L52.94-28.81L52.94-28.81Q54.31-27.69 55.16-25.78L55.16-25.78L55.16-25.78Q56-23.88 56.41-21.50L56.41-21.50L56.41-21.50Q56.81-19.13 57.25-16.63L57.25-16.63L57.25-16.63Q57.69-14.13 58.22-11.72L58.22-11.72L58.22-11.72Q58.75-9.31 59.78-7.47L59.78-7.47L59.78-7.47Q60.81-5.63 62.53-4.47L62.53-4.47L62.53-4.47Q64.25-3.31 66.94-3.31L66.94-3.31L66.94-3.31Q68.31-3.31 69.31-3.38L69.31-3.38L69.31-3.38Q70.31-3.44 71.31-3.69L71.31-3.69L71.31-3.69Q72.31-3.94 73.34-4.47L73.34-4.47L73.34-4.47Q74.38-5 75.69-5.94L75.69-5.94L75.75-5.81L75.75-5.81Q75.75-5.63 75.75-5.56L75.75-5.56L75.75-5.56Q75.75-4.56 74.59-3.53L74.59-3.53L74.59-3.53Q73.44-2.50 71.84-1.69L71.84-1.69L71.84-1.69Q70.25-0.88 68.59-0.38L68.59-0.38L68.59-0.38Q66.94 0.13 65.88 0.13L65.88 0.13L65.88 0.13Q63.81 0.13 62.25-0.63L62.25-0.63L62.25-0.63Q60.69-1.38 59.44-2.63L59.44-2.63L59.44-2.63Q58.19-3.88 57.16-5.44L57.16-5.44L57.16-5.44Q56.13-7 55.25-8.56ZM70.88-6.94L70.88-6.94L70.88-6.94Q70.88-9.31 71.47-12L71.47-12L71.47-12Q72.06-14.69 73.13-17.28L73.13-17.28L73.13-17.28Q74.19-19.88 75.72-22.19L75.72-22.19L75.72-22.19Q77.25-24.50 79.06-26.28L79.06-26.28L79.06-26.28Q80.88-28.06 83-29.13L83-29.13L83-29.13Q85.13-30.19 87.44-30.19L87.44-30.19L87.44-30.19Q87.94-30.19 88.91-29.97L88.91-29.97L88.91-29.97Q89.88-29.75 90.88-29.41L90.88-29.41L90.88-29.41Q91.88-29.06 92.63-28.56L92.63-28.56L92.63-28.56Q93.38-28.06 93.38-27.56L93.38-27.56L82.56-26.19L82.56-26.19Q81.38-26.19 80.31-25.03L80.31-25.03L80.31-25.03Q79.25-23.88 78.34-22.09L78.34-22.09L78.34-22.09Q77.44-20.31 76.72-18.09L76.72-18.09L76.72-18.09Q76-15.88 75.47-13.75L75.47-13.75L75.47-13.75Q74.94-11.63 74.66-9.88L74.66-9.88L74.66-9.88Q74.38-8.13 74.38-7.25L74.38-7.25L74.38-6.63L74.38-6.63Q74.38-6.25 74.41-5.78L74.41-5.78L74.41-5.78Q74.44-5.31 74.44-4.81L74.44-4.81L74.44-4.25L74.44-4.25Q74.44-4.13 74.69-3.88L74.69-3.88L75.75-2.88L75.75-2.88Q76-2.56 76.13-2.50L76.13-2.50L76.13-2.50Q76.19-2.50 76.31-2.50L76.31-2.50L76.50-2.50L76.50-2.50Q77.94-2.50 79.28-3.25L79.28-3.25L79.28-3.25Q80.63-4 81.78-5.06L81.78-5.06L81.78-5.06Q82.94-6.13 83.91-7.34L83.91-7.34L83.91-7.34Q84.88-8.56 85.56-9.38L85.56-9.38L85.56-9.38Q85.94-9.81 86.16-11.28L86.16-11.28L86.16-11.28Q86.38-12.75 86.59-14.66L86.59-14.66L86.59-14.66Q86.81-16.56 87.06-18.72L87.06-18.72L87.06-18.72Q87.31-20.88 87.69-22.66L87.69-22.66L87.69-22.66Q88.06-24.44 88.59-25.56L88.59-25.56L88.59-25.56Q89.13-26.69 89.94-26.69L89.94-26.69L89.94-26.69Q90-26.69 90.19-26.69L90.19-26.69L90.31-26.69L90.31-26.69Q90.31-26.38 90.34-25.13L90.34-25.13L90.34-25.13Q90.38-23.88 90.41-22.16L90.41-22.16L90.41-22.16Q90.44-20.44 90.47-18.50L90.47-18.50L90.47-18.50Q90.50-16.56 90.50-14.84L90.50-14.84L90.50-14.84Q90.50-13.13 90.56-11.88L90.56-11.88L90.56-11.88Q90.63-10.63 90.69-10.31L90.69-10.31L90.69-10.31Q90.69-10 91-9.41L91-9.41L91-9.41Q91.31-8.81 91.69-8.25L91.69-8.25L91.69-8.25Q92.06-7.69 92.50-7.25L92.50-7.25L92.50-7.25Q92.94-6.81 93.19-6.81L93.19-6.81L103.81-6.81L103.81-6.81Q103.81-6.13 103.22-5.63L103.22-5.63L103.22-5.63Q102.63-5.13 101.75-4.75L101.75-4.75L101.75-4.75Q100.88-4.38 99.81-4.09L99.81-4.09L99.81-4.09Q98.75-3.81 97.75-3.66L97.75-3.66L97.75-3.66Q96.75-3.50 95.88-3.44L95.88-3.44L95.88-3.44Q95-3.38 94.56-3.38L94.56-3.38L94.56-3.38Q92.06-3.38 90.38-4.50L90.38-4.50L90.38-4.50Q88.69-5.63 87.25-7.63L87.25-7.63L87.25-7.63Q86.44-6.63 85.34-5.38L85.34-5.38L85.34-5.38Q84.25-4.13 82.91-2.97L82.91-2.97L82.91-2.97Q81.56-1.81 80.03-1L80.03-1L80.03-1Q78.50-0.19 77 0L77 0L77 0Q75.06 0.25 73.91-0.28L73.91-0.28L73.91-0.28Q72.75-0.81 72.06-1.75L72.06-1.75L72.06-1.75Q71.38-2.69 71.13-4.03L71.13-4.03L71.13-4.03Q70.88-5.38 70.88-6.94ZM128.75-8.56L128.75-8.56L128.75-8.56Q128.63-9.06 128.47-10.13L128.47-10.13L128.47-10.13Q128.31-11.19 128.06-12.53L128.06-12.53L128.06-12.53Q127.81-13.88 127.53-15.38L127.53-15.38L127.53-15.38Q127.25-16.88 126.97-18.22L126.97-18.22L126.97-18.22Q126.69-19.56 126.47-20.63L126.47-20.63L126.47-20.63Q126.25-21.69 126.13-22.19L126.13-22.19L126.13-22.19Q125.94-23.31 125.66-24.22L125.66-24.22L125.66-24.22Q125.38-25.13 124.84-25.84L124.84-25.84L124.84-25.84Q124.31-26.56 123.53-26.97L123.53-26.97L123.53-26.97Q122.75-27.38 121.50-27.38L121.50-27.38L121.50-27.38Q120.56-27.38 119.53-26.69L119.53-26.69L119.53-26.69Q118.50-26 117.56-25.09L117.56-25.09L117.56-25.09Q116.63-24.19 115.94-23.34L115.94-23.34L115.94-23.34Q115.25-22.50 115-22.19L115-22.19L115-22.19Q113.44-20.50 112.63-17.88L112.63-17.88L112.63-17.88Q111.81-15.25 111.41-12.38L111.41-12.38L111.41-12.38Q111-9.50 110.94-6.72L110.94-6.72L110.94-6.72Q110.88-3.94 110.75-1.75L110.75-1.75L108.19-0.81L108.19-40.19L108.19-40.19Q108.19-40.50 108.28-41.34L108.28-41.34L108.28-41.34Q108.38-42.19 108.53-43.16L108.53-43.16L108.53-43.16Q108.69-44.13 108.84-44.97L108.84-44.97L108.84-44.97Q109-45.81 109.06-46.19L109.06-46.19L109.06-46.19Q109.13-46.38 109.44-46.66L109.44-46.66L109.44-46.66Q109.75-46.94 109.88-47L109.88-47L110.75-46.19L112.50-24.81L113.31-24.81L113.31-24.81Q114.13-25.56 115.19-26.44L115.19-26.44L115.19-26.44Q116.25-27.31 117.50-28.13L117.50-28.13L117.50-28.13Q118.75-28.94 120.09-29.44L120.09-29.44L120.09-29.44Q121.44-29.94 122.75-29.94L122.75-29.94L122.75-29.94Q125.06-29.94 126.44-28.81L126.44-28.81L126.44-28.81Q127.81-27.69 128.66-25.78L128.66-25.78L128.66-25.78Q129.50-23.88 129.91-21.50L129.91-21.50L129.91-21.50Q130.31-19.13 130.75-16.63L130.75-16.63L130.75-16.63Q131.19-14.13 131.72-11.72L131.72-11.72L131.72-11.72Q132.25-9.31 133.28-7.47L133.28-7.47L133.28-7.47Q134.31-5.63 136.03-4.47L136.03-4.47L136.03-4.47Q137.75-3.31 140.44-3.31L140.44-3.31L140.44-3.31Q141.81-3.31 142.81-3.38L142.81-3.38L142.81-3.38Q143.81-3.44 144.81-3.69L144.81-3.69L144.81-3.69Q145.81-3.94 146.84-4.47L146.84-4.47L146.84-4.47Q147.88-5 149.19-5.94L149.19-5.94L149.25-5.81L149.25-5.81Q149.25-5.63 149.25-5.56L149.25-5.56L149.25-5.56Q149.25-4.56 148.09-3.53L148.09-3.53L148.09-3.53Q146.94-2.50 145.34-1.69L145.34-1.69L145.34-1.69Q143.75-0.88 142.09-0.38L142.09-0.38L142.09-0.38Q140.44 0.13 139.38 0.13L139.38 0.13L139.38 0.13Q137.31 0.13 135.75-0.63L135.75-0.63L135.75-0.63Q134.19-1.38 132.94-2.63L132.94-2.63L132.94-2.63Q131.69-3.88 130.66-5.44L130.66-5.44L130.66-5.44Q129.63-7 128.75-8.56ZM161.13-9.38L161.13-9.38L161.13-9.38Q160.44-8.69 159.53-7.69L159.53-7.69L159.53-7.69Q158.63-6.69 157.69-5.59L157.69-5.59L157.69-5.59Q156.75-4.50 155.66-3.41L155.66-3.41L155.66-3.41Q154.56-2.31 153.47-1.44L153.47-1.44L153.47-1.44Q152.38-0.56 151.28-0.06L151.28-0.06L151.28-0.06Q150.19 0.44 149.06 0.44L149.06 0.44L149.06 0.44Q147.69 0.44 146.66-0.06L146.66-0.06L146.66-0.06Q145.63-0.56 144.91-1.50L144.91-1.50L144.91-1.50Q144.19-2.44 143.81-3.59L143.81-3.59L143.81-3.59Q143.44-4.75 143.44-5.94L143.44-5.94L143.44-5.94Q143.25-7.56 143.59-9.88L143.59-9.88L143.59-9.88Q143.94-12.19 144.78-14.72L144.78-14.72L144.78-14.72Q145.63-17.25 146.88-19.72L146.88-19.72L146.88-19.72Q148.13-22.19 149.69-24.19L149.69-24.19L149.69-24.19Q151.25-26.19 153.06-27.38L153.06-27.38L153.06-27.38Q154.88-28.56 156.81-28.56L156.81-28.56L156.81-28.56Q157.56-28.56 158.16-28.53L158.16-28.53L158.16-28.53Q158.75-28.50 159.34-28.41L159.34-28.41L159.34-28.41Q159.94-28.31 160.53-28.13L160.53-28.13L160.53-28.13Q161.13-27.94 162-27.69L162-27.69L162-27.69Q162.50-28.25 162.69-28.84L162.69-28.84L162.69-28.84Q162.88-29.44 162.91-30.09L162.91-30.09L162.91-30.09Q162.94-30.75 162.88-31.44L162.88-31.44L162.88-31.44Q162.81-32.13 162.81-32.81L162.81-32.81L162.81-32.81Q162.81-33.38 162.91-34.56L162.91-34.56L162.91-34.56Q163-35.75 163.06-37.28L163.06-37.28L163.06-37.28Q163.13-38.81 163.22-40.50L163.22-40.50L163.22-40.50Q163.31-42.19 163.41-43.72L163.41-43.72L163.41-43.72Q163.50-45.25 163.59-46.44L163.59-46.44L163.59-46.44Q163.69-47.63 163.69-48.19L163.69-48.19L163.88-48.25L163.88-48.25Q164.06-48.25 164.19-48.25L164.19-48.25L164.19-48.25Q164.63-48.25 164.91-48.06L164.91-48.06L164.91-48.06Q165.19-47.88 165.38-47.31L165.38-47.31L165.38-47.31Q165.56-46.31 165.53-43.81L165.53-43.81L165.53-43.81Q165.50-41.31 165.38-37.94L165.38-37.94L165.38-37.94Q165.25-34.56 165.09-30.56L165.09-30.56L165.09-30.56Q164.94-26.56 164.91-22.59L164.91-22.59L164.91-22.59Q164.88-18.63 165.13-14.91L165.13-14.91L165.13-14.91Q165.38-11.19 166-8.41L166-8.41L166-8.41Q166.63-5.63 167.72-4L167.72-4L167.72-4Q168.81-2.38 170.56-2.50L170.56-2.50L170.56-2.50Q171.13-2.56 172.38-3L172.38-3L172.38-3Q173.63-3.44 175.03-3.94L175.03-3.94L175.03-3.94Q176.44-4.44 177.78-4.84L177.78-4.84L177.78-4.84Q179.13-5.25 180-5.25L180-5.25L180-5.25Q180.06-5.25 180.38-5.19L180.38-5.19L180.38-5.19Q180.69-5.13 180.81-5.13L180.81-5.13L180.81-5.13Q179.69-4 178.31-3.03L178.31-3.03L178.31-3.03Q176.94-2.06 175.38-1.38L175.38-1.38L175.38-1.38Q173.81-0.69 172.13-0.28L172.13-0.28L172.13-0.28Q170.44 0.13 168.88 0.13L168.88 0.13L168.88 0.13Q167.06 0.13 165.66-0.75L165.66-0.75L165.66-0.75Q164.25-1.63 163.28-3L163.28-3L163.28-3Q162.31-4.38 161.75-6.06L161.75-6.06L161.75-6.06Q161.19-7.75 161.13-9.38ZM157.75-26.06L157.75-26.06L157.75-26.06Q155.06-25.19 153-23.25L153-23.25L153-23.25Q150.94-21.31 149.44-18.94L149.44-18.94L149.44-18.94Q147.94-16.56 147.06-13.94L147.06-13.94L147.06-13.94Q146.19-11.31 145.91-8.97L145.91-8.97L145.91-8.97Q145.63-6.63 145.88-4.84L145.88-4.84L145.88-4.84Q146.13-3.06 147-2.44L147-2.44L147-2.44Q148.81-2.44 150.63-3.31L150.63-3.31L150.63-3.31Q152.44-4.19 154.09-5.63L154.09-5.63L154.09-5.63Q155.75-7.06 157.19-9L157.19-9L157.19-9Q158.63-10.94 159.72-13L159.72-13L159.72-13Q160.81-15.06 161.41-17.22L161.41-17.22L161.41-17.22Q162-19.38 162-21.25L162-21.25L162-21.81L162-21.81Q162-22.25 162-22.75L162-22.75L162-22.75Q162-23.25 162-23.66L162-23.66L162-23.66Q162-24.06 162-24.19L162-24.19L162-24.19Q161.75-25 161.28-25.41L161.28-25.41L161.28-25.41Q160.81-25.81 160.22-25.97L160.22-25.97L160.22-25.97Q159.63-26.13 158.94-26.09L158.94-26.09L158.94-26.09Q158.25-26.06 157.75-26.06ZM195-2.50L195-3.06L195-3.06Q195-7.31 195.38-11.34L195.38-11.34L195.38-11.34Q195.75-15.38 195.75-19.50L195.75-19.50L195.75-19.50Q194.94-19.50 194.19-19.38L194.19-19.38L191.13-18.81L191.13-18.81Q190.38-18.63 189.63-18.63L189.63-18.63L189.63-18.63Q188.50-18.63 187.38-18.97L187.38-18.97L187.38-18.97Q186.25-19.31 185.31-19.97L185.31-19.97L185.31-19.97Q184.38-20.63 183.81-21.69L183.81-21.69L183.81-21.69Q183.25-22.75 183.25-24.19L183.25-24.19L183.25-24.19Q183.25-25.88 183.91-27.56L183.91-27.56L183.91-27.56Q184.56-29.25 185.66-30.59L185.66-30.59L185.66-30.59Q186.75-31.94 188.22-32.78L188.22-32.78L188.22-32.78Q189.69-33.63 191.31-33.63L191.31-33.63L191.31-33.63Q192.13-33.63 193.63-33.34L193.63-33.34L193.63-33.34Q195.13-33.06 196.56-32.41L196.56-32.41L196.56-32.41Q198-31.75 199.03-30.66L199.03-30.66L199.03-30.66Q200.06-29.56 200.06-28.06L200.06-28.06L200.06-28.06Q200.06-27.88 199.97-27.59L199.97-27.59L199.97-27.59Q199.88-27.31 199.75-27L199.75-27L199.75-27Q199.63-26.69 199.47-26.44L199.47-26.44L199.47-26.44Q199.31-26.19 199.25-26.13L199.25-26.13L199.25-26.13Q199.25-25.31 199.13-23.56L199.13-23.56L199.13-23.56Q199-21.81 198.84-19.59L198.84-19.59L198.84-19.59Q198.69-17.38 198.50-14.94L198.50-14.94L198.50-14.94Q198.31-12.50 198.16-10.28L198.16-10.28L198.16-10.28Q198-8.06 197.84-6.31L197.84-6.31L197.84-6.31Q197.69-4.56 197.56-3.69L197.56-3.69L197.56-3.69Q197.56-3.50 197.47-2.97L197.47-2.97L197.47-2.97Q197.38-2.44 197.22-1.84L197.22-1.84L197.22-1.84Q197.06-1.25 196.97-0.75L196.97-0.75L196.97-0.75Q196.88-0.25 196.75 0L196.75 0L195.06-0.94L195-1.25L195-1.25Q195-1.44 195-1.78L195-1.78L195-1.78Q195-2.13 195-2.50L195-2.50ZM185.81-24.81L185.81-24.81L185.81-24.81Q185.81-23.50 186.09-22.66L186.09-22.66L186.09-22.66Q186.38-21.81 186.91-21.31L186.91-21.31L186.91-21.31Q187.44-20.81 188.19-20.66L188.19-20.66L188.19-20.66Q188.94-20.50 189.94-20.50L189.94-20.50L189.94-20.50Q191.56-20.50 192.97-21.16L192.97-21.16L192.97-21.16Q194.38-21.81 195.41-23.06L195.41-23.06L195.41-23.06Q196.44-24.31 197.03-25.94L197.03-25.94L197.03-25.94Q197.63-27.56 197.63-29.50L197.63-29.50L197.63-29.50Q197.63-30.25 196.88-30.56L196.88-30.56L196.88-30.56Q196.13-30.88 195.19-30.97L195.19-30.97L195.19-30.97Q194.25-31.06 193.44-31L193.44-31L193.44-31Q192.63-30.94 192.56-30.94L192.56-30.94L192.56-30.94Q191.13-31.25 189.91-30.84L189.91-30.84L189.91-30.84Q188.69-30.44 187.78-29.50L187.78-29.50L187.78-29.50Q186.88-28.56 186.38-27.34L186.38-27.34L186.38-27.34Q185.88-26.13 185.81-24.81ZM213.31-2.88L213.31-2.88L213.31-2.88Q213.31-5.75 213.69-8.47L213.69-8.47L213.69-8.47Q214.06-11.19 214.06-13.94L214.06-13.94L214.06-13.94Q214.06-14.56 213.94-14.81L213.94-14.81L213.94-14.81Q213.81-15.06 213.31-15.44L213.31-15.44L213.31-15.44Q212.94-15.44 211.88-15.25L211.88-15.25L211.88-15.25Q210.81-15.06 209.66-14.91L209.66-14.91L209.66-14.91Q208.50-14.75 207.47-14.59L207.47-14.59L207.47-14.59Q206.44-14.44 206.06-14.38L206.06-14.38L206.06-14.38Q205.94-14.38 205.66-14.38L205.66-14.38L205.66-14.38Q205.38-14.38 205.25-14.38L205.25-14.38L205.25-16.50L205.25-16.50Q205.25-16.56 205.63-16.66L205.63-16.66L205.63-16.66Q206-16.75 206.50-16.94L206.50-16.94L206.50-16.94Q207-17.13 207.53-17.28L207.53-17.28L207.53-17.28Q208.06-17.44 208.44-17.56L208.44-17.56L208.44-17.56Q208.75-17.63 209.59-17.78L209.59-17.78L209.59-17.78Q210.44-17.94 211.31-18.09L211.31-18.09L211.31-18.09Q212.19-18.25 212.97-18.34L212.97-18.34L212.97-18.34Q213.75-18.44 214.06-18.50L214.06-18.50L214.06-18.50Q215.06-21.63 215.28-24.56L215.28-24.56L215.28-24.56Q215.50-27.50 215.50-30.75L215.50-30.75L215.50-30.75Q214-30.75 212.56-30.41L212.56-30.41L212.56-30.41Q211.13-30.06 209.66-29.69L209.66-29.69L209.66-29.69Q208.19-29.31 206.69-28.97L206.69-28.97L206.69-28.97Q205.19-28.63 203.69-28.63L203.69-28.63L203.69-29.94L203.69-29.94Q203.69-30.06 204.78-30.44L204.78-30.44L204.78-30.44Q205.88-30.81 207.41-31.28L207.41-31.28L207.41-31.28Q208.94-31.75 210.59-32.25L210.59-32.25L210.59-32.25Q212.25-32.75 213.31-32.94L213.31-32.94L213.31-32.94Q213.56-33 214.28-33.13L214.28-33.13L214.28-33.13Q215-33.25 215.75-33.34L215.75-33.34L215.75-33.34Q216.50-33.44 217.19-33.47L217.19-33.47L217.19-33.47Q217.88-33.50 218.13-33.50L218.13-33.50L218.13-33.50Q218.13-30.25 217.81-26.88L217.81-26.88L217.81-26.88Q217.50-23.50 217.31-20.56L217.31-20.56L217.31-20.56Q217.25-20.31 217.28-19.88L217.28-19.88L217.28-19.88Q217.31-19.44 217.38-19L217.38-19L217.38-19Q217.38-18.56 217.38-18.06L217.38-18.06L223.63-18.06L223.63-18.06Q223.63-17.06 223.19-16.56L223.19-16.56L223.19-16.56Q222.75-16.06 222.09-15.91L222.09-15.91L222.09-15.91Q221.44-15.75 220.66-15.78L220.66-15.78L220.66-15.78Q219.88-15.81 219.19-15.75L219.19-15.75L219.19-15.75Q218.50-15.69 217.97-15.41L217.97-15.41L217.97-15.41Q217.44-15.13 217.31-14.38L217.31-14.38L214.81-1.06L214.06 0L214.06 0Q213.63-0.13 213.47-0.47L213.47-0.47L213.47-0.47Q213.31-0.81 213.25-1.25L213.25-1.25L213.25-1.25Q213.19-1.69 213.25-2.13L213.25-2.13L213.25-2.13Q213.31-2.56 213.31-2.88ZM225.88-8.56L225.88-8.56L225.88-8.56Q225.81-8.75 225.81-9.41L225.81-9.41L225.81-9.41Q225.81-10.06 225.81-10.31L225.81-10.31L225.81-10.31Q225.81-10.50 225.78-10.91L225.78-10.91L225.78-10.91Q225.75-11.31 225.81-11.69L225.81-11.69L225.81-11.69Q225.88-12.06 226.06-12.38L226.06-12.38L226.06-12.38Q226.25-12.69 226.69-12.81L226.69-12.81L226.69-12.81Q226.63-11.56 227.25-10.38L227.25-10.38L227.25-10.38Q227.88-9.19 228.88-8.03L228.88-8.03L228.88-8.03Q229.88-6.88 231.16-5.84L231.16-5.84L231.16-5.84Q232.44-4.81 233.84-4.09L233.84-4.09L233.84-4.09Q235.25-3.38 236.59-2.94L236.59-2.94L236.59-2.94Q237.94-2.50 239.13-2.50L239.13-2.50L239.13-2.50Q241.31-2.50 243.56-3.25L243.56-3.25L243.56-3.25Q245.81-4 247.59-5.34L247.59-5.34L247.59-5.34Q249.38-6.69 250.50-8.63L250.50-8.63L250.50-8.63Q251.63-10.56 251.63-13L251.63-13L251.63-13Q251.63-14.50 250.72-15.53L250.72-15.53L250.72-15.53Q249.81-16.56 248.34-17.34L248.34-17.34L248.34-17.34Q246.88-18.13 245.03-18.66L245.03-18.66L245.03-18.66Q243.19-19.19 241.22-19.69L241.22-19.69L241.22-19.69Q239.25-20.19 237.38-20.75L237.38-20.75L237.38-20.75Q235.50-21.31 234.03-22.09L234.03-22.09L234.03-22.09Q232.56-22.88 231.69-23.94L231.69-23.94L231.69-23.94Q230.81-25 230.81-26.63L230.81-26.63L230.81-26.63Q230.81-28.06 231.47-29.16L231.47-29.16L231.47-29.16Q232.13-30.25 233.22-31.13L233.22-31.13L233.22-31.13Q234.31-32 235.72-32.59L235.72-32.59L235.72-32.59Q237.13-33.19 238.56-33.59L238.56-33.59L238.56-33.59Q240-34 241.41-34.16L241.41-34.16L241.41-34.16Q242.81-34.31 243.94-34.31L243.94-34.31L243.94-34.31Q245.38-34.31 246.47-34.28L246.47-34.28L246.47-34.28Q247.56-34.25 248.50-33.94L248.50-33.94L248.50-33.94Q249.44-33.63 250.19-32.94L250.19-32.94L250.19-32.94Q250.94-32.25 251.50-30.75L251.50-30.75L251.50-30.75Q251.25-30.25 250.97-30.09L250.97-30.09L250.97-30.09Q250.69-29.94 250.19-29.94L250.19-29.94L250.19-29.94Q249.50-29.94 249.03-30.47L249.03-30.47L249.03-30.47Q248.56-31 248.06-31.69L248.06-31.69L248.06-31.69Q247.88-31.69 247.31-31.72L247.31-31.72L247.31-31.72Q246.75-31.75 246.16-31.75L246.16-31.75L246.16-31.75Q245.56-31.75 245.03-31.75L245.03-31.75L245.03-31.75Q244.50-31.75 244.25-31.75L244.25-31.75L244.25-31.75Q243.50-31.75 242.41-31.69L242.41-31.69L242.41-31.69Q241.31-31.63 240.09-31.44L240.09-31.44L240.09-31.44Q238.88-31.25 237.72-30.88L237.72-30.88L237.72-30.88Q236.56-30.50 235.59-29.94L235.59-29.94L235.59-29.94Q234.63-29.38 234.03-28.53L234.03-28.53L234.03-28.53Q233.44-27.69 233.44-26.56L233.44-26.56L233.44-26.56Q233.44-25.56 233.84-25L233.84-25L233.84-25Q234.25-24.44 235.25-23.88L235.25-23.88L235.25-23.88Q235.69-23.88 236.56-23.59L236.56-23.59L236.56-23.59Q237.44-23.31 238.53-23L238.53-23L238.53-23Q239.63-22.69 240.84-22.34L240.84-22.34L240.84-22.34Q242.06-22 243.16-21.63L243.16-21.63L243.16-21.63Q244.25-21.25 245.09-20.94L245.09-20.94L245.09-20.94Q245.94-20.63 246.38-20.50L246.38-20.50L246.38-20.50Q247.88-19.94 249.44-19.38L249.44-19.38L249.44-19.38Q251-18.81 252.25-17.97L252.25-17.97L252.25-17.97Q253.50-17.13 254.25-15.91L254.25-15.91L254.25-15.91Q255-14.69 255-12.81L255-12.81L255-12.81Q255-10 253.50-7.66L253.50-7.66L253.50-7.66Q252-5.31 249.72-3.59L249.72-3.59L249.72-3.59Q247.44-1.88 244.72-0.91L244.72-0.91L244.72-0.91Q242 0.06 239.44 0.06L239.44 0.06L239.44 0.06Q237.19 0.06 235.25-0.59L235.25-0.59L235.25-0.59Q233.31-1.25 231.66-2.44L231.66-2.44L231.66-2.44Q230-3.63 228.56-5.16L228.56-5.16L228.56-5.16Q227.13-6.69 225.88-8.56ZM279.81-8.56L279.81-8.56L279.81-8.56Q279.69-9.06 279.53-10.13L279.53-10.13L279.53-10.13Q279.38-11.19 279.13-12.53L279.13-12.53L279.13-12.53Q278.88-13.88 278.59-15.38L278.59-15.38L278.59-15.38Q278.31-16.88 278.03-18.22L278.03-18.22L278.03-18.22Q277.75-19.56 277.53-20.63L277.53-20.63L277.53-20.63Q277.31-21.69 277.19-22.19L277.19-22.19L277.19-22.19Q277-23.31 276.72-24.22L276.72-24.22L276.72-24.22Q276.44-25.13 275.91-25.84L275.91-25.84L275.91-25.84Q275.38-26.56 274.59-26.97L274.59-26.97L274.59-26.97Q273.81-27.38 272.56-27.38L272.56-27.38L272.56-27.38Q271.63-27.38 270.59-26.69L270.59-26.69L270.59-26.69Q269.56-26 268.63-25.09L268.63-25.09L268.63-25.09Q267.69-24.19 267-23.34L267-23.34L267-23.34Q266.31-22.50 266.06-22.19L266.06-22.19L266.06-22.19Q264.50-20.50 263.69-17.88L263.69-17.88L263.69-17.88Q262.88-15.25 262.47-12.38L262.47-12.38L262.47-12.38Q262.06-9.50 262-6.72L262-6.72L262-6.72Q261.94-3.94 261.81-1.75L261.81-1.75L259.25-0.81L259.25-40.19L259.25-40.19Q259.25-40.50 259.34-41.34L259.34-41.34L259.34-41.34Q259.44-42.19 259.59-43.16L259.59-43.16L259.59-43.16Q259.75-44.13 259.91-44.97L259.91-44.97L259.91-44.97Q260.06-45.81 260.13-46.19L260.13-46.19L260.13-46.19Q260.19-46.38 260.50-46.66L260.50-46.66L260.50-46.66Q260.81-46.94 260.94-47L260.94-47L261.81-46.19L263.56-24.81L264.38-24.81L264.38-24.81Q265.19-25.56 266.25-26.44L266.25-26.44L266.25-26.44Q267.31-27.31 268.56-28.13L268.56-28.13L268.56-28.13Q269.81-28.94 271.16-29.44L271.16-29.44L271.16-29.44Q272.50-29.94 273.81-29.94L273.81-29.94L273.81-29.94Q276.13-29.94 277.50-28.81L277.50-28.81L277.50-28.81Q278.88-27.69 279.72-25.78L279.72-25.78L279.72-25.78Q280.56-23.88 280.97-21.50L280.97-21.50L280.97-21.50Q281.38-19.13 281.81-16.63L281.81-16.63L281.81-16.63Q282.25-14.13 282.78-11.72L282.78-11.72L282.78-11.72Q283.31-9.31 284.34-7.47L284.34-7.47L284.34-7.47Q285.38-5.63 287.09-4.47L287.09-4.47L287.09-4.47Q288.81-3.31 291.50-3.31L291.50-3.31L291.50-3.31Q292.88-3.31 293.88-3.38L293.88-3.38L293.88-3.38Q294.88-3.44 295.88-3.69L295.88-3.69L295.88-3.69Q296.88-3.94 297.91-4.47L297.91-4.47L297.91-4.47Q298.94-5 300.25-5.94L300.25-5.94L300.31-5.81L300.31-5.81Q300.31-5.63 300.31-5.56L300.31-5.56L300.31-5.56Q300.31-4.56 299.16-3.53L299.16-3.53L299.16-3.53Q298-2.50 296.41-1.69L296.41-1.69L296.41-1.69Q294.81-0.88 293.16-0.38L293.16-0.38L293.16-0.38Q291.50 0.13 290.44 0.13L290.44 0.13L290.44 0.13Q288.38 0.13 286.81-0.63L286.81-0.63L286.81-0.63Q285.25-1.38 284-2.63L284-2.63L284-2.63Q282.75-3.88 281.72-5.44L281.72-5.44L281.72-5.44Q280.69-7 279.81-8.56ZM295.56-9L295.56-9L295.56-9Q295.75-11.38 296.25-13.91L296.25-13.91L296.25-13.91Q296.75-16.44 297.63-18.78L297.63-18.78L297.63-18.78Q298.50-21.13 299.81-23.19L299.81-23.19L299.81-23.19Q301.13-25.25 302.94-26.78L302.94-26.78L302.94-26.78Q304.75-28.31 307.13-29.09L307.13-29.09L307.13-29.09Q309.50-29.88 312.50-29.63L312.50-29.63L312.50-29.63Q316.56-26.13 318.31-22.53L318.31-22.53L318.31-22.53Q320.06-18.94 320.09-15.66L320.09-15.66L320.09-15.66Q320.13-12.38 318.78-9.50L318.78-9.50L318.78-9.50Q317.44-6.63 315.28-4.53L315.28-4.53L315.28-4.53Q313.13-2.44 310.50-1.19L310.50-1.19L310.50-1.19Q307.88 0.06 305.38 0.06L305.38 0.06L305.38 0.06Q303.44 0.06 301.66-0.53L301.66-0.53L301.66-0.53Q299.88-1.13 298.53-2.28L298.53-2.28L298.53-2.28Q297.19-3.44 296.38-5.13L296.38-5.13L296.38-5.13Q295.56-6.81 295.56-9ZM317.06-15.44L317.06-15.44L317.06-15.44Q317.06-17.31 316.78-18.88L316.78-18.88L316.78-18.88Q316.50-20.44 315.88-21.75L315.88-21.75L315.88-21.75Q315.25-23.06 314.22-24.28L314.22-24.28L314.22-24.28Q313.19-25.50 311.69-26.69L311.69-26.69L311.56-26.19L311.56-26.19Q309.31-26.38 307-25.13L307-25.13L307-25.13Q304.69-23.88 302.81-21.63L302.81-21.63L302.81-21.63Q300.94-19.38 299.81-16.31L299.81-16.31L299.81-16.31Q298.69-13.25 298.94-9.81L298.94-9.81L298.94-9.81Q298.94-7.75 299.75-6.19L299.75-6.19L299.75-6.19Q300.56-4.63 302.38-3.44L302.38-3.44L302.38-3.44Q302.56-3.44 303.06-3.41L303.06-3.41L303.06-3.41Q303.56-3.38 304.09-3.38L304.09-3.38L304.09-3.38Q304.63-3.38 305.13-3.34L305.13-3.34L305.13-3.34Q305.63-3.31 305.75-3.31L305.75-3.31L305.75-3.31Q308.56-3.31 310.69-4.16L310.69-4.16L310.69-4.16Q312.81-5 314.22-6.56L314.22-6.56L314.22-6.56Q315.63-8.13 316.34-10.38L316.34-10.38L316.34-10.38Q317.06-12.63 317.06-15.44ZM322.94 30.81L322.94 30.81L322.94 30.81Q322.94 29.94 322.91 28.09L322.91 28.09L322.91 28.09Q322.88 26.25 322.88 23.94L322.88 23.94L322.88 23.94Q322.88 21.63 322.84 19.06L322.84 19.06L322.84 19.06Q322.81 16.50 322.81 14.19L322.81 14.19L322.81 7.31L322.81 7.31Q322.81 4.94 322.75 1.81L322.75 1.81L322.75 1.81Q322.69-1.31 322.63-4.78L322.63-4.78L322.63-4.78Q322.56-8.25 322.56-11.94L322.56-11.94L322.56-11.94Q322.56-15.63 322.59-19.22L322.59-19.22L322.59-19.22Q322.63-22.81 322.84-26.09L322.84-26.09L322.84-26.09Q323.06-29.38 323.38-32L323.38-32L323.38-32Q323.44-32.06 323.81-32.09L323.81-32.09L323.81-32.09Q324.19-32.13 324.25-32.13L324.25-32.13L324.25-32.13Q325.13-32.13 325.72-31.72L325.72-31.72L325.72-31.72Q326.31-31.31 326.81-30.31L326.81-30.31L326.81-30.31Q328.75-30.44 331.09-30.56L331.09-30.56L331.09-30.56Q333.44-30.69 335.84-30.63L335.84-30.63L335.84-30.63Q338.25-30.56 340.47-30.13L340.47-30.13L340.47-30.13Q342.69-29.69 344.44-28.66L344.44-28.66L344.44-28.66Q346.19-27.63 347.22-25.84L347.22-25.84L347.22-25.84Q348.25-24.06 348.25-21.31L348.25-21.31L348.25-21.31Q347.94-15.13 345.97-10.84L345.97-10.84L345.97-10.84Q344-6.56 340.97-4.19L340.97-4.19L340.97-4.19Q337.94-1.81 334.22-1.28L334.22-1.28L334.22-1.28Q330.50-0.75 326.81-1.94L326.81-1.94L326.75 27.38L326.75 27.38Q326.75 27.56 326.59 28.28L326.59 28.28L326.59 28.28Q326.44 29 326.13 29.75L326.13 29.75L326.13 29.75Q325.81 30.50 325.31 31.13L325.31 31.13L325.31 31.13Q324.81 31.75 324.25 31.75L324.25 31.75L324.25 31.75Q323.38 31.75 322.94 30.81ZM325.88-23.75L325.88-22.94L325.88-22.94Q325.88-21 325.97-18.59L325.97-18.59L325.97-18.59Q326.06-16.19 326.28-13.72L326.28-13.72L326.28-13.72Q326.50-11.25 326.72-8.84L326.72-8.84L326.72-8.84Q326.94-6.44 327.13-4.25L327.13-4.25L327.63-4.25L327.63-4.25Q327.88-4.25 328.25-4.22L328.25-4.22L328.25-4.22Q328.63-4.19 328.88-4.19L328.88-4.19L329.31-4.19L329.31-4.19Q332.19-4.19 334.97-5.50L334.97-5.50L334.97-5.50Q337.75-6.81 339.94-9.06L339.94-9.06L339.94-9.06Q342.13-11.31 343.47-14.25L343.47-14.25L343.47-14.25Q344.81-17.19 344.81-20.50L344.81-20.50L344.81-20.50Q344.81-23.31 343.63-24.88L343.63-24.88L343.63-24.88Q342.44-26.44 340.53-27.13L340.53-27.13L340.53-27.13Q338.63-27.81 336.25-27.88L336.25-27.88L336.25-27.88Q333.88-27.94 331.56-27.94L331.56-27.94L331.56-27.94Q331.13-27.94 330.50-27.91L330.50-27.91L330.50-27.91Q329.88-27.88 329.28-27.84L329.28-27.84L329.28-27.84Q328.69-27.81 328.19-27.78L328.19-27.78L328.19-27.78Q327.69-27.75 327.63-27.75L327.63-27.75L325.94-26.06L325.94-25.63L325.94-25.63Q325.94-25.25 325.91-24.78L325.91-24.78L325.91-24.78Q325.88-24.31 325.88-23.75L325.88-23.75Z" fill="url(#editing-outline-gradient)"></path></g></g><style>text {
  font-size: 64px;
  font-family: Arial Black;
  dominant-baseline: central;
  text-anchor: middle;
}</style></svg>