<svg width="745.2204833984375px" height="206.23999633789063px" xmlns="http://www.w3.org/2000/svg" viewBox="-122.61024169921876 -28.119998168945315 745.2204833984375 206.23999633789063" style="background: rgb(221, 4, 89);" preserveAspectRatio="xMidYMid"><defs><linearGradient id="editing-shiny-gradient" x1="0.04322727117869957" x2="0.9567727288213004" y1="0.2966316784620999" y2="0.7033683215379001" gradientUnits="objectBoundingBox"><stop offset="0.0" stop-color="#fd99a7"></stop><stop offset="0.5" stop-color="#eb6896"></stop><stop offset="1.0" stop-color="#eeeeee"></stop></linearGradient><linearGradient id="editing-shiny-gradient2" x1="0" x2="0" y1="0" y2="1"><stop offset="0.2" stop-color="#fff" stop-opacity="0.8"></stop><stop offset="0.8" stop-color="#fff" stop-opacity="0"></stop></linearGradient><filter id="editing-shiny2" x="-100%" y="-100%" width="300%" height="300%"><feMorphology operator="erode" radius="2"></feMorphology></filter><filter id="editing-shiny" x="-100%" y="-100%" width="300%" height="300%"><feFlood flood-color="#fff" result="flood"></feFlood><feConvolveMatrix in="SourceGraphic" result="conv" order="8,8" divisor="1" kernelMatrix="0 0 0 0 0 0 0 0 0 0 0 1 1 0 0 0 0 0 0 1 1 0 0 0 0 0 1 0 0 1 0 0 0 0 1 0 0 1 0 0 0 1 0 0 0 0 1 0 0 1 1 0 0 1 1 0 0 0 0 1 1 0 0 0 "></feConvolveMatrix><feOffset dx="0" dy="4" in="conv" result="offset"></feOffset><feComposite operator="in" in="flood" in2="offset" result="comp"></feComposite><feGaussianBlur in="offset" stdDeviation="3" result="shadow"></feGaussianBlur><feColorMatrix in="shadow" type="matrix" values="0.7 0 0 0 0  0 0.7 0 0 0  0 0 0.7 0 0  0 0 0 0.3 0" result="dark-shadow"></feColorMatrix><feOffset dx="0" dy="4" in="dark-shadow" result="offset-shadow"></feOffset><feOffset dx="0" dy="2" in="conv" result="offset-2"></feOffset><feComposite operator="out" in="offset" in2="offset-2" result="edge-diff"></feComposite><feGaussianBlur in="edge-diff" stdDeviation="1" result="edge-blur"></feGaussianBlur><feColorMatrix in="edge-blur" result="edge-shadow" type="matrix" values="0 0 0 0 0  0 0 0 0 0  0 0 0 0 0  0 0 0 0.5 0"></feColorMatrix><feComposite operator="in" in="edge-shadow" in2="offset" result="edge-shadow-in"></feComposite><feOffset dx="0" dy="1" in="edge-shadow-in" result="edge-shadow-final"></feOffset><feMerge result="out"><feMergeNode in="offset-shadow"></feMergeNode><feMergeNode in="comp"></feMergeNode><feMergeNode in="edge-shadow-final"></feMergeNode><feMergeNode in="SourceGraphic"></feMergeNode></feMerge></filter></defs><g filter="url(#editing-shiny)"><g transform="translate(-11.692265510559082, 126.59000444412231)"><path d="M16.10-17.49L16.10-17.49Q12.62-18.71 9.18-20.05L9.18-20.05L9.18-20.05Q5.74-21.40 3.39-23.93L3.39-23.93L3.39-23.93Q1.04-26.45 1.04-30.41L1.04-30.41L1.04-30.41Q1.04-34.37 4.70-36.84L4.70-36.84L4.70-36.84Q8.35-39.32 15.36-39.32L15.36-39.32L15.36-39.32Q22.36-39.32 26.32-36.89L26.32-36.89L26.32-36.89Q30.28-34.45 30.28-31.23L30.28-31.23L30.28-31.23Q30.28-29.67 29.10-28.71L29.10-28.71L29.10-28.71Q27.93-27.75 26.80-27.75L26.80-27.75L26.80-27.75Q24.62-27.75 23.93-28.80L23.93-28.80L23.93-28.80Q24.45-29.41 24.45-31.19L24.45-31.19L24.45-31.19Q24.45-32.97 21.75-34.45L21.75-34.45L21.75-34.45Q19.05-35.93 15.75-35.93L15.75-35.93L15.75-35.93Q12.44-35.93 10.27-34.71L10.27-34.71L10.27-34.71Q8.09-33.50 8.09-31.02L8.09-31.02L8.09-31.02Q8.09-28.54 10.57-26.71L10.57-26.71L10.57-26.71Q13.05-24.88 16.57-23.66L16.57-23.66L16.57-23.66Q20.10-22.45 23.62-21.05L23.62-21.05L23.62-21.05Q27.14-19.66 29.62-17.10L29.62-17.10L29.62-17.10Q32.10-14.53 32.10-10.79L32.10-10.79L32.10-10.79Q32.10-5.22 27.27-2.48L27.27-2.48L27.27-2.48Q22.45 0.26 14.57 0.26L14.57 0.26L14.57 0.26Q6.70 0.26 1.78-4.31L1.78-4.31L1.78-4.31Q-3.13-8.87-3.13-15.66L-3.13-15.66L-3.13-15.66Q-3.13-18.10-2.18-19.49L-2.18-19.49L-2.18-19.49Q-1.22-20.88 0-20.88L0-20.88L0-20.88Q2.26-20.88 2.61-20.10L2.61-20.10L2.78-19.84L2.78-19.84Q2.26-18.53 2.26-16.62L2.26-16.62L2.26-16.62Q2.26-10.79 5.66-6.96L5.66-6.96L5.66-6.96Q9.05-3.13 15.05-3.13L15.05-3.13L15.05-3.13Q24.27-3.13 24.36-9.66L24.36-9.66L24.36-9.66Q24.36-14.62 16.10-17.49L16.10-17.49ZM84.39-20.62L84.39-20.62L84.39-20.62Q85.96-20.62 85.96-16.01L85.96-16.01L85.96-16.01Q85.96-9.31 82.52-4.52L82.52-4.52L82.52-4.52Q79.08 0.26 73.60 0.26L73.60 0.26L73.60 0.26Q68.12 0.26 64.51-3.61L64.51-3.61L64.51-3.61Q60.90-7.48 60.90-13.57L60.90-13.57L60.90-25.93L60.90-25.93Q60.90-36.28 55.68-36.28L55.68-36.28L55.68-36.28Q51.07-36.28 48.11-31.58L48.11-31.58L48.11-31.58Q45.15-26.88 45.15-15.83L45.15-15.83L45.15-0.96L45.15-0.96Q44.28 0.26 42.11 0.26L42.11 0.26L42.11 0.26Q39.93 0.26 38.63-1.09L38.63-1.09L38.63-1.09Q37.32-2.44 37.32-5.05L37.32-5.05L37.32-48.63L37.32-48.63Q37.32-59.94 39.50-65.03L39.50-65.03L39.50-65.03Q41.67-70.12 47.85-70.12L47.85-70.12L47.85-70.12Q51.16-70.12 52.98-67.34L52.98-67.34L52.98-67.34Q54.81-64.55 54.81-59.42L54.81-59.42L54.81-59.42Q54.81-50.11 45.15-40.46L45.15-40.46L45.15-32.80L45.15-32.80Q48.81-39.32 56.72-39.32L56.72-39.32L56.72-39.32Q62.38-39.32 65.73-35.76L65.73-35.76L65.73-35.76Q69.08-32.19 69.08-25.49L69.08-25.49L69.08-13.14L69.08-13.14Q69.08-8.18 70.64-5.66L70.64-5.66L70.64-5.66Q72.21-3.13 75.26-3.13L75.26-3.13L75.26-3.13Q78.30-3.13 80.69-7.26L80.69-7.26L80.69-7.26Q83.09-11.40 83.09-20.10L83.09-20.10L83.09-20.10Q83.17-20.62 84.39-20.62ZM45.15-44.63L45.15-44.63L45.15-44.63Q51.07-52.29 51.07-59.51L51.07-59.51L51.07-59.51Q51.07-66.73 47.94-66.73L47.94-66.73L47.94-66.73Q46.20-66.73 45.68-62.73L45.68-62.73L45.68-62.73Q45.15-58.73 45.15-44.63ZM109.01-36.80L109.01-36.80L109.01-36.80Q110.14-39.32 112.62-39.32L112.62-39.32L112.62-39.32Q115.10-39.32 116.32-38.11L116.32-38.11L116.32-13.14L116.32-13.14Q116.32-8.18 117.89-5.66L117.89-5.66L117.89-5.66Q119.45-3.13 122.15-3.13L122.15-3.13L122.15-3.13Q130.33-3.13 130.33-20.10L130.33-20.10L130.33-20.10Q130.41-20.62 131.63-20.62L131.63-20.62L131.63-20.62Q133.20-20.62 133.20-16.01L133.20-16.01L133.20-16.01Q133.20-8.61 130.02-4.18L130.02-4.18L130.02-4.18Q126.85 0.26 121.10 0.26L121.10 0.26L121.10 0.26Q112.32 0.26 109.45-7.48L109.45-7.48L109.45-7.48Q107.79-3.92 104.92-1.83L104.92-1.83L104.92-1.83Q102.05 0.26 98.40 0.26L98.40 0.26L98.40 0.26Q83.17 0.26 83.17-19.66L83.17-19.66L83.17-19.66Q83.17-29.75 87.91-34.54L87.91-34.54L87.91-34.54Q92.66-39.32 100.49-39.32L100.49-39.32L100.49-39.32Q106.49-39.32 109.01-36.80ZM92.66-8.96L92.66-8.96L92.66-8.96Q93.87-5.13 95.44-4.13L95.44-4.13L95.44-4.13Q97.01-3.13 99.62-3.13L99.62-3.13L99.62-3.13Q102.23-3.13 105.31-6.39L105.31-6.39L105.31-6.39Q108.40-9.66 108.40-14.88L108.40-14.88L108.40-26.80L108.40-26.80Q108.40-30.89 106.27-33.41L106.27-33.41L106.27-33.41Q104.14-35.93 101.49-35.93L101.49-35.93L101.49-35.93Q98.83-35.93 97.27-35.41L97.27-35.41L97.27-35.41Q95.70-34.89 94.31-33.23L94.31-33.23L94.31-33.23Q91.44-30.10 91.44-19.66L91.44-19.66L91.44-19.66Q91.44-12.79 92.66-8.96ZM177.65-20.62L177.65-20.62L177.65-20.62Q179.22-20.62 179.22-16.01L179.22-16.01L179.22-16.01Q179.22-9.31 175.78-4.52L175.78-4.52L175.78-4.52Q172.35 0.26 166.87 0.26L166.87 0.26L166.87 0.26Q161.38 0.26 157.77-3.61L157.77-3.61L157.77-3.61Q154.16-7.48 154.16-13.57L154.16-13.57L154.16-25.93L154.16-25.93Q154.16-36.28 148.94-36.28L148.94-36.28L148.94-36.28Q144.33-36.28 141.38-31.58L141.38-31.58L141.38-31.58Q138.42-26.88 138.42-15.83L138.42-15.83L138.42-0.96L138.42-0.96Q137.55 0.26 135.37 0.26L135.37 0.26L135.37 0.26Q133.20 0.26 131.89-1.09L131.89-1.09L131.89-1.09Q130.59-2.44 130.59-5.05L130.59-5.05L130.59-48.63L130.59-48.63Q130.59-59.94 132.76-65.03L132.76-65.03L132.76-65.03Q134.94-70.12 141.11-70.12L141.11-70.12L141.11-70.12Q144.42-70.12 146.25-67.34L146.25-67.34L146.25-67.34Q148.07-64.55 148.07-59.42L148.07-59.42L148.07-59.42Q148.07-50.11 138.42-40.46L138.42-40.46L138.42-32.80L138.42-32.80Q142.07-39.32 149.99-39.32L149.99-39.32L149.99-39.32Q155.64-39.32 158.99-35.76L158.99-35.76L158.99-35.76Q162.34-32.19 162.34-25.49L162.34-25.49L162.34-13.14L162.34-13.14Q162.34-8.18 163.91-5.66L163.91-5.66L163.91-5.66Q165.47-3.13 168.52-3.13L168.52-3.13L168.52-3.13Q171.56-3.13 173.96-7.26L173.96-7.26L173.96-7.26Q176.35-11.40 176.35-20.10L176.35-20.10L176.35-20.10Q176.44-20.62 177.65-20.62ZM138.42-44.63L138.42-44.63L138.42-44.63Q144.33-52.29 144.33-59.51L144.33-59.51L144.33-59.51Q144.33-66.73 141.20-66.73L141.20-66.73L141.20-66.73Q139.46-66.73 138.94-62.73L138.94-62.73L138.94-62.73Q138.42-58.73 138.42-44.63ZM176.44-20.18L176.44-20.18L176.44-20.18Q176.44-30.19 181.18-34.76L181.18-34.76L181.18-34.76Q185.92-39.32 193.75-39.32L193.75-39.32L193.75-39.32Q198.80-39.32 201.75-37.32L201.75-37.32L201.75-49.16L201.75-49.16Q201.75-60.12 203.97-65.12L203.97-65.12L203.97-65.12Q206.19-70.12 212.28-70.12L212.28-70.12L212.28-70.12Q215.59-70.12 217.41-67.34L217.41-67.34L217.41-67.34Q219.24-64.55 219.24-59.42L219.24-59.42L219.24-59.42Q219.24-50.11 209.58-40.46L209.58-40.46L209.58-13.14L209.58-13.14Q209.58-8.18 211.28-5.66L211.28-5.66L211.28-5.66Q212.98-3.13 215.76-3.13L215.76-3.13L215.76-3.13Q218.54-3.13 221.11-6.57L221.11-6.57L221.11-6.57Q223.68-10.01 223.68-17.49L223.68-17.49L223.68-17.49Q223.68-19.14 223.59-20.10L223.59-20.10L223.59-20.10Q223.68-20.62 224.90-20.62L224.90-20.62L224.90-20.62Q226.46-20.62 226.46-16.01L226.46-16.01L226.46-16.01Q226.46-8.79 223.20-4.26L223.20-4.26L223.20-4.26Q219.94 0.26 214.80 0.26L214.80 0.26L214.80 0.26Q205.49 0.26 202.62-7.92L202.62-7.92L202.62-7.92Q200.97-4.26 198.10-2.04L198.10-2.04L198.10-2.04Q195.23 0.17 191.66 0.17L191.66 0.17L191.66 0.17Q176.44 0.17 176.44-20.18ZM192.53-3.22L192.53-3.22L192.53-3.22Q195.75-3.22 198.66-6.74L198.66-6.74L198.66-6.74Q201.58-10.27 201.58-15.75L201.58-15.75L201.58-26.88L201.58-26.88Q201.58-31.15 199.53-33.54L199.53-33.54L199.53-33.54Q197.49-35.93 194.75-35.93L194.75-35.93L194.75-35.93Q192.01-35.93 190.49-35.50L190.49-35.50L190.49-35.50Q188.96-35.06 187.49-33.58L187.49-33.58L187.49-33.58Q184.70-30.71 184.70-20.18L184.70-20.18L184.70-20.18Q184.70-9.57 187.14-6.26L187.14-6.26L187.14-6.26Q189.31-3.22 192.53-3.22ZM212.37-66.73L212.37-66.73L212.37-66.73Q210.54-66.73 210.06-62.68L210.06-62.68L210.06-62.68Q209.58-58.64 209.58-44.63L209.58-44.63L209.58-44.63Q215.50-52.29 215.50-59.51L215.50-59.51L215.50-59.51Q215.50-66.73 212.37-66.73ZM229.68 2.35L229.68 2.35L232.03 2.44L232.03 2.44Q238.55 2.44 245.82-1.87L245.82-1.87L245.82-1.87Q253.08-6.18 258.52-13.44L258.52-13.44L258.52-13.44Q263.96-20.71 265.09-28.54L265.09-28.54L265.09-28.54Q259.52-21.84 249.52-21.84L249.52-21.84L249.52-21.84Q244.91-21.84 241.21-23.14L241.21-23.14L241.21-23.14Q237.51-24.45 235.25-26.49L235.25-26.49L235.25-26.49Q232.99-28.54 231.51-31.32L231.51-31.32L231.51-31.32Q228.90-36.19 228.90-42.63L228.90-42.63L228.90-42.63Q228.90-51.50 234.81-57.03L234.81-57.03L234.81-57.03Q240.73-62.55 250.65-62.55L250.65-62.55L250.65-62.55Q260.56-62.55 266.79-55.94L266.79-55.94L266.79-55.94Q273.01-49.33 273.01-36.02L273.01-36.02L273.01-36.02Q273.01-24.97 267.00-15.18L267.00-15.18L267.00-15.18Q261-5.39 251.43 0.26L251.43 0.26L251.43 0.26Q241.86 5.92 231.59 5.92L231.59 5.92L231.59 5.92Q230.29 5.92 229.55 5.31L229.55 5.31L229.55 5.31Q228.81 4.70 228.81 3.87L228.81 3.87L228.81 3.87Q228.81 3.05 229.68 2.35ZM265.61-42.28L265.61-42.28L265.61-42.28Q265.61-49.33 261.26-54.20L261.26-54.20L261.26-54.20Q256.91-59.07 250.52-59.07L250.52-59.07L250.52-59.07Q244.12-59.07 240.08-54.46L240.08-54.46L240.08-54.46Q236.03-49.85 236.03-42.50L236.03-42.50L236.03-42.50Q236.03-35.15 239.47-30.62L239.47-30.62L239.47-30.62Q242.90-26.10 249.25-26.10L249.25-26.10L249.25-26.10Q257.43-26.10 261.52-30.67L261.52-30.67L261.52-30.67Q265.61-35.24 265.61-42.28ZM287.88-48.81L287.88-48.81L287.88-48.81Q287.88-47.50 288.41-46.28L288.41-46.28L288.41-46.28Q287.54-44.89 285.36-44.89L285.36-44.89L285.36-44.89Q283.19-44.89 281.79-46.55L281.79-46.55L281.79-46.55Q280.40-48.20 280.40-51.33L280.40-51.33L280.40-51.33Q280.40-56.20 284.32-59.38L284.32-59.38L284.32-59.38Q288.23-62.55 294.63-62.55L294.63-62.55L294.63-62.55Q301.02-62.55 306.89-60.47L306.89-60.47L306.89-60.47Q312.76-58.38 318.25-55.77L318.25-55.77L318.25-55.77Q323.73-53.16 327.03-52.55L327.03-52.55L327.03-52.55Q335.65-59.33 343.04-59.33L343.04-59.33L343.04-59.33Q343.56-58.55 343.56-57.51L343.56-57.51L343.56-57.51Q343.56-53.59 338.30-50.46L338.30-50.46L338.30-50.46Q333.04-47.33 328.51-47.33L328.51-47.33L328.51-47.33Q320.86-38.19 316.38-24.80L316.38-24.80L316.38-24.80Q311.89-11.40 311.89 1.74L311.89 1.74L311.89 1.74Q311.89 6.18 309.63 7.31L309.63 7.31L309.63 7.31Q308.42 7.83 306.59 7.83L306.59 7.83L306.59 7.83Q300.76 7.83 300.76 1.65L300.76 1.65L300.76 1.65Q300.76-4.44 305.98-19.75L305.98-19.75L305.98-19.75Q308.50-26.97 312.76-34.89L312.76-34.89L312.76-34.89Q317.03-42.80 321.90-48.20L321.90-48.20L321.90-48.20Q319.46-48.98 314.50-51.29L314.50-51.29L314.50-51.29Q309.55-53.59 305.07-55.20L305.07-55.20L305.07-55.20Q300.58-56.81 296.63-56.81L296.63-56.81L296.63-56.81Q292.67-56.81 290.28-54.55L290.28-54.55L290.28-54.55Q287.88-52.29 287.88-48.81ZM367.23-17.49L367.23-17.49Q363.75-18.71 360.31-20.05L360.31-20.05L360.31-20.05Q356.87-21.40 354.52-23.93L354.52-23.93L354.52-23.93Q352.18-26.45 352.18-30.41L352.18-30.41L352.18-30.41Q352.18-34.37 355.83-36.84L355.83-36.84L355.83-36.84Q359.48-39.32 366.49-39.32L366.49-39.32L366.49-39.32Q373.49-39.32 377.45-36.89L377.45-36.89L377.45-36.89Q381.41-34.45 381.41-31.23L381.41-31.23L381.41-31.23Q381.41-29.67 380.23-28.71L380.23-28.71L380.23-28.71Q379.06-27.75 377.93-27.75L377.93-27.75L377.93-27.75Q375.75-27.75 375.06-28.80L375.06-28.80L375.06-28.80Q375.58-29.41 375.58-31.19L375.58-31.19L375.58-31.19Q375.58-32.97 372.88-34.45L372.88-34.45L372.88-34.45Q370.19-35.93 366.88-35.93L366.88-35.93L366.88-35.93Q363.57-35.93 361.40-34.71L361.40-34.71L361.40-34.71Q359.22-33.50 359.22-31.02L359.22-31.02L359.22-31.02Q359.22-28.54 361.70-26.71L361.70-26.71L361.70-26.71Q364.18-24.88 367.71-23.66L367.71-23.66L367.71-23.66Q371.23-22.45 374.75-21.05L374.75-21.05L374.75-21.05Q378.28-19.66 380.76-17.10L380.76-17.10L380.76-17.10Q383.24-14.53 383.24-10.79L383.24-10.79L383.24-10.79Q383.24-5.22 378.41-2.48L378.41-2.48L378.41-2.48Q373.58 0.26 365.70 0.26L365.70 0.26L365.70 0.26Q357.83 0.26 352.92-4.31L352.92-4.31L352.92-4.31Q348-8.87 348-15.66L348-15.66L348-15.66Q348-18.10 348.96-19.49L348.96-19.49L348.96-19.49Q349.91-20.88 351.13-20.88L351.13-20.88L351.13-20.88Q353.39-20.88 353.74-20.10L353.74-20.10L353.92-19.84L353.92-19.84Q353.39-18.53 353.39-16.62L353.39-16.62L353.39-16.62Q353.39-10.79 356.79-6.96L356.79-6.96L356.79-6.96Q360.18-3.13 366.18-3.13L366.18-3.13L366.18-3.13Q375.41-3.13 375.49-9.66L375.49-9.66L375.49-9.66Q375.49-14.62 367.23-17.49L367.23-17.49ZM435.52-20.62L435.52-20.62L435.52-20.62Q437.09-20.62 437.09-16.01L437.09-16.01L437.09-16.01Q437.09-9.31 433.65-4.52L433.65-4.52L433.65-4.52Q430.21 0.26 424.73 0.26L424.73 0.26L424.73 0.26Q419.25 0.26 415.64-3.61L415.64-3.61L415.64-3.61Q412.03-7.48 412.03-13.57L412.03-13.57L412.03-25.93L412.03-25.93Q412.03-36.28 406.81-36.28L406.81-36.28L406.81-36.28Q402.20-36.28 399.24-31.58L399.24-31.58L399.24-31.58Q396.28-26.88 396.28-15.83L396.28-15.83L396.28-0.96L396.28-0.96Q395.42 0.26 393.24 0.26L393.24 0.26L393.24 0.26Q391.06 0.26 389.76-1.09L389.76-1.09L389.76-1.09Q388.45-2.44 388.45-5.05L388.45-5.05L388.45-48.63L388.45-48.63Q388.45-59.94 390.63-65.03L390.63-65.03L390.63-65.03Q392.81-70.12 398.98-70.12L398.98-70.12L398.98-70.12Q402.29-70.12 404.12-67.34L404.12-67.34L404.12-67.34Q405.94-64.55 405.94-59.42L405.94-59.42L405.94-59.42Q405.94-50.11 396.28-40.46L396.28-40.46L396.28-32.80L396.28-32.80Q399.94-39.32 407.86-39.32L407.86-39.32L407.86-39.32Q413.51-39.32 416.86-35.76L416.86-35.76L416.86-35.76Q420.21-32.19 420.21-25.49L420.21-25.49L420.21-13.14L420.21-13.14Q420.21-8.18 421.78-5.66L421.78-5.66L421.78-5.66Q423.34-3.13 426.39-3.13L426.39-3.13L426.39-3.13Q429.43-3.13 431.82-7.26L431.82-7.26L431.82-7.26Q434.22-11.40 434.22-20.10L434.22-20.10L434.22-20.10Q434.30-20.62 435.52-20.62ZM396.28-44.63L396.28-44.63L396.28-44.63Q402.20-52.29 402.20-59.51L402.20-59.51L402.20-59.51Q402.20-66.73 399.07-66.73L399.07-66.73L399.07-66.73Q397.33-66.73 396.81-62.73L396.81-62.73L396.81-62.73Q396.28-58.73 396.28-44.63ZM451.92-39.32L451.92-39.32L451.92-39.32Q459.62-39.32 464.49-34.19L464.49-34.19L464.49-34.19Q469.36-29.06 469.36-20.23L469.36-20.23L469.36-20.23Q469.36-11.40 464.80-5.57L464.80-5.57L464.80-5.57Q460.23 0.26 452.57 0.26L452.57 0.26L452.57 0.26Q444.92 0.26 439.83-5.00L439.83-5.00L439.83-5.00Q434.74-10.27 434.74-19.62L434.74-19.62L434.74-19.62Q434.74-28.97 439.48-34.15L439.48-34.15L439.48-34.15Q444.22-39.32 451.92-39.32ZM451.96-35.93L451.96-35.93L451.96-35.93Q449.62-35.93 447.92-34.76L447.92-34.76L447.92-34.76Q446.22-33.58 446.22-31.41L446.22-31.41L446.22-31.41Q446.22-25.84 450.57-20.75L450.57-20.75L450.57-20.75Q454.92-15.66 460.93-14.01L460.93-14.01L460.93-14.01Q461.10-17.31 461.10-19.66L461.10-19.66L461.10-19.66Q461.10-28.71 459.19-32.32L459.19-32.32L459.19-32.32Q457.27-35.93 451.96-35.93ZM443.00-19.66L443.00-19.66L443.00-19.66Q443.00-10.79 445.22-6.96L445.22-6.96L445.22-6.96Q447.44-3.13 452.49-3.13L452.49-3.13L452.49-3.13Q455.97-3.13 457.84-4.92L457.84-4.92L457.84-4.92Q459.71-6.70 460.40-10.70L460.40-10.70L460.40-10.70Q454.75-11.92 450.01-15.83L450.01-15.83L450.01-15.83Q445.27-19.75 443.09-24.53L443.09-24.53L443.09-24.53Q443.00-23.06 443.00-19.66ZM509.21-31.93L509.21-31.93L509.21-31.93Q512.08-26.97 512.08-18.57L512.08-18.57L512.08-18.57Q512.08-10.18 507.86-5.00L507.86-5.00L507.86-5.00Q503.64 0.17 496.86 0.17L496.86 0.17L496.86 0.17Q492.86 0.17 489.77-2.61L489.77-2.61L489.77-2.61Q486.68-5.39 486.68-11.48L486.68-11.48L486.68-11.48Q486.68-25.75 500.86-32.80L500.86-32.80L500.86-32.80Q498.60-35.93 494.55-35.93L494.55-35.93L494.55-35.93Q490.51-35.93 486.85-31.93L486.85-31.93L486.85-31.93Q483.20-27.93 483.20-19.92L483.20-19.92L483.20 31.84L483.20 31.84Q482.33 33.06 480.15 33.06L480.15 33.06L480.15 33.06Q477.98 33.06 476.67 31.71L476.67 31.71L476.67 31.71Q475.37 30.36 475.37 27.75L475.37 27.75L475.37-38.11L475.37-38.11Q476.24-39.32 478.41-39.32L478.41-39.32L478.41-39.32Q480.59-39.32 481.89-37.98L481.89-37.98L481.89-37.98Q483.20-36.63 483.20-34.02L483.20-34.02L483.20-32.10L483.20-32.10Q487.72-39.32 495.16-39.32L495.16-39.32L495.16-39.32Q502.60-39.32 506.77-35.15L506.77-35.15L506.77-35.15Q515.91-38.11 527.22-38.11L527.22-38.11L527.22-38.11Q529.57-38.11 529.57-36.19L529.57-36.19L529.05-34.89L529.05-34.89Q518.52-34.89 509.21-31.93ZM496.68-3.22L496.68-3.22L496.68-3.22Q503.82-3.22 503.82-17.40L503.82-17.40L503.82-17.40Q503.82-24.88 502.60-29.15L502.60-29.15L502.60-29.15Q491.12-22.88 491.12-11.22L491.12-11.22L491.12-11.22Q491.12-7.40 492.77-5.31L492.77-5.31L492.77-5.31Q494.42-3.22 496.68-3.22Z" fill="url(#editing-shiny-gradient)"></path></g></g><g filter="url(#editing-shiny2)"><g transform="translate(-11.501601219177246, 126.59000205993652)"><path d="M16.10-17.49L16.10-17.49Q12.62-18.71 9.18-20.05L9.18-20.05L9.18-20.05Q5.74-21.40 3.39-23.93L3.39-23.93L3.39-23.93Q1.04-26.45 1.04-30.41L1.04-30.41L1.04-30.41Q1.04-34.37 4.70-36.84L4.70-36.84L4.70-36.84Q8.35-39.32 15.36-39.32L15.36-39.32L15.36-39.32Q22.36-39.32 26.32-36.89L26.32-36.89L26.32-36.89Q30.28-34.45 30.28-31.23L30.28-31.23L30.28-31.23Q30.28-29.67 29.10-28.71L29.10-28.71L29.10-28.71Q27.93-27.75 26.80-27.75L26.80-27.75L26.80-27.75Q24.62-27.75 23.93-28.80L23.93-28.80L23.93-28.80Q24.45-29.41 24.45-31.19L24.45-31.19L24.45-31.19Q24.45-32.97 21.75-34.45L21.75-34.45L21.75-34.45Q19.05-35.93 15.75-35.93L15.75-35.93L15.75-35.93Q12.44-35.93 10.27-34.71L10.27-34.71L10.27-34.71Q8.09-33.50 8.09-31.02L8.09-31.02L8.09-31.02Q8.09-28.54 10.57-26.71L10.57-26.71L10.57-26.71Q13.05-24.88 16.57-23.66L16.57-23.66L16.57-23.66Q20.10-22.45 23.62-21.05L23.62-21.05L23.62-21.05Q27.14-19.66 29.62-17.10L29.62-17.10L29.62-17.10Q32.10-14.53 32.10-10.79L32.10-10.79L32.10-10.79Q32.10-5.22 27.27-2.48L27.27-2.48L27.27-2.48Q22.45 0.26 14.57 0.26L14.57 0.26L14.57 0.26Q6.70 0.26 1.78-4.31L1.78-4.31L1.78-4.31Q-3.13-8.87-3.13-15.66L-3.13-15.66L-3.13-15.66Q-3.13-18.10-2.18-19.49L-2.18-19.49L-2.18-19.49Q-1.22-20.88 0-20.88L0-20.88L0-20.88Q2.26-20.88 2.61-20.10L2.61-20.10L2.78-19.84L2.78-19.84Q2.26-18.53 2.26-16.62L2.26-16.62L2.26-16.62Q2.26-10.79 5.66-6.96L5.66-6.96L5.66-6.96Q9.05-3.13 15.05-3.13L15.05-3.13L15.05-3.13Q24.27-3.13 24.36-9.66L24.36-9.66L24.36-9.66Q24.36-14.62 16.10-17.49L16.10-17.49ZM84.39-20.62L84.39-20.62L84.39-20.62Q85.96-20.62 85.96-16.01L85.96-16.01L85.96-16.01Q85.96-9.31 82.52-4.52L82.52-4.52L82.52-4.52Q79.08 0.26 73.60 0.26L73.60 0.26L73.60 0.26Q68.12 0.26 64.51-3.61L64.51-3.61L64.51-3.61Q60.90-7.48 60.90-13.57L60.90-13.57L60.90-25.93L60.90-25.93Q60.90-36.28 55.68-36.28L55.68-36.28L55.68-36.28Q51.07-36.28 48.11-31.58L48.11-31.58L48.11-31.58Q45.15-26.88 45.15-15.83L45.15-15.83L45.15-0.96L45.15-0.96Q44.28 0.26 42.11 0.26L42.11 0.26L42.11 0.26Q39.93 0.26 38.63-1.09L38.63-1.09L38.63-1.09Q37.32-2.44 37.32-5.05L37.32-5.05L37.32-48.63L37.32-48.63Q37.32-59.94 39.50-65.03L39.50-65.03L39.50-65.03Q41.67-70.12 47.85-70.12L47.85-70.12L47.85-70.12Q51.16-70.12 52.98-67.34L52.98-67.34L52.98-67.34Q54.81-64.55 54.81-59.42L54.81-59.42L54.81-59.42Q54.81-50.11 45.15-40.46L45.15-40.46L45.15-32.80L45.15-32.80Q48.81-39.32 56.72-39.32L56.72-39.32L56.72-39.32Q62.38-39.32 65.73-35.76L65.73-35.76L65.73-35.76Q69.08-32.19 69.08-25.49L69.08-25.49L69.08-13.14L69.08-13.14Q69.08-8.18 70.64-5.66L70.64-5.66L70.64-5.66Q72.21-3.13 75.26-3.13L75.26-3.13L75.26-3.13Q78.30-3.13 80.69-7.26L80.69-7.26L80.69-7.26Q83.09-11.40 83.09-20.10L83.09-20.10L83.09-20.10Q83.17-20.62 84.39-20.62ZM45.15-44.63L45.15-44.63L45.15-44.63Q51.07-52.29 51.07-59.51L51.07-59.51L51.07-59.51Q51.07-66.73 47.94-66.73L47.94-66.73L47.94-66.73Q46.20-66.73 45.68-62.73L45.68-62.73L45.68-62.73Q45.15-58.73 45.15-44.63ZM109.01-36.80L109.01-36.80L109.01-36.80Q110.14-39.32 112.62-39.32L112.62-39.32L112.62-39.32Q115.10-39.32 116.32-38.11L116.32-38.11L116.32-13.14L116.32-13.14Q116.32-8.18 117.89-5.66L117.89-5.66L117.89-5.66Q119.45-3.13 122.15-3.13L122.15-3.13L122.15-3.13Q130.33-3.13 130.33-20.10L130.33-20.10L130.33-20.10Q130.41-20.62 131.63-20.62L131.63-20.62L131.63-20.62Q133.20-20.62 133.20-16.01L133.20-16.01L133.20-16.01Q133.20-8.61 130.02-4.18L130.02-4.18L130.02-4.18Q126.85 0.26 121.10 0.26L121.10 0.26L121.10 0.26Q112.32 0.26 109.45-7.48L109.45-7.48L109.45-7.48Q107.79-3.92 104.92-1.83L104.92-1.83L104.92-1.83Q102.05 0.26 98.40 0.26L98.40 0.26L98.40 0.26Q83.17 0.26 83.17-19.66L83.17-19.66L83.17-19.66Q83.17-29.75 87.91-34.54L87.91-34.54L87.91-34.54Q92.66-39.32 100.49-39.32L100.49-39.32L100.49-39.32Q106.49-39.32 109.01-36.80ZM92.66-8.96L92.66-8.96L92.66-8.96Q93.87-5.13 95.44-4.13L95.44-4.13L95.44-4.13Q97.01-3.13 99.62-3.13L99.62-3.13L99.62-3.13Q102.23-3.13 105.31-6.39L105.31-6.39L105.31-6.39Q108.40-9.66 108.40-14.88L108.40-14.88L108.40-26.80L108.40-26.80Q108.40-30.89 106.27-33.41L106.27-33.41L106.27-33.41Q104.14-35.93 101.49-35.93L101.49-35.93L101.49-35.93Q98.83-35.93 97.27-35.41L97.27-35.41L97.27-35.41Q95.70-34.89 94.31-33.23L94.31-33.23L94.31-33.23Q91.44-30.10 91.44-19.66L91.44-19.66L91.44-19.66Q91.44-12.79 92.66-8.96ZM177.65-20.62L177.65-20.62L177.65-20.62Q179.22-20.62 179.22-16.01L179.22-16.01L179.22-16.01Q179.22-9.31 175.78-4.52L175.78-4.52L175.78-4.52Q172.35 0.26 166.87 0.26L166.87 0.26L166.87 0.26Q161.38 0.26 157.77-3.61L157.77-3.61L157.77-3.61Q154.16-7.48 154.16-13.57L154.16-13.57L154.16-25.93L154.16-25.93Q154.16-36.28 148.94-36.28L148.94-36.28L148.94-36.28Q144.33-36.28 141.38-31.58L141.38-31.58L141.38-31.58Q138.42-26.88 138.42-15.83L138.42-15.83L138.42-0.96L138.42-0.96Q137.55 0.26 135.37 0.26L135.37 0.26L135.37 0.26Q133.20 0.26 131.89-1.09L131.89-1.09L131.89-1.09Q130.59-2.44 130.59-5.05L130.59-5.05L130.59-48.63L130.59-48.63Q130.59-59.94 132.76-65.03L132.76-65.03L132.76-65.03Q134.94-70.12 141.11-70.12L141.11-70.12L141.11-70.12Q144.42-70.12 146.25-67.34L146.25-67.34L146.25-67.34Q148.07-64.55 148.07-59.42L148.07-59.42L148.07-59.42Q148.07-50.11 138.42-40.46L138.42-40.46L138.42-32.80L138.42-32.80Q142.07-39.32 149.99-39.32L149.99-39.32L149.99-39.32Q155.64-39.32 158.99-35.76L158.99-35.76L158.99-35.76Q162.34-32.19 162.34-25.49L162.34-25.49L162.34-13.14L162.34-13.14Q162.34-8.18 163.91-5.66L163.91-5.66L163.91-5.66Q165.47-3.13 168.52-3.13L168.52-3.13L168.52-3.13Q171.56-3.13 173.96-7.26L173.96-7.26L173.96-7.26Q176.35-11.40 176.35-20.10L176.35-20.10L176.35-20.10Q176.44-20.62 177.65-20.62ZM138.42-44.63L138.42-44.63L138.42-44.63Q144.33-52.29 144.33-59.51L144.33-59.51L144.33-59.51Q144.33-66.73 141.20-66.73L141.20-66.73L141.20-66.73Q139.46-66.73 138.94-62.73L138.94-62.73L138.94-62.73Q138.42-58.73 138.42-44.63ZM176.44-20.18L176.44-20.18L176.44-20.18Q176.44-30.19 181.18-34.76L181.18-34.76L181.18-34.76Q185.92-39.32 193.75-39.32L193.75-39.32L193.75-39.32Q198.80-39.32 201.75-37.32L201.75-37.32L201.75-49.16L201.75-49.16Q201.75-60.12 203.97-65.12L203.97-65.12L203.97-65.12Q206.19-70.12 212.28-70.12L212.28-70.12L212.28-70.12Q215.59-70.12 217.41-67.34L217.41-67.34L217.41-67.34Q219.24-64.55 219.24-59.42L219.24-59.42L219.24-59.42Q219.24-50.11 209.58-40.46L209.58-40.46L209.58-13.14L209.58-13.14Q209.58-8.18 211.28-5.66L211.28-5.66L211.28-5.66Q212.98-3.13 215.76-3.13L215.76-3.13L215.76-3.13Q218.54-3.13 221.11-6.57L221.11-6.57L221.11-6.57Q223.68-10.01 223.68-17.49L223.68-17.49L223.68-17.49Q223.68-19.14 223.59-20.10L223.59-20.10L223.59-20.10Q223.68-20.62 224.90-20.62L224.90-20.62L224.90-20.62Q226.46-20.62 226.46-16.01L226.46-16.01L226.46-16.01Q226.46-8.79 223.20-4.26L223.20-4.26L223.20-4.26Q219.94 0.26 214.80 0.26L214.80 0.26L214.80 0.26Q205.49 0.26 202.62-7.92L202.62-7.92L202.62-7.92Q200.97-4.26 198.10-2.04L198.10-2.04L198.10-2.04Q195.23 0.17 191.66 0.17L191.66 0.17L191.66 0.17Q176.44 0.17 176.44-20.18ZM192.53-3.22L192.53-3.22L192.53-3.22Q195.75-3.22 198.66-6.74L198.66-6.74L198.66-6.74Q201.58-10.27 201.58-15.75L201.58-15.75L201.58-26.88L201.58-26.88Q201.58-31.15 199.53-33.54L199.53-33.54L199.53-33.54Q197.49-35.93 194.75-35.93L194.75-35.93L194.75-35.93Q192.01-35.93 190.49-35.50L190.49-35.50L190.49-35.50Q188.96-35.06 187.49-33.58L187.49-33.58L187.49-33.58Q184.70-30.71 184.70-20.18L184.70-20.18L184.70-20.18Q184.70-9.57 187.14-6.26L187.14-6.26L187.14-6.26Q189.31-3.22 192.53-3.22ZM212.37-66.73L212.37-66.73L212.37-66.73Q210.54-66.73 210.06-62.68L210.06-62.68L210.06-62.68Q209.58-58.64 209.58-44.63L209.58-44.63L209.58-44.63Q215.50-52.29 215.50-59.51L215.50-59.51L215.50-59.51Q215.50-66.73 212.37-66.73ZM229.68 2.35L229.68 2.35L232.03 2.44L232.03 2.44Q238.55 2.44 245.82-1.87L245.82-1.87L245.82-1.87Q253.08-6.18 258.52-13.44L258.52-13.44L258.52-13.44Q263.96-20.71 265.09-28.54L265.09-28.54L265.09-28.54Q259.52-21.84 249.52-21.84L249.52-21.84L249.52-21.84Q244.91-21.84 241.21-23.14L241.21-23.14L241.21-23.14Q237.51-24.45 235.25-26.49L235.25-26.49L235.25-26.49Q232.99-28.54 231.51-31.32L231.51-31.32L231.51-31.32Q228.90-36.19 228.90-42.63L228.90-42.63L228.90-42.63Q228.90-51.50 234.81-57.03L234.81-57.03L234.81-57.03Q240.73-62.55 250.65-62.55L250.65-62.55L250.65-62.55Q260.56-62.55 266.79-55.94L266.79-55.94L266.79-55.94Q273.01-49.33 273.01-36.02L273.01-36.02L273.01-36.02Q273.01-24.97 267.00-15.18L267.00-15.18L267.00-15.18Q261-5.39 251.43 0.26L251.43 0.26L251.43 0.26Q241.86 5.92 231.59 5.92L231.59 5.92L231.59 5.92Q230.29 5.92 229.55 5.31L229.55 5.31L229.55 5.31Q228.81 4.70 228.81 3.87L228.81 3.87L228.81 3.87Q228.81 3.05 229.68 2.35ZM265.61-42.28L265.61-42.28L265.61-42.28Q265.61-49.33 261.26-54.20L261.26-54.20L261.26-54.20Q256.91-59.07 250.52-59.07L250.52-59.07L250.52-59.07Q244.12-59.07 240.08-54.46L240.08-54.46L240.08-54.46Q236.03-49.85 236.03-42.50L236.03-42.50L236.03-42.50Q236.03-35.15 239.47-30.62L239.47-30.62L239.47-30.62Q242.90-26.10 249.25-26.10L249.25-26.10L249.25-26.10Q257.43-26.10 261.52-30.67L261.52-30.67L261.52-30.67Q265.61-35.24 265.61-42.28ZM287.88-48.81L287.88-48.81L287.88-48.81Q287.88-47.50 288.41-46.28L288.41-46.28L288.41-46.28Q287.54-44.89 285.36-44.89L285.36-44.89L285.36-44.89Q283.19-44.89 281.79-46.55L281.79-46.55L281.79-46.55Q280.40-48.20 280.40-51.33L280.40-51.33L280.40-51.33Q280.40-56.20 284.32-59.38L284.32-59.38L284.32-59.38Q288.23-62.55 294.63-62.55L294.63-62.55L294.63-62.55Q301.02-62.55 306.89-60.47L306.89-60.47L306.89-60.47Q312.76-58.38 318.25-55.77L318.25-55.77L318.25-55.77Q323.73-53.16 327.03-52.55L327.03-52.55L327.03-52.55Q335.65-59.33 343.04-59.33L343.04-59.33L343.04-59.33Q343.56-58.55 343.56-57.51L343.56-57.51L343.56-57.51Q343.56-53.59 338.30-50.46L338.30-50.46L338.30-50.46Q333.04-47.33 328.51-47.33L328.51-47.33L328.51-47.33Q320.86-38.19 316.38-24.80L316.38-24.80L316.38-24.80Q311.89-11.40 311.89 1.74L311.89 1.74L311.89 1.74Q311.89 6.18 309.63 7.31L309.63 7.31L309.63 7.31Q308.42 7.83 306.59 7.83L306.59 7.83L306.59 7.83Q300.76 7.83 300.76 1.65L300.76 1.65L300.76 1.65Q300.76-4.44 305.98-19.75L305.98-19.75L305.98-19.75Q308.50-26.97 312.76-34.89L312.76-34.89L312.76-34.89Q317.03-42.80 321.90-48.20L321.90-48.20L321.90-48.20Q319.46-48.98 314.50-51.29L314.50-51.29L314.50-51.29Q309.55-53.59 305.07-55.20L305.07-55.20L305.07-55.20Q300.58-56.81 296.63-56.81L296.63-56.81L296.63-56.81Q292.67-56.81 290.28-54.55L290.28-54.55L290.28-54.55Q287.88-52.29 287.88-48.81ZM367.23-17.49L367.23-17.49Q363.75-18.71 360.31-20.05L360.31-20.05L360.31-20.05Q356.87-21.40 354.52-23.93L354.52-23.93L354.52-23.93Q352.18-26.45 352.18-30.41L352.18-30.41L352.18-30.41Q352.18-34.37 355.83-36.84L355.83-36.84L355.83-36.84Q359.48-39.32 366.49-39.32L366.49-39.32L366.49-39.32Q373.49-39.32 377.45-36.89L377.45-36.89L377.45-36.89Q381.41-34.45 381.41-31.23L381.41-31.23L381.41-31.23Q381.41-29.67 380.23-28.71L380.23-28.71L380.23-28.71Q379.06-27.75 377.93-27.75L377.93-27.75L377.93-27.75Q375.75-27.75 375.06-28.80L375.06-28.80L375.06-28.80Q375.58-29.41 375.58-31.19L375.58-31.19L375.58-31.19Q375.58-32.97 372.88-34.45L372.88-34.45L372.88-34.45Q370.19-35.93 366.88-35.93L366.88-35.93L366.88-35.93Q363.57-35.93 361.40-34.71L361.40-34.71L361.40-34.71Q359.22-33.50 359.22-31.02L359.22-31.02L359.22-31.02Q359.22-28.54 361.70-26.71L361.70-26.71L361.70-26.71Q364.18-24.88 367.71-23.66L367.71-23.66L367.71-23.66Q371.23-22.45 374.75-21.05L374.75-21.05L374.75-21.05Q378.28-19.66 380.76-17.10L380.76-17.10L380.76-17.10Q383.24-14.53 383.24-10.79L383.24-10.79L383.24-10.79Q383.24-5.22 378.41-2.48L378.41-2.48L378.41-2.48Q373.58 0.26 365.70 0.26L365.70 0.26L365.70 0.26Q357.83 0.26 352.92-4.31L352.92-4.31L352.92-4.31Q348-8.87 348-15.66L348-15.66L348-15.66Q348-18.10 348.96-19.49L348.96-19.49L348.96-19.49Q349.91-20.88 351.13-20.88L351.13-20.88L351.13-20.88Q353.39-20.88 353.74-20.10L353.74-20.10L353.92-19.84L353.92-19.84Q353.39-18.53 353.39-16.62L353.39-16.62L353.39-16.62Q353.39-10.79 356.79-6.96L356.79-6.96L356.79-6.96Q360.18-3.13 366.18-3.13L366.18-3.13L366.18-3.13Q375.41-3.13 375.49-9.66L375.49-9.66L375.49-9.66Q375.49-14.62 367.23-17.49L367.23-17.49ZM435.52-20.62L435.52-20.62L435.52-20.62Q437.09-20.62 437.09-16.01L437.09-16.01L437.09-16.01Q437.09-9.31 433.65-4.52L433.65-4.52L433.65-4.52Q430.21 0.26 424.73 0.26L424.73 0.26L424.73 0.26Q419.25 0.26 415.64-3.61L415.64-3.61L415.64-3.61Q412.03-7.48 412.03-13.57L412.03-13.57L412.03-25.93L412.03-25.93Q412.03-36.28 406.81-36.28L406.81-36.28L406.81-36.28Q402.20-36.28 399.24-31.58L399.24-31.58L399.24-31.58Q396.28-26.88 396.28-15.83L396.28-15.83L396.28-0.96L396.28-0.96Q395.42 0.26 393.24 0.26L393.24 0.26L393.24 0.26Q391.06 0.26 389.76-1.09L389.76-1.09L389.76-1.09Q388.45-2.44 388.45-5.05L388.45-5.05L388.45-48.63L388.45-48.63Q388.45-59.94 390.63-65.03L390.63-65.03L390.63-65.03Q392.81-70.12 398.98-70.12L398.98-70.12L398.98-70.12Q402.29-70.12 404.12-67.34L404.12-67.34L404.12-67.34Q405.94-64.55 405.94-59.42L405.94-59.42L405.94-59.42Q405.94-50.11 396.28-40.46L396.28-40.46L396.28-32.80L396.28-32.80Q399.94-39.32 407.86-39.32L407.86-39.32L407.86-39.32Q413.51-39.32 416.86-35.76L416.86-35.76L416.86-35.76Q420.21-32.19 420.21-25.49L420.21-25.49L420.21-13.14L420.21-13.14Q420.21-8.18 421.78-5.66L421.78-5.66L421.78-5.66Q423.34-3.13 426.39-3.13L426.39-3.13L426.39-3.13Q429.43-3.13 431.82-7.26L431.82-7.26L431.82-7.26Q434.22-11.40 434.22-20.10L434.22-20.10L434.22-20.10Q434.30-20.62 435.52-20.62ZM396.28-44.63L396.28-44.63L396.28-44.63Q402.20-52.29 402.20-59.51L402.20-59.51L402.20-59.51Q402.20-66.73 399.07-66.73L399.07-66.73L399.07-66.73Q397.33-66.73 396.81-62.73L396.81-62.73L396.81-62.73Q396.28-58.73 396.28-44.63ZM451.92-39.32L451.92-39.32L451.92-39.32Q459.62-39.32 464.49-34.19L464.49-34.19L464.49-34.19Q469.36-29.06 469.36-20.23L469.36-20.23L469.36-20.23Q469.36-11.40 464.80-5.57L464.80-5.57L464.80-5.57Q460.23 0.26 452.57 0.26L452.57 0.26L452.57 0.26Q444.92 0.26 439.83-5.00L439.83-5.00L439.83-5.00Q434.74-10.27 434.74-19.62L434.74-19.62L434.74-19.62Q434.74-28.97 439.48-34.15L439.48-34.15L439.48-34.15Q444.22-39.32 451.92-39.32ZM451.96-35.93L451.96-35.93L451.96-35.93Q449.62-35.93 447.92-34.76L447.92-34.76L447.92-34.76Q446.22-33.58 446.22-31.41L446.22-31.41L446.22-31.41Q446.22-25.84 450.57-20.75L450.57-20.75L450.57-20.75Q454.92-15.66 460.93-14.01L460.93-14.01L460.93-14.01Q461.10-17.31 461.10-19.66L461.10-19.66L461.10-19.66Q461.10-28.71 459.19-32.32L459.19-32.32L459.19-32.32Q457.27-35.93 451.96-35.93ZM443.00-19.66L443.00-19.66L443.00-19.66Q443.00-10.79 445.22-6.96L445.22-6.96L445.22-6.96Q447.44-3.13 452.49-3.13L452.49-3.13L452.49-3.13Q455.97-3.13 457.84-4.92L457.84-4.92L457.84-4.92Q459.71-6.70 460.40-10.70L460.40-10.70L460.40-10.70Q454.75-11.92 450.01-15.83L450.01-15.83L450.01-15.83Q445.27-19.75 443.09-24.53L443.09-24.53L443.09-24.53Q443.00-23.06 443.00-19.66ZM509.21-31.93L509.21-31.93L509.21-31.93Q512.08-26.97 512.08-18.57L512.08-18.57L512.08-18.57Q512.08-10.18 507.86-5.00L507.86-5.00L507.86-5.00Q503.64 0.17 496.86 0.17L496.86 0.17L496.86 0.17Q492.86 0.17 489.77-2.61L489.77-2.61L489.77-2.61Q486.68-5.39 486.68-11.48L486.68-11.48L486.68-11.48Q486.68-25.75 500.86-32.80L500.86-32.80L500.86-32.80Q498.60-35.93 494.55-35.93L494.55-35.93L494.55-35.93Q490.51-35.93 486.85-31.93L486.85-31.93L486.85-31.93Q483.20-27.93 483.20-19.92L483.20-19.92L483.20 31.84L483.20 31.84Q482.33 33.06 480.15 33.06L480.15 33.06L480.15 33.06Q477.98 33.06 476.67 31.71L476.67 31.71L476.67 31.71Q475.37 30.36 475.37 27.75L475.37 27.75L475.37-38.11L475.37-38.11Q476.24-39.32 478.41-39.32L478.41-39.32L478.41-39.32Q480.59-39.32 481.89-37.98L481.89-37.98L481.89-37.98Q483.20-36.63 483.20-34.02L483.20-34.02L483.20-32.10L483.20-32.10Q487.72-39.32 495.16-39.32L495.16-39.32L495.16-39.32Q502.60-39.32 506.77-35.15L506.77-35.15L506.77-35.15Q515.91-38.11 527.22-38.11L527.22-38.11L527.22-38.11Q529.57-38.11 529.57-36.19L529.57-36.19L529.05-34.89L529.05-34.89Q518.52-34.89 509.21-31.93ZM496.68-3.22L496.68-3.22L496.68-3.22Q503.82-3.22 503.82-17.40L503.82-17.40L503.82-17.40Q503.82-24.88 502.60-29.15L502.60-29.15L502.60-29.15Q491.12-22.88 491.12-11.22L491.12-11.22L491.12-11.22Q491.12-7.40 492.77-5.31L492.77-5.31L492.77-5.31Q494.42-3.22 496.68-3.22Z" fill="url(#editing-shiny-gradient2)"></path></g></g><style>text {
  font-size: 64px;
  font-family: Arial Black;
  dominant-baseline: central;
  text-anchor: middle;
}</style></svg>